<svg xmlns="http://www.w3.org/2000/svg" xmlns:xlink="http://www.w3.org/1999/xlink" width="332.604" height="136.064" viewBox="0 0 249.453 102.048"><clipPath id="a"><path transform="matrix(1 0 0 -1 -70.866 765.355)" d="M-48.074-10.006h793.248V841.89H-48.074z"/></clipPath><g clip-path="url(#a)"><clipPath id="b"><path transform="matrix(1 0 0 -1 -70.866 765.355)" d="M-48.074-10.006h793.248V841.89H-48.074z"/></clipPath><g clip-path="url(#b)"><clipPath id="c"><path transform="matrix(1 0 0 -1 -70.866 765.355)" d="M-48.074-10.006h793.248V841.89H-48.074z"/></clipPath><g clip-path="url(#c)"><clipPath id="d"><path transform="matrix(1 0 0 -1 -70.866 765.355)" d="M-48.074-10.006h793.248V841.89H-48.074z"/></clipPath><g clip-path="url(#d)"><clipPath id="e"><path transform="matrix(.8263 0 0 -.8263 -118.94 776.362)" d="M0 1.212h960V939.39H0z"/></clipPath><g clip-path="url(#e)"><g data-name="P"><clipPath id="f"><path transform="matrix(.8263 0 0 -.8263 -118.94 776.362)" d="M0 1.212h960V939.39H0z"/></clipPath><g clip-path="url(#f)"><clipPath id="g"><path transform="matrix(.8263 0 0 -.8263 -118.94 776.362)" d="M-123.84 574.525h960v540.001h-960z"/></clipPath><g clip-path="url(#g)"><clipPath id="h"><path transform="matrix(.8263 0 0 -.8263 -118.94 776.362)" d="M140.184 837.771H448.95v108.976H140.184z"/></clipPath><g clip-path="url(#h)"><path d="M3.022 38.135c0-16.84 14.386-30.482 32.126-30.482 17.741 0 32.127 13.642 32.127 30.482S52.889 68.617 35.148 68.617c-17.74 0-32.126-13.642-32.126-30.482z" fill="#fff" fill-rule="evenodd"/></g></g><clipPath id="i"><path transform="matrix(.8263 0 0 -.8263 -118.94 776.362)" d="M-123.84 574.525h960v540.001h-960z"/></clipPath><g clip-path="url(#i)"><clipPath id="j"><path transform="matrix(.8263 0 0 -.8263 -118.94 776.362)" d="M140.184 837.771H448.95v108.976H140.184z"/></clipPath><g clip-path="url(#j)"><path stroke-width=".793248" stroke-miterlimit="10" fill="none" stroke="#000" d="M3.022 38.135c0-16.84 14.386-30.482 32.126-30.482 17.741 0 32.127 13.642 32.127 30.482S52.889 68.617 35.148 68.617c-17.74 0-32.126-13.642-32.126-30.482z"/></g></g></g><g data-name="P"><clipPath id="k"><path transform="matrix(.8263 0 0 -.8263 -118.94 776.362)" d="M-123.84 574.525h960v540.001h-960z"/></clipPath><g clip-path="url(#k)"><clipPath id="l"><path transform="matrix(.8263 0 0 -.8263 -118.94 776.362)" d="M140.184 837.771H448.95v108.976H140.184z"/></clipPath><g clip-path="url(#l)"><clipPath id="m"><path transform="matrix(.8263 0 0 -.8263 -118.94 776.362)" d="M-123.84 573.313h960v540h-960z" fill-rule="evenodd"/></clipPath><g clip-path="url(#m)"><symbol id="n"><path d="M.066.068H0l.006.09V.72C.006.746.003.778 0 .815A.911.911 0 0 1 .095.809h.112C.23.809.263.81.305.815A1.09 1.09 0 0 1 .3.72V.18C.299.159.302.128.305.09H.241c.003.03.004.053.004.067H.06c0-.02.003-.05.006-.09M.06.76V.522h.185v.237H.06m0-.287V.207h.185v.265H.06m.635.35v-.17h.068C.783.654.81.656.841.66V.597a.783.783 0 0 1-.078.006H.695v-.49C.695.073.685.045.66.03.64.015.594.005.523 0a.288.288 0 0 1-.04.087.705.705 0 0 1 .097-.01.09.09 0 0 1 .03.005c.021.005.03.024.03.056v.465H.414L.333.597v.062A1.15 1.15 0 0 1 .415.653h.224v.169a.85.85 0 0 1-.006.085L.71.895C.717.894.72.892.72.89S.718.885.713.88C.7.873.695.853.695.823M.436.517C.47.459.506.397.545.327L.487.294a1.816 1.816 0 0 1-.105.195l.054.029z"/></symbol><symbol id="o"><path d="M.536.718h.126v.119c0 .03-.001.06-.006.088l.076-.01C.74.915.744.912.744.909S.742.903.735.898C.725.893.72.87.72.832V.718h.131c.019 0 .042.001.07.006A.287.287 0 0 1 .915.658V.33C.915.3.916.272.921.25H.853C.858.269.86.29.859.313H.72V.082C.72.054.722.027.726 0h-.07a.45.45 0 0 1 .006.082v.231H.527A.387.387 0 0 1 .533.229H.465A.414.414 0 0 1 .471.31v.347c0 .02-.001.042-.006.067A.374.374 0 0 1 .536.718M.527.668V.363h.135v.305H.527M.72.363H.86v.305H.72V.363M0 .619c.1.08.171.18.214.296l.07-.03C.292.882.296.879.294.876.295.873.29.87.28.865a.134.134 0 0 1-.029-.03 1.702 1.702 0 0 1-.05-.08h.144c.02 0 .043.002.068.007V.7a.324.324 0 0 1-.068.006H.167A3.114 3.114 0 0 0 .066.58.096.096 0 0 1 0 .62m.107-.23h.096v.146H.155A.3.3 0 0 1 .09.529V.59A.316.316 0 0 1 .154.585h.16c.02 0 .042.001.065.006V.529a.312.312 0 0 1-.067.006H.259V.389h.084a.28.28 0 0 1 .063.006V.333a.295.295 0 0 1-.063.006H.26V.125c.058.036.104.068.137.094l.015-.06a1.775 1.775 0 0 1-.2-.136L.169.087c.024.015.035.031.034.05V.34H.11A.303.303 0 0 1 .046.333v.062a.257.257 0 0 1 .06-.006z"/></symbol><use xlink:href="#n" transform="matrix(11.60125 0 0 -11.60125 21.154 43.598)"/><use xlink:href="#o" transform="matrix(11.60125 0 0 -11.60125 31.838 43.797)"/></g></g></g></g><g data-name="P"><clipPath id="p"><path transform="matrix(.8263 0 0 -.8263 -118.94 776.362)" d="M-123.84 574.525h960v540.001h-960z"/></clipPath><g clip-path="url(#p)"><clipPath id="q"><path transform="matrix(.8263 0 0 -.8263 -118.94 776.362)" d="M140.184 837.771H448.95v108.976H140.184z"/></clipPath><g clip-path="url(#q)"><clipPath id="r"><path transform="matrix(.8263 0 0 -.8263 -118.94 776.362)" d="M-123.84 573.313h960v540h-960z" fill-rule="evenodd"/></clipPath><g clip-path="url(#r)"><symbol id="s"><path d="M.544 0 .462.215h-.31L.069 0H0l.269.688h.077L.613 0H.544M.306.634a1.462 1.462 0 0 0-.042-.12L.17.268h.273L.351.514a7.033 7.033 0 0 0-.043.12H.306z"/></symbol><use xlink:href="#s" transform="matrix(11.60125 0 0 -11.60125 43.275 42.488)"/></g></g></g></g><g data-name="P"><clipPath id="t"><path transform="matrix(.8263 0 0 -.8263 -118.94 776.362)" d="M-123.84 574.525h960v540.001h-960z"/></clipPath><g clip-path="url(#t)"><clipPath id="u"><path transform="matrix(.8263 0 0 -.8263 -118.94 776.362)" d="M140.184 837.771H448.95v108.976H140.184z"/></clipPath><g clip-path="url(#u)"><path d="M179.916 38.135c0-16.84 14.386-30.482 32.127-30.482 17.74 0 32.126 13.642 32.126 30.482s-14.386 30.482-32.126 30.482-32.127-13.642-32.127-30.482z" fill="#fff" fill-rule="evenodd"/></g></g><clipPath id="v"><path transform="matrix(.8263 0 0 -.8263 -118.94 776.362)" d="M-123.84 574.525h960v540.001h-960z"/></clipPath><g clip-path="url(#v)"><clipPath id="w"><path transform="matrix(.8263 0 0 -.8263 -118.94 776.362)" d="M140.184 837.771H448.95v108.976H140.184z"/></clipPath><g clip-path="url(#w)"><path stroke-width=".793248" stroke-miterlimit="10" fill="none" stroke="#000" d="M179.916 38.135c0-16.84 14.386-30.482 32.127-30.482 17.74 0 32.126 13.642 32.126 30.482s-14.386 30.482-32.126 30.482-32.127-13.642-32.127-30.482z"/></g></g></g><g data-name="P"><clipPath id="x"><path transform="matrix(.8263 0 0 -.8263 -118.94 776.362)" d="M-123.84 574.525h960v540.001h-960z"/></clipPath><g clip-path="url(#x)"><clipPath id="y"><path transform="matrix(.8263 0 0 -.8263 -118.94 776.362)" d="M140.184 837.771H448.95v108.976H140.184z"/></clipPath><g clip-path="url(#y)"><clipPath id="z"><path transform="matrix(.8263 0 0 -.8263 -118.94 776.362)" d="M-123.84 573.313h960v540h-960z" fill-rule="evenodd"/></clipPath><g clip-path="url(#z)"><use xlink:href="#n" transform="matrix(11.60125 0 0 -11.60125 198.47 43.598)"/><use xlink:href="#o" transform="matrix(11.60125 0 0 -11.60125 209.153 43.797)"/></g></g></g></g><g data-name="P"><clipPath id="A"><path transform="matrix(.8263 0 0 -.8263 -118.94 776.362)" d="M-123.84 574.525h960v540.001h-960z"/></clipPath><g clip-path="url(#A)"><clipPath id="B"><path transform="matrix(.8263 0 0 -.8263 -118.94 776.362)" d="M140.184 837.771H448.95v108.976H140.184z"/></clipPath><g clip-path="url(#B)"><clipPath id="C"><path transform="matrix(.8263 0 0 -.8263 -118.94 776.362)" d="M-123.84 573.313h960v540h-960z" fill-rule="evenodd"/></clipPath><g clip-path="url(#C)"><symbol id="D"><path d="M.435.193A.17.17 0 0 0 .37.05.29.29 0 0 0 .19 0H0v.688h.16C.317.688.395.633.395.522A.157.157 0 0 0 .361.419.169.169 0 0 0 .264.363.204.204 0 0 0 .39.308.155.155 0 0 0 .435.193M.33.516c0 .041-.015.071-.043.09a.23.23 0 0 1-.128.03H.065v-.25H.16c.055 0 .098.01.126.032A.116.116 0 0 1 .33.516m.04-.32C.369.241.352.276.317.3a.254.254 0 0 1-.145.035H.065V.052H.18c.063 0 .11.013.142.037.032.025.048.06.048.107z"/></symbol><use xlink:href="#D" transform="matrix(11.60125 0 0 -11.60125 221.502 42.488)"/></g></g></g></g><g data-name="P"><clipPath id="E"><path transform="matrix(.8263 0 0 -.8263 -118.94 776.362)" d="M-123.84 574.525h960v540.001h-960z"/></clipPath><g clip-path="url(#E)"><clipPath id="F"><path transform="matrix(.8263 0 0 -.8263 -118.94 776.362)" d="M140.184 837.771H448.95v108.976H140.184z"/></clipPath><g clip-path="url(#F)"><path d="m57.97 15.973 116.955 12.28-.132 1.28L57.84 17.263zm116.327 10.37 4.669 2.983-5.19 1.95z"/></g></g></g><g data-name="P"><clipPath id="G"><path transform="matrix(.8263 0 0 -.8263 -118.94 776.362)" d="M-123.84 574.525h960v540.001h-960z"/></clipPath><g clip-path="url(#G)"><clipPath id="H"><path transform="matrix(.8263 0 0 -.8263 -118.94 776.362)" d="M140.184 837.771H448.95v108.976H140.184z"/></clipPath><g clip-path="url(#H)"><path d="m179.503 50.38-113.26 8.66.09 1.28 113.27-8.65zM66.92 57.149l-4.752 2.842 5.132 2.1z"/></g></g></g></g><g data-name="P"><clipPath id="I"><path transform="matrix(.8263 0 0 -.8263 -118.94 776.362)" d="M0-.319h960V937.86H0z"/></clipPath><g clip-path="url(#I)"><clipPath id="J"><path transform="matrix(.8263 0 0 -.8263 -118.94 776.362)" d="M-123.84 572.995h960v540.001h-960z"/></clipPath><g clip-path="url(#J)"><clipPath id="K"><path transform="matrix(.8263 0 0 -.8263 -118.94 776.362)" d="M140.184 836.241H448.95v108.976H140.184z"/></clipPath><g clip-path="url(#K)"><clipPath id="L"><path transform="matrix(.8263 0 0 -.8263 -118.94 776.362)" d="M-123.84 571.783h960v540h-960z" fill-rule="evenodd"/></clipPath><g clip-path="url(#L)"><symbol id="M"><path d="M.473.599.472.583A.033.033 0 0 0 .468.57.013.013 0 0 0 .463.565.012.012 0 0 0 .456.563H.278V.016c0-.003 0-.005-.002-.007A.014.014 0 0 0 .27.004.112.112 0 0 0 .237 0a.117.117 0 0 0-.034.004.014.014 0 0 0-.007.005.012.012 0 0 0-.002.007v.547H.017L.009.565a.015.015 0 0 0-.005.006A.058.058 0 0 0 0 .6l.001.016a.057.057 0 0 0 .003.011.014.014 0 0 0 .005.007.015.015 0 0 0 .008.002h.44c.002 0 .004 0 .006-.002A.013.013 0 0 0 .468.626.033.033 0 0 0 .472.615V.599z"/></symbol><use xlink:href="#M" transform="matrix(13.18775 0 0 -13.18775 56.68 9.783)"/></g></g></g></g></g><g data-name="P"><clipPath id="N"><path transform="matrix(.8263 0 0 -.8263 -118.94 776.362)" d="M0-.319h960V937.86H0z"/></clipPath><g clip-path="url(#N)"><clipPath id="O"><path transform="matrix(.8263 0 0 -.8263 -118.94 776.362)" d="M-123.84 572.995h960v540.001h-960z"/></clipPath><g clip-path="url(#O)"><clipPath id="P"><path transform="matrix(.8263 0 0 -.8263 -118.94 776.362)" d="M140.184 836.241H448.95v108.976H140.184z"/></clipPath><g clip-path="url(#P)"><clipPath id="Q"><path transform="matrix(.8263 0 0 -.8263 -118.94 776.362)" d="M-123.84 571.783h960v540h-960z" fill-rule="evenodd"/></clipPath><g clip-path="url(#Q)"><symbol id="R"><path d="M.54.033A.054.054 0 0 0 .544.015c0-.004 0-.007-.003-.01C.538.003.534.002.527.001a.228.228 0 0 0-.062.002.018.018 0 0 0-.007.005.05.05 0 0 0-.003.007L.4.17H.138L.086.017A.03.03 0 0 0 .082.01.022.022 0 0 0 .075.004.047.047 0 0 0 .062 0a.196.196 0 0 0-.046 0 .023.023 0 0 0-.013.005C.001.008 0 .01 0 .016l.004.017.212.587A.028.028 0 0 0 .221.63a.023.023 0 0 0 .01.005C.234.636.24.636.245.637A.253.253 0 0 0 .313.634a.02.02 0 0 0 .01-.006A.024.024 0 0 0 .328.62L.54.033M.268.55.158.236h.22L.268.55z"/></symbol><symbol id="S"><path d="M.389.187a.181.181 0 0 0-.017-.08.168.168 0 0 0-.045-.059.196.196 0 0 0-.069-.036.282.282 0 0 0-.143-.007.333.333 0 0 0-.084.03.105.105 0 0 0-.02.014.04.04 0 0 0-.009.014.129.129 0 0 0-.001.042c0 .005.002.01.003.012.001.003.003.005.005.006a.012.012 0 0 0 .007.002C.02.125.026.122.035.117A.328.328 0 0 1 .114.08a.224.224 0 0 1 .114 0A.117.117 0 0 1 .267.1c.01.009.02.02.025.033a.107.107 0 0 1 .009.044.083.083 0 0 1-.012.046.12.12 0 0 1-.033.033.257.257 0 0 1-.046.027.617.617 0 0 0-.104.052.222.222 0 0 0-.045.036.17.17 0 0 0-.033.047.165.165 0 0 0-.012.067.149.149 0 0 0 .054.123.178.178 0 0 0 .06.031.254.254 0 0 0 .16-.002A.191.191 0 0 0 .342.61.028.028 0 0 0 .35.604.023.023 0 0 0 .35.597l.002-.01A.19.19 0 0 0 .35.544.015.015 0 0 0 .346.538.01.01 0 0 0 .34.536a.04.04 0 0 0-.017.006.39.39 0 0 1-.068.031.163.163 0 0 1-.096 0A.091.091 0 0 1 .126.555.075.075 0 0 1 .107.527a.092.092 0 0 1 .006-.08.126.126 0 0 1 .033-.033.3.3 0 0 1 .046-.027A69.285 69.285 0 0 0 .297.334.204.204 0 0 0 .343.3.15.15 0 0 0 .39.187z"/></symbol><use xlink:href="#R" transform="matrix(8.82488 0 0 -8.82488 62.187 12.942)"/><use xlink:href="#S" transform="matrix(8.82488 0 0 -8.82488 67.498 12.998)"/></g></g></g></g></g><g data-name="P"><clipPath id="T"><path transform="matrix(.8263 0 0 -.8263 -118.94 776.362)" d="M0 1.212h960V939.39H0z"/></clipPath><g clip-path="url(#T)"><clipPath id="U"><path transform="matrix(.8263 0 0 -.8263 -118.94 776.362)" d="M-123.84 574.525h960v540.001h-960z"/></clipPath><g clip-path="url(#U)"><clipPath id="V"><path transform="matrix(.8263 0 0 -.8263 -118.94 776.362)" d="M140.184 837.771H448.95v108.976H140.184z"/></clipPath><g clip-path="url(#V)"><path d="M54.583 16.32a3.218 3.218 0 0 1 3.214-3.214 3.214 3.214 0 1 1 0 6.429 3.218 3.218 0 0 1-3.214-3.215z" fill="red" fill-rule="evenodd"/></g></g></g><g data-name="P"><clipPath id="W"><path transform="matrix(.8263 0 0 -.8263 -118.94 776.362)" d="M-123.84 574.525h960v540.001h-960z"/></clipPath><g clip-path="url(#W)"><clipPath id="X"><path transform="matrix(.8263 0 0 -.8263 -118.94 776.362)" d="M140.184 837.771H448.95v108.976H140.184z"/></clipPath><g clip-path="url(#X)"><path d="M178.925 29.26c0-1.81 1.446-3.272 3.214-3.272 1.785 0 3.223 1.463 3.223 3.272 0 1.81-1.438 3.272-3.223 3.272-1.768 0-3.214-1.462-3.214-3.272z" fill="red" fill-rule="evenodd"/></g></g></g><g data-name="P"><clipPath id="Y"><path transform="matrix(.8263 0 0 -.8263 -118.94 776.362)" d="M-123.84 574.525h960v540.001h-960z"/></clipPath><g clip-path="url(#Y)"><clipPath id="Z"><path transform="matrix(.8263 0 0 -.8263 -118.94 776.362)" d="M140.184 837.771H448.95v108.976H140.184z"/></clipPath><g clip-path="url(#Z)"><path d="M55.773 59.8c0-1.81 1.446-3.272 3.214-3.272 1.785 0 3.223 1.463 3.223 3.272 0 1.81-1.438 3.273-3.223 3.273-1.768 0-3.214-1.463-3.214-3.273z" fill="red" fill-rule="evenodd"/></g></g></g><g data-name="P"><clipPath id="aa"><path transform="matrix(.8263 0 0 -.8263 -118.94 776.362)" d="M-123.84 574.525h960v540.001h-960z"/></clipPath><g clip-path="url(#aa)"><clipPath id="ab"><path transform="matrix(.8263 0 0 -.8263 -118.94 776.362)" d="M140.184 837.771H448.95v108.976H140.184z"/></clipPath><g clip-path="url(#ab)"><path d="M179.42 50.976a3.269 3.269 0 0 1 3.273-3.273 3.269 3.269 0 0 1 3.272 3.273 3.269 3.269 0 0 1-3.272 3.272 3.269 3.269 0 0 1-3.273-3.272z" fill="red" fill-rule="evenodd"/></g></g></g><g data-name="P"><clipPath id="ac"><path transform="matrix(.8263 0 0 -.8263 -118.94 776.362)" d="M-123.84 574.525h960v540.001h-960z"/></clipPath><g clip-path="url(#ac)"><clipPath id="ad"><path transform="matrix(.8263 0 0 -.8263 -118.94 776.362)" d="M140.184 837.771H448.95v108.976H140.184z"/></clipPath><g clip-path="url(#ad)"><clipPath id="ae"><path transform="matrix(.8263 0 0 -.8263 -118.94 776.362)" d="M-123.84 573.313h960v540h-960z" fill-rule="evenodd"/></clipPath><g clip-path="url(#ae)"><use xlink:href="#M" transform="matrix(13.18775 0 0 -13.18775 166.643 17.458)"/></g></g></g></g><g data-name="P"><clipPath id="af"><path transform="matrix(.8263 0 0 -.8263 -118.94 776.362)" d="M-123.84 574.525h960v540.001h-960z"/></clipPath><g clip-path="url(#af)"><clipPath id="ag"><path transform="matrix(.8263 0 0 -.8263 -118.94 776.362)" d="M140.184 837.771H448.95v108.976H140.184z"/></clipPath><g clip-path="url(#ag)"><clipPath id="ah"><path transform="matrix(.8263 0 0 -.8263 -118.94 776.362)" d="M-123.84 573.313h960v540h-960z" fill-rule="evenodd"/></clipPath><g clip-path="url(#ah)"><symbol id="ai"><path d="M.417.181a.187.187 0 0 0-.03-.1.184.184 0 0 0-.077-.06A.252.252 0 0 0 .197 0H.031A.036.036 0 0 0 .01.007C.003.013 0 .021 0 .034v.564C0 .61.003.619.01.624A.035.035 0 0 0 .03.632h.144a.333.333 0 0 0 .093-.01.162.162 0 0 0 .06-.032.128.128 0 0 0 .036-.05A.176.176 0 0 0 .355.39.135.135 0 0 0 .292.338.15.15 0 0 0 .407.24a.172.172 0 0 0 .01-.059M.29.464C.29.479.288.493.284.505a.075.075 0 0 1-.02.032.088.088 0 0 1-.036.02.201.201 0 0 1-.058.006H.083V.36h.096A.14.14 0 0 1 .23.367a.089.089 0 0 1 .052.057.129.129 0 0 1 .007.04M.328.176a.125.125 0 0 1-.01.05.091.091 0 0 1-.026.036.112.112 0 0 1-.043.022.23.23 0 0 1-.065.008H.083V.069h.122c.02 0 .036.003.05.007a.113.113 0 0 1 .038.02c.011.01.02.02.026.034a.11.11 0 0 1 .01.046z"/></symbol><symbol id="aj"><path d="M.421.016.42.009C.419.007.417.005.414.004A.054.054 0 0 0 .4 0a.222.222 0 0 0-.057.003.022.022 0 0 0-.008.006.046.046 0 0 0-.004.01L.272.169a.478.478 0 0 1-.021.046.14.14 0 0 1-.026.037.103.103 0 0 1-.036.024.125.125 0 0 1-.049.009H.084v-.27A.01.01 0 0 0 .082.01.014.014 0 0 0 .075.004.112.112 0 0 0 .042 0a.12.12 0 0 0-.033.004.014.014 0 0 0-.007.005A.012.012 0 0 0 0 .016V.6c0 .012.003.021.01.026A.035.035 0 0 0 .03.635h.135A.438.438 0 0 0 .234.63.238.238 0 0 0 .298.61.153.153 0 0 0 .346.576.136.136 0 0 0 .374.528a.173.173 0 0 0 .01-.06.174.174 0 0 0-.009-.057.137.137 0 0 0-.024-.044.166.166 0 0 0-.039-.034.248.248 0 0 0-.05-.023C.272.305.282.3.29.292A.221.221 0 0 0 .334.233.55.55 0 0 0 .354.19L.411.051A.28.28 0 0 0 .42.016M.295.459a.112.112 0 0 1-.017.063.093.093 0 0 1-.055.037.435.435 0 0 1-.068.006H.084V.353h.082c.022 0 .041.002.057.007.016.006.03.013.04.023.011.01.02.021.024.034a.113.113 0 0 1 .008.042z"/></symbol><use xlink:href="#ai" transform="matrix(8.82488 0 0 -8.82488 173.733 20.592)"/><use xlink:href="#aj" transform="matrix(8.82488 0 0 -8.82488 178.492 20.618)"/></g></g></g></g><g data-name="P"><clipPath id="ak"><path transform="matrix(.8263 0 0 -.8263 -118.94 776.362)" d="M-123.84 574.525h960v540.001h-960z"/></clipPath><g clip-path="url(#ak)"><clipPath id="al"><path transform="matrix(.8263 0 0 -.8263 -118.94 776.362)" d="M140.184 837.771H448.95v108.976H140.184z"/></clipPath><g clip-path="url(#al)"><clipPath id="am"><path transform="matrix(.8263 0 0 -.8263 -118.94 776.362)" d="M-123.84 573.313h960v540h-960z" fill-rule="evenodd"/></clipPath><g clip-path="url(#am)"><use xlink:href="#M" transform="matrix(13.18775 0 0 -13.18775 175.832 71.184)"/></g></g></g></g><g data-name="P"><clipPath id="an"><path transform="matrix(.8263 0 0 -.8263 -118.94 776.362)" d="M-123.84 574.525h960v540.001h-960z"/></clipPath><g clip-path="url(#an)"><clipPath id="ao"><path transform="matrix(.8263 0 0 -.8263 -118.94 776.362)" d="M140.184 837.771H448.95v108.976H140.184z"/></clipPath><g clip-path="url(#ao)"><clipPath id="ap"><path transform="matrix(.8263 0 0 -.8263 -118.94 776.362)" d="M-123.84 573.313h960v540h-960z" fill-rule="evenodd"/></clipPath><g clip-path="url(#ap)"><use xlink:href="#ai" transform="matrix(8.82488 0 0 -8.82488 182.921 74.318)"/><use xlink:href="#S" transform="matrix(8.82488 0 0 -8.82488 187.246 74.4)"/></g></g></g></g><g data-name="P"><clipPath id="aq"><path transform="matrix(.8263 0 0 -.8263 -118.94 776.362)" d="M-123.84 574.525h960v540.001h-960z"/></clipPath><g clip-path="url(#aq)"><clipPath id="ar"><path transform="matrix(.8263 0 0 -.8263 -118.94 776.362)" d="M140.184 837.771H448.95v108.976H140.184z"/></clipPath><g clip-path="url(#ar)"><clipPath id="as"><path transform="matrix(.8263 0 0 -.8263 -118.94 776.362)" d="M-123.84 573.313h960v540h-960z" fill-rule="evenodd"/></clipPath><g clip-path="url(#as)"><use xlink:href="#M" transform="matrix(13.18775 0 0 -13.18775 53.176 78.166)"/></g></g></g></g><g data-name="P"><clipPath id="at"><path transform="matrix(.8263 0 0 -.8263 -118.94 776.362)" d="M-123.84 574.525h960v540.001h-960z"/></clipPath><g clip-path="url(#at)"><clipPath id="au"><path transform="matrix(.8263 0 0 -.8263 -118.94 776.362)" d="M140.184 837.771H448.95v108.976H140.184z"/></clipPath><g clip-path="url(#au)"><clipPath id="av"><path transform="matrix(.8263 0 0 -.8263 -118.94 776.362)" d="M-123.84 573.313h960v540h-960z" fill-rule="evenodd"/></clipPath><g clip-path="url(#av)"><use xlink:href="#R" transform="matrix(8.82488 0 0 -8.82488 58.684 81.327)"/><use xlink:href="#aj" transform="matrix(8.82488 0 0 -8.82488 64.43 81.327)"/></g></g></g></g></g></g></g></g></g><clipPath id="aw"><path transform="matrix(1 0 0 -1 -70.866 765.355)" d="M-47.315-8.994h793.248v851.896H-47.315z"/></clipPath><g clip-path="url(#aw)"><clipPath id="ax"><path transform="matrix(1 0 0 -1 -70.866 765.355)" d="M-149.644 464.735h793.248v851.896h-793.248z"/></clipPath><g clip-path="url(#ax)"><clipPath id="ay"><path transform="matrix(1 0 0 -1 -70.866 765.355)" d="M-101.57 474.741h595.28v841.89h-595.28z"/></clipPath><g clip-path="url(#ay)"><symbol id="az"><path d="M.75.828V.18c0-.052.001-.1.004-.14L.695.007v.078H.06V.023L0 0c.003.052.004.105.004.16v.59C.004.794.003.844 0 .898L.059.863h.629l.027.04.062-.051L.75.828M.059.84V.36a.94.94 0 0 1 .285.175.854.854 0 0 0-.09.16A.867.867 0 0 0 .12.531L.11.54c.042.055.077.11.106.168.028.06.045.104.05.133H.06m0-.73h.636v.73H.273L.34.805.316.793A1.467 1.467 0 0 1 .281.738h.207l.028.035L.574.72.543.699A1.887 1.887 0 0 0 .406.527.548.548 0 0 1 .684.422V.406C.644.404.62.388.609.36A.75.75 0 0 0 .371.5.89.89 0 0 0 .06.34V.11m.21.605A.802.802 0 0 1 .376.563a1.1 1.1 0 0 1 .11.152H.27m.023-.3A.89.89 0 0 0 .426.378C.452.369.464.35.46.324.458.301.453.29.445.29S.428.296.418.31a.721.721 0 0 1-.129.093l.004.012M.219.274C.339.26.417.246.453.233c.04-.01.06-.03.063-.058C.518.147.513.133.5.133.492.133.48.14.46.156A.801.801 0 0 1 .22.258v.015z"/></symbol><use xlink:href="#az" transform="matrix(11 0 0 -11 35.956 100.511)"/></g></g></g><clipPath id="aA"><path transform="matrix(1 0 0 -1 -70.866 765.355)" d="M-47.315-8.994h793.248v851.896H-47.315z"/></clipPath><g clip-path="url(#aA)"><clipPath id="aB"><path transform="matrix(1 0 0 -1 -70.866 765.355)" d="M-149.644 464.735h793.248v851.896h-793.248z"/></clipPath><g clip-path="url(#aB)"><clipPath id="aC"><path transform="matrix(1 0 0 -1 -70.866 765.355)" d="M-101.57 474.741h595.28v841.89h-595.28z"/></clipPath><g clip-path="url(#aC)"><symbol id="aD"><path d="M.386.674.348.59h-.2L.106.502A.349.349 0 0 0 .311.406.216.216 0 0 0 .375.25.22.22 0 0 0 .354.153.257.257 0 0 0 .229.027.264.264 0 0 0 .114 0C.074 0 .045.007.027.02.009.034 0 .049 0 .065c0 .01.004.017.011.024a.04.04 0 0 0 .029.01.056.056 0 0 0 .022-.003.198.198 0 0 0 .032-.02A.13.13 0 0 1 .168.05c.039 0 .072.015.1.043A.144.144 0 0 1 .313.2c0 .04-.013.077-.039.112a.247.247 0 0 1-.106.08.432.432 0 0 1-.145.026l.127.257h.237z"/></symbol><symbol id="aE"><path d="M.054.108A.052.052 0 0 0 .093.092.052.052 0 0 0 .108.054.053.053 0 0 0 .092.016.052.052 0 0 0 .054 0 .053.053 0 0 0 0 .054C0 .07.005.082.016.093c.01.01.023.015.038.015z"/></symbol><symbol id="aF"><path d="M.45.244v-.07H.36V0H.28v.175H0v.062l.307.439h.054V.244H.45m-.17 0v.329L.048.244H.28z"/></symbol><use xlink:href="#aD" transform="matrix(11 0 0 -11 48.728 99.609)"/><use xlink:href="#aE" transform="matrix(11 0 0 -11 54.48 99.63)"/><use xlink:href="#aF" transform="matrix(11 0 0 -11 56.624 99.48)"/></g></g></g><clipPath id="aG"><path transform="matrix(1 0 0 -1 -70.866 765.355)" d="M-47.315-8.994h793.248v851.896H-47.315z"/></clipPath><g clip-path="url(#aG)"><clipPath id="aH"><path transform="matrix(1 0 0 -1 -70.866 765.355)" d="M-149.644 464.735h793.248v851.896h-793.248z"/></clipPath><g clip-path="url(#aH)"><clipPath id="aI"><path transform="matrix(1 0 0 -1 -70.866 765.355)" d="M-101.57 474.741h595.28v841.89h-595.28z"/></clipPath><g clip-path="url(#aI)"><symbol id="aJ"><path d="M.617.652C.617.754.616.84.613.906l.098-.05L.67.827V.652h.06l.05.051L.855.63H.672V.105C.672.056.643.021.586 0 .583.04.54.068.457.086v.02A.645.645 0 0 1 .59.093C.608.096.617.112.617.14v.488H.414A.355.355 0 0 1 .32.617L.285.652h.332M.363.532A.482.482 0 0 0 .48.433C.493.415.5.4.5.39.5.378.493.362.48.344.47.328.462.32.457.32.449.32.441.336.434.367A.464.464 0 0 1 .352.52L.363.53M.06.738V.504h.16v.234h-.16m0-.258V.23h.16v.25h-.16M.273.402C.273.277.275.197.277.16L.22.13v.078h-.16V.125L0 .094a13.128 13.128 0 0 1 0 .699L.063.762H.21L.242.8.305.75.273.723v-.32z"/></symbol><symbol id="aK"><path d="M.477.64V.415h.128v.227H.477m.183 0V.414h.133v.227H.66M.844.465c0-.037.001-.072.004-.106L.793.332v.059H.66V.152C.66.111.661.07.664.032L.602 0c.002.102.003.232.003.39H.477V.349L.422.32a5.626 5.626 0 0 1 0 .375l.055-.03h.128c0 .067 0 .147-.003.241l.09-.043L.66.84V.664h.13l.026.04.059-.048L.844.63V.465M.214.156.384.27.395.258C.28.158.214.088.195.047L.141.109c.013.013.02.033.02.059v.21H.108a.289.289 0 0 1-.074-.01L0 .401h.16V.56H.082a1.464 1.464 0 0 0-.07-.094L0 .473c.068.112.12.256.156.433L.246.86.207.836A5.21 5.21 0 0 0 .168.734h.121l.05.051.063-.074H.16A4.944 4.944 0 0 0 .094.582h.168l.043.047.062-.07H.215V.402h.078L.34.45.402.38H.215V.156z"/></symbol><symbol id="aL"><path d="M.121.672H.5l.05.05.075-.074h-.39A.246.246 0 0 1 .155.637L.121.672M.25.496V.31h.238v.187H.25M.195.551.25.52h.234l.028.039L.57.512.54.484V.34c0-.034 0-.068.003-.102L.488.218v.067H.25V.227L.195.207a4.055 4.055 0 0 1 0 .344m.32-.442C.57.102.613.096.642.094c.03 0 .046.02.046.058v.664H.063V.023L0 0c.005.086.008.155.008.207v.492c0 .058-.001.117-.004.18l.058-.04h.622L.71.88l.062-.05-.03-.024V.129C.744.066.712.023.647 0c0 .034-.044.064-.132.09v.02z"/></symbol><symbol id="aM"><path d="M.438.566c0 .18-.002.3-.004.36L.527.883.492.855V.758H.7l.047.047.07-.07H.492V.565h.266l.058.059.082-.082h-.77A.355.355 0 0 1 .036.531L0 .566h.184c0 .13-.002.218-.004.262L.273.785.238.758V.566h.2M.433.203C.436.234.438.29.438.371.438.454.435.51.433.535l.09-.043L.491.465c0-.12.001-.2.004-.238L.434.203M.238.461.316.402.273.387A1.08 1.08 0 0 0 .035.14L.027.152a1.016 1.016 0 0 1 .211.309M.77.457l.07-.07L.805.379C.645.228.51.133.398.094A1.87 1.87 0 0 0 .008 0v.016c.078.013.166.036.265.07.1.031.192.08.278.144A.997.997 0 0 1 .77.457z"/></symbol><symbol id="aN"><path d="m.773.707.043.086H.422C.427.762.426.738.418.723A.047.047 0 0 0 .391.695a.033.033 0 0 0-.032 0C.35.701.344.705.344.711c0 .008.005.02.015.035a.297.297 0 0 1 .043.125h.016L.422.816h.387l.03.04L.91.788C.882.79.84.76.785.7L.773.707M.508.734.586.68.546.668a1.268 1.268 0 0 0-.202-.18L.336.5a.798.798 0 0 1 .172.234m.144-.02C.7.698.743.677.785.653.83.632.853.613.855.598A.06.06 0 0 0 .852.55C.844.535.837.527.832.527c-.008 0-.016.007-.023.02a.38.38 0 0 1-.063.07 1.055 1.055 0 0 1-.101.086l.007.012m-.03-.3V.128c0-.026 0-.057.003-.094L.566.012C.57.072.57.117.57.148v.235A.814.814 0 0 0 .266.055L.258.066c.12.1.207.215.262.348H.43A.355.355 0 0 1 .336.402L.3.437h.27C.57.504.568.555.565.595L.656.55.621.527v-.09h.164l.05.051L.91.414H.66A.594.594 0 0 1 .793.211.287.287 0 0 1 .926.145V.129C.876.124.848.109.84.086a.589.589 0 0 0-.195.328H.62m-.457.25C.164.771.163.85.16.898L.246.86.215.832V.664h.039l.043.043.066-.066H.215V.477L.344.55.352.539.215.437V.102C.215.055.19.02.14 0 .143.031.11.057.043.078v.016A.436.436 0 0 1 .145.086c.013 0 .02.014.02.043v.277a2.611 2.611 0 0 1-.099-.07L.051.312 0 .376c.034.013.089.04.164.078v.188h-.09L.035.633.004.664h.16z"/></symbol><symbol id="aO"><path d="M.652.137A1.6 1.6 0 0 1 .656.03L.594 0c.002.13.004.313.004.547H.496A.289.289 0 0 1 .422.535L.387.57h.21c0 .123 0 .233-.003.332L.688.86.651.832V.57h.145l.055.055.066-.078H.652v-.41M.222.16l.169.106.011-.012C.285.152.217.082.2.043L.15.105a.068.068 0 0 1 .019.06v.21H.113A.289.289 0 0 1 .04.363L.004.398h.164v.157H.094A1.254 1.254 0 0 0 .012.453L0 .461c.08.138.137.286.168.445l.09-.05L.227.831A1.412 1.412 0 0 1 .18.73h.129l.05.051.063-.074h-.25a5.763 5.763 0 0 0-.07-.129h.16l.054.055.067-.078h-.16V.398h.086L.363.45.43.375H.223V.16z"/></symbol><symbol id="aP"><path d="M.504.898C.577.852.616.82.62.805.63.792.633.783.633.777.633.764.626.75.613.734.603.721.595.714.59.714.582.715.576.728.57.75a.45.45 0 0 1-.078.137l.012.011M.324.684h.43l.05.05L.88.66h-.27V.414h.137L.79.457.855.391H.61V.09h.18l.055.055.078-.079H.39A.355.355 0 0 1 .297.055L.262.09h.293v.3h-.07A.355.355 0 0 1 .39.38L.355.414h.2V.66H.453A.355.355 0 0 1 .36.648L.324.684m-.086.23L.316.855C.293.85.256.818.207.758a1.11 1.11 0 0 0-.172-.16L.027.609A.966.966 0 0 1 .16.773a.67.67 0 0 1 .078.141m.016-.23L.328.617C.308.612.275.581.23.523v-.5L.172 0c.002.068.004.128.004.18v.273A1.1 1.1 0 0 0 .008.29L0 .301C.04.34.086.4.14.48c.055.08.093.148.114.203z"/></symbol><symbol id="aQ"><path d="M.254.172A.499.499 0 0 1 .348.39c.01.075.015.147.015.214 0 .07-.001.137-.004.2L.414.773c.057.008.12.019.188.032A.406.406 0 0 1 .75.863L.809.79A1.33 1.33 0 0 1 .637.777 2.172 2.172 0 0 0 .418.754v-.16h.293L.75.633.809.574.773.547A1.326 1.326 0 0 0 .672.355.508.508 0 0 0 .816.242.12.12 0 0 0 .832.195a.07.07 0 0 0-.008-.03C.82.153.814.147.81.147c-.006 0-.012.007-.02.02a.793.793 0 0 1-.055.066.668.668 0 0 1-.086.086.658.658 0 0 0-.3-.207L.344.13c.112.057.199.129.261.215A3.097 3.097 0 0 1 .441.46L.45.473C.507.444.566.413.63.379a.833.833 0 0 1 .09.191H.418C.415.38.363.243.262.16L.254.172M.109.836l.012.012a.499.499 0 0 0 .09-.075C.229.753.236.733.23.715.227.697.22.684.21.675.203.672.198.669.195.669.182.668.173.684.168.715a.304.304 0 0 1-.059.12M.215.16A.433.433 0 0 1 .457.066a3.29 3.29 0 0 1 .461.012L.922.066C.872.051.845.03.84 0 .725 0 .63.001.555.004A.57.57 0 0 0 .37.035a.419.419 0 0 0-.117.067C.22.128.198.14.187.14.18.143.162.13.134.1a.59.59 0 0 1-.074-.09L.008.064C.042.085.094.117.164.16v.348H.13A.355.355 0 0 1 .035.496L0 .531h.156l.04.04L.25.515.215.492V.16z"/></symbol><symbol id="aR"><path d="M.348.559.355.57A.52.52 0 0 0 .47.477C.492.453.503.432.5.414A.058.058 0 0 0 .484.371C.477.363.47.36.464.36c-.01 0-.02.017-.03.051A.493.493 0 0 1 .348.56m.297.09c0 .114-.002.19-.004.23L.73.836.698.805V.648h.086L.835.7.907.625H.7V.203A.101.101 0 0 0 .68.137a.114.114 0 0 0-.054-.04C.609.14.565.17.492.188v.016C.562.195.605.191.622.191c.015 0 .023.01.023.032v.402h-.27A.289.289 0 0 1 .301.613L.266.648h.379M.082.824.09.836A.4.4 0 0 0 .19.77C.212.75.221.732.22.71.219.694.214.68.203.673.195.664.19.66.183.66c-.01 0-.02.016-.03.047a.307.307 0 0 1-.071.117M.215.168A.43.43 0 0 1 .313.102C.351.083.402.072.465.066a4.076 4.076 0 0 1 .289 0l.164.012V.063C.866.052.84.03.84 0a6.815 6.815 0 0 0-.293.012.621.621 0 0 0-.18.027.283.283 0 0 0-.113.063C.223.13.2.145.187.145.177.145.16.13.134.102a.55.55 0 0 1-.07-.098L.007.059.16.168v.32H.13A.355.355 0 0 1 .035.477L0 .512h.148l.043.043L.246.5.215.473V.168z"/></symbol><symbol id="aS"><path d="M.441.527a4.048 4.048 0 0 1 0 .352L.5.844h.285L.82.879.875.824.84.801C.84.68.84.603.844.566L.789.546v.048H.496V.55L.441.527M.496.82V.617H.79V.82H.496M.391.477h.406L.84.52.902.453H.664V.285h.113L.82.328.883.262H.664v-.18h.152l.047.047.067-.07H.46A.355.355 0 0 1 .368.047L.332.082h.281v.18h-.07A.355.355 0 0 1 .449.25L.414.285h.2v.168H.52A.355.355 0 0 1 .426.441L.39.477M.195.805a3.75 3.75 0 0 0-.164-.02v.016c.05.008.107.022.172.043.068.02.112.04.133.058l.05-.07a.976.976 0 0 1-.14-.02V.617h.059L.348.66.41.594H.246V.52A.312.312 0 0 0 .352.457C.37.441.379.426.379.41A.075.075 0 0 0 .367.371C.362.361.357.355.352.355c-.008 0-.017.013-.028.04a.305.305 0 0 1-.078.109c0-.27.001-.43.004-.477L.191 0c.003.099.004.25.004.453a.93.93 0 0 0-.183-.3L.004.163a1.26 1.26 0 0 1 .18.43H.129A.355.355 0 0 1 .035.582L0 .617h.195v.188z"/></symbol><symbol id="aT"><path d="M.125.824h.55l.06.059L.812.8h-.56A.355.355 0 0 1 .16.789L.125.824M.004.57h.773L.836.63.914.547H.488v-.43C.491.06.457.021.387 0 .382.044.336.078.25.102v.015C.326.11.374.105.395.105.418.108.43.125.43.156v.39H.133a.355.355 0 0 1-.094-.01L.004.57M.25.47.336.41.296.395A1.11 1.11 0 0 0 .013.09L0 .102C.11.208.193.33.25.469M.594.445C.693.372.76.318.797.281.836.245.855.216.855.195A.078.078 0 0 0 .844.141C.836.125.829.117.824.117.816.117.807.13.797.152a.931.931 0 0 1-.078.125c-.034.047-.08.1-.137.157l.012.011z"/></symbol><symbol id="aU"><path d="M.371.879C.426.855.457.833.465.812.473.794.466.776.445.758h.172l.051.05.074-.074H.555L.613.695C.587.688.551.655.503.598h.224l.058.058.082-.082H.13A.355.355 0 0 1 .035.563L0 .598h.48c.032.06.051.105.06.136H.28a.3.3 0 0 0 .07-.05.052.052 0 0 0 .012-.032.063.063 0 0 0-.008-.027.037.037 0 0 0-.027-.02c-.01 0-.017.012-.02.036a.253.253 0 0 1-.046.093H.187L.138.727l-.032.03h.31C.414.793.396.83.362.872L.371.88M.152.539.207.508h.422l.027.031.059-.043L.688.473C.688.36.688.29.69.262L.637.238v.035h-.43v-.02L.152.235a2.68 2.68 0 0 1 0 .305M.207.484V.402h.43v.082h-.43m0-.105V.297h.43v.082h-.43M.121.203.137.2A.34.34 0 0 0 .113.06C.103.035.087.022.066.019.048.015.036.017.027.024.02.03.016.033.016.04c0 .01.011.024.035.04.031.023.054.064.07.124m.227.05.007.013A.396.396 0 0 0 .47.203C.482.19.489.177.489.164A.07.07 0 0 0 .476.13C.47.116.467.109.465.109.457.11.448.12.437.141a.478.478 0 0 1-.09.113m.325-.05.012.01A.516.516 0 0 0 .816.134C.832.117.84.103.84.09A.07.07 0 0 0 .828.055C.82.039.814.03.808.03c-.007 0-.016.013-.027.04a.533.533 0 0 1-.11.132M.228.074c0 .078-.002.132-.004.16L.309.191.277.168V.094C.275.062.29.046.32.043h.235C.578.04.592.049.598.07.605.091.61.126.613.176H.63A.44.44 0 0 1 .637.078.04.04 0 0 1 .672.047C.659.016.626 0 .574 0H.301C.249.003.224.027.227.074z"/></symbol><use xlink:href="#aJ" transform="matrix(11 0 0 -11 73.897 100.468)"/><use xlink:href="#aK" transform="matrix(11 0 0 -11 84.425 100.511)"/><use xlink:href="#aL" transform="matrix(11 0 0 -11 96.456 100.468)"/><use xlink:href="#aM" transform="matrix(11 0 0 -11 106.51 100.597)"/><use xlink:href="#aN" transform="matrix(11 0 0 -11 117.339 100.425)"/><use xlink:href="#aO" transform="matrix(11 0 0 -11 128.382 100.511)"/><use xlink:href="#aP" transform="matrix(11 0 0 -11 139.339 100.597)"/><use xlink:href="#aQ" transform="matrix(11 0 0 -11 150.425 100.21)"/><use xlink:href="#aR" transform="matrix(11 0 0 -11 161.425 100.125)"/><use xlink:href="#aS" transform="matrix(11 0 0 -11 172.339 100.554)"/><use xlink:href="#aT" transform="matrix(11 0 0 -11 183.425 100.511)"/><use xlink:href="#aU" transform="matrix(11 0 0 -11 194.682 100.125)"/><use xlink:href="#az" transform="matrix(11 0 0 -11 206.456 100.511)"/></g></g></g></g></svg>
