<svg xmlns="http://www.w3.org/2000/svg" xmlns:xlink="http://www.w3.org/1999/xlink" width="347.723" height="302.363" viewBox="0 0 260.792 226.772"><clipPath id="a"><path transform="matrix(1 0 0 -1 -76.535 765.355)" d="M0 0h595.28v841.89H0z"/></clipPath><g clip-path="url(#a)"><clipPath id="b"><path transform="matrix(1 0 0 -1 -76.535 765.355)" d="M0 0h595.28v841.89H0z"/></clipPath><g clip-path="url(#b)"><clipPath id="c"><path transform="matrix(1 0 0 -1 -76.535 765.355)" d="M0 0h595.28v841.89H0z"/></clipPath><g clip-path="url(#c)"><clipPath id="d"><path transform="matrix(1 0 0 -1 -76.535 765.355)" d="M0 0h595.28v841.89H0z"/></clipPath><g clip-path="url(#d)"><clipPath id="e"><path transform="matrix(1 0 0 -1 -76.535 765.355)" d="M0 0h595.28v841.89H0z"/></clipPath><g clip-path="url(#e)"><clipPath id="f"><path transform="matrix(.53564 0 0 -.53564 93.542 612.198)" d="M-170.088 0H476.28v1136.54h-646.368z"/></clipPath><g clip-path="url(#f)"><g data-name="P"><clipPath id="g"><path transform="matrix(.53564 0 0 -.53564 93.542 612.198)" d="M-171.834 24.849h646.368v1132.21h-646.368z"/></clipPath><g clip-path="url(#g)"><clipPath id="h"><path transform="matrix(.53564 0 0 -.53564 93.542 612.198)" d="M-171.835 760.22h476.28v396.84h-476.28z"/></clipPath><g clip-path="url(#h)"><path stroke-width=".38566079999999997" stroke-dasharray="1.5426431999999999,1.1569824000000002,.38566079999999997,1.1569824000000002" stroke-miterlimit="10" fill="none" stroke="#000" d="M209.564 16.47v160.783"/></g></g></g><g data-name="P"><clipPath id="i"><path transform="matrix(.53564 0 0 -.53564 93.542 612.198)" d="M-171.834 24.849h646.368v1132.21h-646.368z"/></clipPath><g clip-path="url(#i)"><clipPath id="j"><path transform="matrix(.53564 0 0 -.53564 93.542 612.198)" d="M-171.835 760.22h476.28v396.84h-476.28z"/></clipPath><g clip-path="url(#j)"><path stroke-width="1.2212592" stroke-dasharray="3.6637776,1.2212592" stroke-miterlimit="10" fill="none" stroke="#000" d="M20.687 171.794 139.465 116.9"/></g></g></g><g data-name="P"><clipPath id="k"><path transform="matrix(.53564 0 0 -.53564 93.542 612.198)" d="M-171.834 24.849h646.368v1132.21h-646.368z"/></clipPath><g clip-path="url(#k)"><clipPath id="l"><path transform="matrix(.53564 0 0 -.53564 93.542 612.198)" d="M-171.835 760.22h476.28v396.84h-476.28z"/></clipPath><g clip-path="url(#l)"><path stroke-width="1.2212592" stroke-dasharray="3.6637776,1.2212592" stroke-miterlimit="10" fill="none" stroke="#000" d="m56.232 155.088 119.121-73.41"/></g></g></g><g data-name="P"><clipPath id="m"><path transform="matrix(.53564 0 0 -.53564 93.542 612.198)" d="M-171.834 24.849h646.368v1132.21h-646.368z"/></clipPath><g clip-path="url(#m)"><clipPath id="n"><path transform="matrix(.53564 0 0 -.53564 93.542 612.198)" d="M-171.835 760.22h476.28v396.84h-476.28z"/></clipPath><g clip-path="url(#n)"><path d="M4.746 177.098h246.41v1.607H4.747zm245.607-1.607 4.821 2.405-4.82 2.415z"/></g></g></g><g data-name="P"><clipPath id="o"><path transform="matrix(.53564 0 0 -.53564 93.542 612.198)" d="M-171.834 24.849h646.368v1132.21h-646.368z"/></clipPath><g clip-path="url(#o)"><clipPath id="p"><path transform="matrix(.53564 0 0 -.53564 93.542 612.198)" d="M-171.835 760.22h476.28v396.84h-476.28z"/></clipPath><g clip-path="url(#p)"><path d="M6.385 177.799V20.519H4.784l-.006 157.28zM7.992 21.322l-2.405-4.82-2.41 4.82z"/></g></g></g><g data-name="P"><clipPath id="q"><path transform="matrix(.53564 0 0 -.53564 93.542 612.198)" d="M-171.834 24.849h646.368v1132.21h-646.368z"/></clipPath><g clip-path="url(#q)"><clipPath id="r"><path transform="matrix(.53564 0 0 -.53564 93.542 612.198)" d="M-171.835 760.22h476.28v396.84h-476.28z"/></clipPath><g clip-path="url(#r)"><clipPath id="s"><path transform="matrix(.53564 0 0 -.53564 93.542 612.198)" d="M-171.835 760.22h476.28v396.84h-476.28z" fill-rule="evenodd"/></clipPath><g clip-path="url(#s)"><symbol id="t"><path d="M.483.582A.175.175 0 0 0 .48.542a.02.02 0 0 0-.007-.01A.012.012 0 0 0 .464.53H.306V.02A.013.013 0 0 0 .303.013a.02.02 0 0 0-.01-.007.266.266 0 0 0-.102 0 .024.024 0 0 0-.01.007.014.014 0 0 0-.004.009V.53H.02a.012.012 0 0 0-.008.003.023.023 0 0 0-.006.009A.078.078 0 0 0 0 .558a.262.262 0 0 0 0 .049.068.068 0 0 0 .004.016.019.019 0 0 0 .006.009.012.012 0 0 0 .008.003h.445A.012.012 0 0 0 .472.632.017.017 0 0 0 .48.623.18.18 0 0 0 .484.582z"/></symbol><use xlink:href="#t" transform="matrix(9.64152 0 0 -9.64152 32.718 189.377)"/></g></g></g></g><g data-name="P"><clipPath id="u"><path transform="matrix(.53564 0 0 -.53564 93.542 612.198)" d="M-171.834 24.849h646.368v1132.21h-646.368z"/></clipPath><g clip-path="url(#u)"><clipPath id="v"><path transform="matrix(.53564 0 0 -.53564 93.542 612.198)" d="M-171.835 760.22h476.28v396.84h-476.28z"/></clipPath><g clip-path="url(#v)"><clipPath id="w"><path transform="matrix(.53564 0 0 -.53564 93.542 612.198)" d="M-171.835 760.22h476.28v396.84h-476.28z" fill-rule="evenodd"/></clipPath><g clip-path="url(#w)"><symbol id="x"><path d="M.438.028c0-.004 0-.007-.002-.01A.019.019 0 0 0 .427.014.057.057 0 0 0 .411.009a.253.253 0 0 0-.066.004.023.023 0 0 0-.009.006.017.017 0 0 0-.002.009v.048A.278.278 0 0 0 .264.02.167.167 0 0 0 .181 0a.173.173 0 0 0-.085.019.166.166 0 0 0-.056.052.229.229 0 0 0-.031.076.424.424 0 0 0 .002.197.24.24 0 0 0 .037.08.161.161 0 0 0 .06.05A.183.183 0 0 0 .19.49.144.144 0 0 0 .257.476.23.23 0 0 0 .316.433v.235c0 .004 0 .007.002.01a.02.02 0 0 0 .01.006.079.079 0 0 0 .02.004.248.248 0 0 0 .077-.004.02.02 0 0 0 .01-.007.014.014 0 0 0 .003-.009v-.64m-.122.29a.266.266 0 0 1-.05.052.084.084 0 0 1-.051.017.07.07 0 0 1-.042-.012.088.088 0 0 1-.027-.032A.183.183 0 0 1 .13.298a.317.317 0 0 1 0-.104.176.176 0 0 1 .014-.046A.09.09 0 0 1 .17.116.069.069 0 0 1 .212.104c.009 0 .017.001.025.003A.095.095 0 0 1 .26.12.164.164 0 0 1 .287.14c.009.01.019.02.029.033V.32z"/></symbol><use xlink:href="#x" transform="matrix(6.42768 0 0 -6.42768 36.947 191.8)"/></g></g></g></g><g data-name="P"><clipPath id="y"><path transform="matrix(.53564 0 0 -.53564 93.542 612.198)" d="M-171.834 24.849h646.368v1132.21h-646.368z"/></clipPath><g clip-path="url(#y)"><clipPath id="z"><path transform="matrix(.53564 0 0 -.53564 93.542 612.198)" d="M-171.835 760.22h476.28v396.84h-476.28z"/></clipPath><g clip-path="url(#z)"><path stroke-width="2.4425184" stroke-miterlimit="10" fill="none" stroke="#4472c4" d="m5.55 176.325 29.963-12.277"/></g></g></g><g data-name="P"><clipPath id="A"><path transform="matrix(.53564 0 0 -.53564 93.542 612.198)" d="M-171.834 24.849h646.368v1132.21h-646.368z"/></clipPath><g clip-path="url(#A)"><clipPath id="B"><path transform="matrix(.53564 0 0 -.53564 93.542 612.198)" d="M-171.835 760.22h476.28v396.84h-476.28z"/></clipPath><g clip-path="url(#B)"><path d="M16.798 169.674a4.465 4.465 0 0 1 4.467-4.468 4.465 4.465 0 0 1 4.468 4.468 4.465 4.465 0 0 1-4.468 4.467 4.465 4.465 0 0 1-4.467-4.467z" fill="#0070c0" fill-rule="evenodd"/></g></g><clipPath id="C"><path transform="matrix(.53564 0 0 -.53564 93.542 612.198)" d="M-171.834 24.849h646.368v1132.21h-646.368z"/></clipPath><g clip-path="url(#C)"><clipPath id="D"><path transform="matrix(.53564 0 0 -.53564 93.542 612.198)" d="M-171.835 760.22h476.28v396.84h-476.28z"/></clipPath><g clip-path="url(#D)"><path stroke-width=".5142144" stroke-miterlimit="10" fill="none" stroke="#2f528f" d="M16.798 169.674a4.465 4.465 0 0 1 4.467-4.468 4.465 4.465 0 0 1 4.468 4.468 4.465 4.465 0 0 1-4.468 4.467 4.465 4.465 0 0 1-4.467-4.467z"/></g></g></g><g data-name="P"><clipPath id="E"><path transform="matrix(.53564 0 0 -.53564 93.542 612.198)" d="M-171.834 24.849h646.368v1132.21h-646.368z"/></clipPath><g clip-path="url(#E)"><clipPath id="F"><path transform="matrix(.53564 0 0 -.53564 93.542 612.198)" d="M-171.835 760.22h476.28v396.84h-476.28z"/></clipPath><g clip-path="url(#F)"><path stroke-width="1.2212592" stroke-dasharray="3.6637776,1.2212592" stroke-miterlimit="10" fill="none" stroke="#000" d="m86.185 136.694 123.272-119.1"/></g></g></g><g data-name="P"><clipPath id="G"><path transform="matrix(.53564 0 0 -.53564 93.542 612.198)" d="M-171.834 24.849h646.368v1132.21h-646.368z"/></clipPath><g clip-path="url(#G)"><clipPath id="H"><path transform="matrix(.53564 0 0 -.53564 93.542 612.198)" d="M-171.835 760.22h476.28v396.84h-476.28z"/></clipPath><g clip-path="url(#H)"><path stroke-width="2.4425184" stroke-miterlimit="10" fill="none" stroke="#4472c4" d="m36.403 173.19 34.58-34.206"/></g></g></g><g data-name="P"><clipPath id="I"><path transform="matrix(.53564 0 0 -.53564 93.542 612.198)" d="M-171.834 24.849h646.368v1132.21h-646.368z"/></clipPath><g clip-path="url(#I)"><clipPath id="J"><path transform="matrix(.53564 0 0 -.53564 93.542 612.198)" d="M-171.835 760.22h476.28v396.84h-476.28z"/></clipPath><g clip-path="url(#J)"><path d="M49.965 155.276c0-2.47 1.987-4.468 4.435-4.468 2.448 0 4.435 1.998 4.435 4.468 0 2.469-1.987 4.467-4.435 4.467-2.448 0-4.435-1.998-4.435-4.467z" fill="#0070c0" fill-rule="evenodd"/></g></g><clipPath id="K"><path transform="matrix(.53564 0 0 -.53564 93.542 612.198)" d="M-171.834 24.849h646.368v1132.21h-646.368z"/></clipPath><g clip-path="url(#K)"><clipPath id="L"><path transform="matrix(.53564 0 0 -.53564 93.542 612.198)" d="M-171.835 760.22h476.28v396.84h-476.28z"/></clipPath><g clip-path="url(#L)"><path stroke-width=".5142144" stroke-miterlimit="10" fill="none" stroke="#2f528f" d="M49.965 155.276c0-2.47 1.987-4.468 4.435-4.468 2.448 0 4.435 1.998 4.435 4.468 0 2.469-1.987 4.467-4.435 4.467-2.448 0-4.435-1.998-4.435-4.467z"/></g></g></g><g data-name="P"><clipPath id="M"><path transform="matrix(.53564 0 0 -.53564 93.542 612.198)" d="M-171.834 24.849h646.368v1132.21h-646.368z"/></clipPath><g clip-path="url(#M)"><clipPath id="N"><path transform="matrix(.53564 0 0 -.53564 93.542 612.198)" d="M-171.835 760.22h476.28v396.84h-476.28z"/></clipPath><g clip-path="url(#N)"><path stroke-width="2.4425184" stroke-miterlimit="10" fill="none" stroke="#4472c4" d="m70.79 156.972 33.623-42.996"/></g></g></g><g data-name="P"><clipPath id="O"><path transform="matrix(.53564 0 0 -.53564 93.542 612.198)" d="M-171.834 24.849h646.368v1132.21h-646.368z"/></clipPath><g clip-path="url(#O)"><clipPath id="P"><path transform="matrix(.53564 0 0 -.53564 93.542 612.198)" d="M-171.835 760.22h476.28v396.84h-476.28z"/></clipPath><g clip-path="url(#P)"><path d="M84.096 133.871a4.465 4.465 0 0 1 4.467-4.467 4.465 4.465 0 0 1 4.467 4.467 4.465 4.465 0 0 1-4.467 4.468 4.465 4.465 0 0 1-4.467-4.468z" fill="#0070c0" fill-rule="evenodd"/></g></g><clipPath id="Q"><path transform="matrix(.53564 0 0 -.53564 93.542 612.198)" d="M-171.834 24.849h646.368v1132.21h-646.368z"/></clipPath><g clip-path="url(#Q)"><clipPath id="R"><path transform="matrix(.53564 0 0 -.53564 93.542 612.198)" d="M-171.835 760.22h476.28v396.84h-476.28z"/></clipPath><g clip-path="url(#R)"><path stroke-width=".5142144" stroke-miterlimit="10" fill="none" stroke="#2f528f" d="M84.096 133.871a4.465 4.465 0 0 1 4.467-4.467 4.465 4.465 0 0 1 4.467 4.467 4.465 4.465 0 0 1-4.467 4.468 4.465 4.465 0 0 1-4.467-4.468z"/></g></g></g><g data-name="P"><clipPath id="S"><path transform="matrix(.53564 0 0 -.53564 93.542 612.198)" d="M-171.834 24.849h646.368v1132.21h-646.368z"/></clipPath><g clip-path="url(#S)"><clipPath id="T"><path transform="matrix(.53564 0 0 -.53564 93.542 612.198)" d="M-171.835 760.22h476.28v396.84h-476.28z"/></clipPath><g clip-path="url(#T)"><path stroke-width="2.4425184" stroke-miterlimit="10" fill="none" stroke="#4472c4" d="m104.729 104.465 34.5-7.2"/></g></g></g><g data-name="P"><clipPath id="U"><path transform="matrix(.53564 0 0 -.53564 93.542 612.198)" d="M-171.834 24.849h646.368v1132.21h-646.368z"/></clipPath><g clip-path="url(#U)"><clipPath id="V"><path transform="matrix(.53564 0 0 -.53564 93.542 612.198)" d="M-171.835 760.22h476.28v396.84h-476.28z"/></clipPath><g clip-path="url(#V)"><path d="M117.327 101.122c0-2.447 1.998-4.435 4.467-4.435 2.47 0 4.468 1.988 4.468 4.435 0 2.448-1.998 4.436-4.468 4.436-2.469 0-4.467-1.988-4.467-4.436z" fill="#0070c0" fill-rule="evenodd"/></g></g><clipPath id="W"><path transform="matrix(.53564 0 0 -.53564 93.542 612.198)" d="M-171.834 24.849h646.368v1132.21h-646.368z"/></clipPath><g clip-path="url(#W)"><clipPath id="X"><path transform="matrix(.53564 0 0 -.53564 93.542 612.198)" d="M-171.835 760.22h476.28v396.84h-476.28z"/></clipPath><g clip-path="url(#X)"><path stroke-width=".5142144" stroke-miterlimit="10" fill="none" stroke="#2f528f" d="M117.327 101.122c0-2.447 1.998-4.435 4.467-4.435 2.47 0 4.468 1.988 4.468 4.435 0 2.448-1.998 4.436-4.468 4.436-2.469 0-4.467-1.988-4.467-4.436z"/></g></g></g><g data-name="P"><clipPath id="Y"><path transform="matrix(.53564 0 0 -.53564 93.542 612.198)" d="M-171.834 24.849h646.368v1132.21h-646.368z"/></clipPath><g clip-path="url(#Y)"><clipPath id="Z"><path transform="matrix(.53564 0 0 -.53564 93.542 612.198)" d="M-171.835 760.22h476.28v396.84h-476.28z"/></clipPath><g clip-path="url(#Z)"><path d="m204.422 17.209 5.496-5.496 5.495 5.496-5.495 5.496z" fill="red" fill-rule="evenodd"/></g></g><clipPath id="aa"><path transform="matrix(.53564 0 0 -.53564 93.542 612.198)" d="M-171.834 24.849h646.368v1132.21h-646.368z"/></clipPath><g clip-path="url(#aa)"><clipPath id="ab"><path transform="matrix(.53564 0 0 -.53564 93.542 612.198)" d="M-171.835 760.22h476.28v396.84h-476.28z"/></clipPath><g clip-path="url(#ab)"><path stroke-width=".5142144" stroke-miterlimit="10" fill="none" stroke="red" d="m204.422 17.209 5.496-5.496 5.495 5.496-5.495 5.496z"/></g></g></g><g data-name="P"><clipPath id="ac"><path transform="matrix(.53564 0 0 -.53564 93.542 612.198)" d="M-171.834 24.849h646.368v1132.21h-646.368z"/></clipPath><g clip-path="url(#ac)"><clipPath id="ad"><path transform="matrix(.53564 0 0 -.53564 93.542 612.198)" d="M-171.835 760.22h476.28v396.84h-476.28z"/></clipPath><g clip-path="url(#ad)"><path stroke-width="2.1211344" stroke-miterlimit="10" fill="none" stroke="red" d="m139.792 117.449 35.111-34.999"/></g></g></g><g data-name="P"><clipPath id="ae"><path transform="matrix(.53564 0 0 -.53564 93.542 612.198)" d="M-171.834 24.849h646.368v1132.21h-646.368z"/></clipPath><g clip-path="url(#ae)"><clipPath id="af"><path transform="matrix(.53564 0 0 -.53564 93.542 612.198)" d="M-171.835 760.22h476.28v396.84h-476.28z"/></clipPath><g clip-path="url(#af)"><clipPath id="ag"><path transform="matrix(.53564 0 0 -.53564 93.542 612.198)" d="M-171.835 760.22h476.28v396.84h-476.28z" fill-rule="evenodd"/></clipPath><g clip-path="url(#ag)"><symbol id="ah"><path d="M.736.02A.014.014 0 0 0 .733.013C.732.009.73.007.723.005a.248.248 0 0 0-.096 0 .02.02 0 0 0-.01.007.014.014 0 0 0-.002.009v.514H.614L.43.02a.026.026 0 0 0-.007-.01.033.033 0 0 0-.012-.007.348.348 0 0 0-.095.001.04.04 0 0 0-.012.007A.019.019 0 0 0 .3.02L.123.535H.122V.02A.014.014 0 0 0 .119.01L.109.006a.236.236 0 0 0-.097 0 .02.02 0 0 0-.01.007A.016.016 0 0 0 0 .02v.562C0 .6.004.613.013.622c.009.008.02.013.035.013h.084A.166.166 0 0 0 .171.63.07.07 0 0 0 .218.596C.223.587.228.576.232.562L.369.186H.37L.512.56a.214.214 0 0 0 .014.035c.005.01.01.017.017.023.007.006.015.01.024.012.01.002.02.004.032.004h.087A.065.065 0 0 0 .708.63a.036.036 0 0 0 .016-.01.038.038 0 0 0 .009-.016.062.062 0 0 0 .003-.022V.021z"/></symbol><use xlink:href="#ah" transform="matrix(9.65437 0 0 -9.65437 13.645 159.875)"/></g></g></g></g><g data-name="P"><clipPath id="ai"><path transform="matrix(.53564 0 0 -.53564 93.542 612.198)" d="M-171.834 24.849h646.368v1132.21h-646.368z"/></clipPath><g clip-path="url(#ai)"><clipPath id="aj"><path transform="matrix(.53564 0 0 -.53564 93.542 612.198)" d="M-171.835 760.22h476.28v396.84h-476.28z"/></clipPath><g clip-path="url(#aj)"><clipPath id="ak"><path transform="matrix(.53564 0 0 -.53564 93.542 612.198)" d="M-171.835 760.22h476.28v396.84h-476.28z" fill-rule="evenodd"/></clipPath><g clip-path="url(#ak)"><symbol id="al"><path d="M.452.33A.7.7 0 0 0 .439.193.297.297 0 0 0 .4.089.184.184 0 0 0 .328.023.231.231 0 0 0 .22 0a.233.233 0 0 0-.108.022.17.17 0 0 0-.067.064.297.297 0 0 0-.035.102.864.864 0 0 0 .002.273.31.31 0 0 0 .04.104c.019.03.043.051.072.066.03.016.066.023.108.023C.275.654.31.647.339.632A.165.165 0 0 0 .407.568.285.285 0 0 0 .442.466.855.855 0 0 0 .452.33M.322.323a1.125 1.125 0 0 1-.01.14.2.2 0 0 1-.013.042.08.08 0 0 1-.018.028.06.06 0 0 1-.024.015.099.099 0 0 1-.03.005.078.078 0 0 1-.048-.014.093.093 0 0 1-.03-.042.275.275 0 0 1-.015-.07.93.93 0 0 1 0-.208.266.266 0 0 1 .017-.07.078.078 0 0 1 .03-.037.087.087 0 0 1 .044-.01.071.071 0 0 1 .06.024A.098.098 0 0 1 .3.157.374.374 0 0 1 .32.255C.322.275.322.3.322.323z"/></symbol><use xlink:href="#al" transform="matrix(6.42768 0 0 -6.42768 21.58 162.309)"/></g></g></g></g><g data-name="P"><clipPath id="am"><path transform="matrix(.53564 0 0 -.53564 93.542 612.198)" d="M-171.834 24.849h646.368v1132.21h-646.368z"/></clipPath><g clip-path="url(#am)"><clipPath id="an"><path transform="matrix(.53564 0 0 -.53564 93.542 612.198)" d="M-171.835 760.22h476.28v396.84h-476.28z"/></clipPath><g clip-path="url(#an)"><clipPath id="ao"><path transform="matrix(.53564 0 0 -.53564 93.542 612.198)" d="M-171.835 760.22h476.28v396.84h-476.28z" fill-rule="evenodd"/></clipPath><g clip-path="url(#ao)"><use xlink:href="#ah" transform="matrix(9.64152 0 0 -9.64152 44.278 144.998)"/></g></g></g></g><g data-name="P"><clipPath id="ap"><path transform="matrix(.53564 0 0 -.53564 93.542 612.198)" d="M-171.834 24.849h646.368v1132.21h-646.368z"/></clipPath><g clip-path="url(#ap)"><clipPath id="aq"><path transform="matrix(.53564 0 0 -.53564 93.542 612.198)" d="M-171.835 760.22h476.28v396.84h-476.28z"/></clipPath><g clip-path="url(#aq)"><clipPath id="ar"><path transform="matrix(.53564 0 0 -.53564 93.542 612.198)" d="M-171.835 760.22h476.28v396.84h-476.28z" fill-rule="evenodd"/></clipPath><g clip-path="url(#ar)"><symbol id="as"><path d="M.389.049c0-.01 0-.017-.002-.024A.053.053 0 0 0 .383.01.019.019 0 0 0 .377.002.013.013 0 0 0 .369 0H.021C.018 0 .015 0 .013.002A.023.023 0 0 0 .007.01a.067.067 0 0 0-.004.015.231.231 0 0 0 0 .047.068.068 0 0 0 .003.016.022.022 0 0 0 .007.008A.012.012 0 0 0 .02.1h.117V.51L.037.454A.083.083 0 0 0 .018.447C.014.447.01.447.007.45A.028.028 0 0 0 0 .465a.217.217 0 0 0 .002.06.024.024 0 0 0 .005.01.061.061 0 0 0 .01.007L.153.63A.017.017 0 0 0 .16.633a.517.517 0 0 0 .097 0C.26.632.263.63.264.628A.013.013 0 0 0 .266.621V.1H.37A.012.012 0 0 0 .377.096.017.017 0 0 0 .383.088.046.046 0 0 0 .387.072.155.155 0 0 0 .39.05z"/></symbol><use xlink:href="#as" transform="matrix(6.42768 0 0 -6.42768 52.5 147.348)"/></g></g></g></g><g data-name="P"><clipPath id="at"><path transform="matrix(.53564 0 0 -.53564 93.542 612.198)" d="M-171.834 24.849h646.368v1132.21h-646.368z"/></clipPath><g clip-path="url(#at)"><clipPath id="au"><path transform="matrix(.53564 0 0 -.53564 93.542 612.198)" d="M-171.835 760.22h476.28v396.84h-476.28z"/></clipPath><g clip-path="url(#au)"><clipPath id="av"><path transform="matrix(.53564 0 0 -.53564 93.542 612.198)" d="M-171.835 760.22h476.28v396.84h-476.28z" fill-rule="evenodd"/></clipPath><g clip-path="url(#av)"><use xlink:href="#ah" transform="matrix(9.64152 0 0 -9.64152 78.964 124.751)"/></g></g></g></g><g data-name="P"><clipPath id="aw"><path transform="matrix(.53564 0 0 -.53564 93.542 612.198)" d="M-171.834 24.849h646.368v1132.21h-646.368z"/></clipPath><g clip-path="url(#aw)"><clipPath id="ax"><path transform="matrix(.53564 0 0 -.53564 93.542 612.198)" d="M-171.835 760.22h476.28v396.84h-476.28z"/></clipPath><g clip-path="url(#ax)"><clipPath id="ay"><path transform="matrix(.53564 0 0 -.53564 93.542 612.198)" d="M-171.835 760.22h476.28v396.84h-476.28z" fill-rule="evenodd"/></clipPath><g clip-path="url(#ay)"><symbol id="az"><path d="M.424.052a.175.175 0 0 0-.005-.04.02.02 0 0 0-.006-.01A.016.016 0 0 0 .403 0H.042C.033 0 .027 0 .022.002a.025.025 0 0 0-.013.007.04.04 0 0 0-.007.017.216.216 0 0 0 0 .055.073.073 0 0 0 .005.02.093.093 0 0 0 .01.018l.016.02.11.116A.593.593 0 0 1 .225.37a.185.185 0 0 1 .02.08.085.085 0 0 1-.02.055A.064.064 0 0 1 .2.521a.092.092 0 0 1-.035.006A.165.165 0 0 1 .113.52.243.243 0 0 1 .046.487C.04.482.033.479.03.479A.012.012 0 0 0 .02.482a.023.023 0 0 0-.005.01.348.348 0 0 0-.001.078.034.034 0 0 0 .004.01.05.05 0 0 0 .008.01.255.255 0 0 0 .063.032.363.363 0 0 0 .113.021A.263.263 0 0 0 .289.63.166.166 0 0 0 .35.596.134.134 0 0 0 .386.543.173.173 0 0 0 .398.478a.234.234 0 0 0-.03-.125.527.527 0 0 0-.052-.077A1.253 1.253 0 0 0 .226.18L.154.104h.249A.014.014 0 0 0 .41.101a.022.022 0 0 0 .007-.01.054.054 0 0 0 .004-.015.16.16 0 0 0 .002-.024z"/></symbol><use xlink:href="#az" transform="matrix(6.42768 0 0 -6.42768 86.997 127.101)"/></g></g></g></g><g data-name="P"><clipPath id="aA"><path transform="matrix(.53564 0 0 -.53564 93.542 612.198)" d="M-171.834 24.849h646.368v1132.21h-646.368z"/></clipPath><g clip-path="url(#aA)"><clipPath id="aB"><path transform="matrix(.53564 0 0 -.53564 93.542 612.198)" d="M-171.835 760.22h476.28v396.84h-476.28z"/></clipPath><g clip-path="url(#aB)"><clipPath id="aC"><path transform="matrix(.53564 0 0 -.53564 93.542 612.198)" d="M-171.835 760.22h476.28v396.84h-476.28z" fill-rule="evenodd"/></clipPath><g clip-path="url(#aC)"><use xlink:href="#ah" transform="matrix(9.64152 0 0 -9.64152 114.916 93.025)"/></g></g></g></g><g data-name="P"><clipPath id="aD"><path transform="matrix(.53564 0 0 -.53564 93.542 612.198)" d="M-171.834 24.849h646.368v1132.21h-646.368z"/></clipPath><g clip-path="url(#aD)"><clipPath id="aE"><path transform="matrix(.53564 0 0 -.53564 93.542 612.198)" d="M-171.835 760.22h476.28v396.84h-476.28z"/></clipPath><g clip-path="url(#aE)"><clipPath id="aF"><path transform="matrix(.53564 0 0 -.53564 93.542 612.198)" d="M-171.835 760.22h476.28v396.84h-476.28z" fill-rule="evenodd"/></clipPath><g clip-path="url(#aF)"><symbol id="aG"><path d="M.422.196A.174.174 0 0 0 .354.05.231.231 0 0 0 .277.014.36.36 0 0 0 .118.005.352.352 0 0 0 .032.03a.105.105 0 0 0-.018.012.03.03 0 0 0-.007.008.146.146 0 0 0-.004.012.154.154 0 0 0-.003.04.09.09 0 0 0 .004.033C.007.14.01.144.016.144a.43.43 0 0 1 .09-.035.23.23 0 0 1 .104 0c.014.004.026.01.035.017a.07.07 0 0 1 .022.028.09.09 0 0 1 .007.037.087.087 0 0 1-.009.04.077.077 0 0 1-.025.03.12.12 0 0 1-.043.019.233.233 0 0 1-.06.007H.083L.072.288a.016.016 0 0 0-.008.007A.046.046 0 0 0 .06.31a.259.259 0 0 0 0 .048.05.05 0 0 0 .004.014.017.017 0 0 0 .007.007.025.025 0 0 0 .01.002h.055c.02 0 .036.002.05.006.015.005.027.011.037.02a.08.08 0 0 1 .023.029.094.094 0 0 1 .003.068.065.065 0 0 1-.017.025.067.067 0 0 1-.026.017.145.145 0 0 1-.087-.001A.276.276 0 0 1 .048.51C.04.506.034.503.03.503c-.003 0-.005 0-.007.002a.014.014 0 0 0-.005.007.056.056 0 0 0-.003.014.237.237 0 0 0 .002.057.05.05 0 0 0 .003.01A.04.04 0 0 0 .027.6l.02.014a.322.322 0 0 0 .156.04C.235.654.262.65.286.643a.162.162 0 0 0 .06-.032.124.124 0 0 0 .036-.05.19.19 0 0 0 .005-.12A.129.129 0 0 0 .33.364.158.158 0 0 0 .28.345V.343A.179.179 0 0 0 .34.326.146.146 0 0 0 .413.249a.14.14 0 0 0 .01-.053z"/></symbol><use xlink:href="#aG" transform="matrix(6.42768 0 0 -6.42768 122.94 95.447)"/></g></g></g></g><g data-name="P"><clipPath id="aH"><path transform="matrix(.53564 0 0 -.53564 93.542 612.198)" d="M-171.834 24.849h646.368v1132.21h-646.368z"/></clipPath><g clip-path="url(#aH)"><clipPath id="aI"><path transform="matrix(.53564 0 0 -.53564 93.542 612.198)" d="M-171.835 760.22h476.28v396.84h-476.28z"/></clipPath><g clip-path="url(#aI)"><clipPath id="aJ"><path transform="matrix(.53564 0 0 -.53564 93.542 612.198)" d="M-171.835 760.22h476.28v396.84h-476.28z" fill-rule="evenodd"/></clipPath><g clip-path="url(#aJ)"><symbol id="aK"><path d="M.575.05A.17.17 0 0 0 .582.024C.583.016.582.01.578.007.575.004.568.002.56.001a.373.373 0 0 0-.077 0 .1.1 0 0 0-.02.002.02.02 0 0 0-.01.007.033.033 0 0 0-.006.01L.404.147H.167L.127.023A.039.039 0 0 0 .12.012a.021.021 0 0 0-.01-.008.46.46 0 0 0-.089-.003C.014.002.008.005.004.008.001.012 0 .018.001.024a.16.16 0 0 0 .007.028l.195.56c.002.006.004.01.007.013a.022.022 0 0 0 .012.008.65.65 0 0 0 .136 0C.365.632.37.63.372.625A.044.044 0 0 0 .38.611L.575.05m-.29.463L.194.246h.179l-.09.268z"/></symbol><use xlink:href="#aK" transform="matrix(9.64152 0 0 -9.64152 142.031 124.906)"/></g></g></g></g><g data-name="P"><clipPath id="aL"><path transform="matrix(.53564 0 0 -.53564 93.542 612.198)" d="M-171.834 24.849h646.368v1132.21h-646.368z"/></clipPath><g clip-path="url(#aL)"><clipPath id="aM"><path transform="matrix(.53564 0 0 -.53564 93.542 612.198)" d="M-171.835 760.22h476.28v396.84h-476.28z"/></clipPath><g clip-path="url(#aM)"><clipPath id="aN"><path transform="matrix(.53564 0 0 -.53564 93.542 612.198)" d="M-171.835 760.22h476.28v396.84h-476.28z" fill-rule="evenodd"/></clipPath><g clip-path="url(#aN)"><use xlink:href="#al" transform="matrix(6.42768 0 0 -6.42768 147.946 127.329)"/></g></g></g></g><g data-name="P"><clipPath id="aO"><path transform="matrix(.53564 0 0 -.53564 93.542 612.198)" d="M-171.834 24.849h646.368v1132.21h-646.368z"/></clipPath><g clip-path="url(#aO)"><clipPath id="aP"><path transform="matrix(.53564 0 0 -.53564 93.542 612.198)" d="M-171.835 760.22h476.28v396.84h-476.28z"/></clipPath><g clip-path="url(#aP)"><clipPath id="aQ"><path transform="matrix(.53564 0 0 -.53564 93.542 612.198)" d="M-171.835 760.22h476.28v396.84h-476.28z" fill-rule="evenodd"/></clipPath><g clip-path="url(#aQ)"><use xlink:href="#aK" transform="matrix(9.65437 0 0 -9.65437 182.333 84.9)"/></g></g></g></g><g data-name="P"><clipPath id="aR"><path transform="matrix(.53564 0 0 -.53564 93.542 612.198)" d="M-171.834 24.849h646.368v1132.21h-646.368z"/></clipPath><g clip-path="url(#aR)"><clipPath id="aS"><path transform="matrix(.53564 0 0 -.53564 93.542 612.198)" d="M-171.835 760.22h476.28v396.84h-476.28z"/></clipPath><g clip-path="url(#aS)"><clipPath id="aT"><path transform="matrix(.53564 0 0 -.53564 93.542 612.198)" d="M-171.835 760.22h476.28v396.84h-476.28z" fill-rule="evenodd"/></clipPath><g clip-path="url(#aT)"><use xlink:href="#as" transform="matrix(6.44054 0 0 -6.44054 188.534 87.25)"/></g></g></g></g><g data-name="P"><clipPath id="aU"><path transform="matrix(.53564 0 0 -.53564 93.542 612.198)" d="M-171.834 24.849h646.368v1132.21h-646.368z"/></clipPath><g clip-path="url(#aU)"><clipPath id="aV"><path transform="matrix(.53564 0 0 -.53564 93.542 612.198)" d="M-171.835 760.22h476.28v396.84h-476.28z"/></clipPath><g clip-path="url(#aV)"><clipPath id="aW"><path transform="matrix(.53564 0 0 -.53564 93.542 612.198)" d="M-171.835 760.22h476.28v396.84h-476.28z" fill-rule="evenodd"/></clipPath><g clip-path="url(#aW)"><use xlink:href="#aK" transform="matrix(9.65437 0 0 -9.65437 216.694 32.364)"/></g></g></g></g><g data-name="P"><clipPath id="aX"><path transform="matrix(.53564 0 0 -.53564 93.542 612.198)" d="M-171.834 24.849h646.368v1132.21h-646.368z"/></clipPath><g clip-path="url(#aX)"><clipPath id="aY"><path transform="matrix(.53564 0 0 -.53564 93.542 612.198)" d="M-171.835 760.22h476.28v396.84h-476.28z"/></clipPath><g clip-path="url(#aY)"><clipPath id="aZ"><path transform="matrix(.53564 0 0 -.53564 93.542 612.198)" d="M-171.835 760.22h476.28v396.84h-476.28z" fill-rule="evenodd"/></clipPath><g clip-path="url(#aZ)"><use xlink:href="#az" transform="matrix(6.42768 0 0 -6.42768 222.707 34.714)"/></g></g></g></g><g data-name="P"><clipPath id="ba"><path transform="matrix(.53564 0 0 -.53564 93.542 612.198)" d="M-171.834 24.849h646.368v1132.21h-646.368z"/></clipPath><g clip-path="url(#ba)"><clipPath id="bb"><path transform="matrix(.53564 0 0 -.53564 93.542 612.198)" d="M-171.835 760.22h476.28v396.84h-476.28z"/></clipPath><g clip-path="url(#bb)"><clipPath id="bc"><path transform="matrix(.53564 0 0 -.53564 93.542 612.198)" d="M-171.835 760.22h476.28v396.84h-476.28z" fill-rule="evenodd"/></clipPath><g clip-path="url(#bc)"><use xlink:href="#az" transform="matrix(9.64152 0 0 -9.64152 66.18 189.143)"/><use xlink:href="#t" transform="matrix(9.64152 0 0 -9.64152 70.708 189.171)"/></g></g></g></g><g data-name="P"><clipPath id="bd"><path transform="matrix(.53564 0 0 -.53564 93.542 612.198)" d="M-171.834 24.849h646.368v1132.21h-646.368z"/></clipPath><g clip-path="url(#bd)"><clipPath id="be"><path transform="matrix(.53564 0 0 -.53564 93.542 612.198)" d="M-171.835 760.22h476.28v396.84h-476.28z"/></clipPath><g clip-path="url(#be)"><clipPath id="bf"><path transform="matrix(.53564 0 0 -.53564 93.542 612.198)" d="M-171.835 760.22h476.28v396.84h-476.28z" fill-rule="evenodd"/></clipPath><g clip-path="url(#bf)"><use xlink:href="#x" transform="matrix(6.42768 0 0 -6.42768 74.947 191.594)"/></g></g></g></g><g data-name="P"><clipPath id="bg"><path transform="matrix(.53564 0 0 -.53564 93.542 612.198)" d="M-171.834 24.849h646.368v1132.21h-646.368z"/></clipPath><g clip-path="url(#bg)"><clipPath id="bh"><path transform="matrix(.53564 0 0 -.53564 93.542 612.198)" d="M-171.835 760.22h476.28v396.84h-476.28z"/></clipPath><g clip-path="url(#bh)"><clipPath id="bi"><path transform="matrix(.53564 0 0 -.53564 93.542 612.198)" d="M-171.835 760.22h476.28v396.84h-476.28z" fill-rule="evenodd"/></clipPath><g clip-path="url(#bi)"><use xlink:href="#aG" transform="matrix(9.64152 0 0 -9.64152 98.52 189.251)"/><use xlink:href="#t" transform="matrix(9.64152 0 0 -9.64152 103.06 189.171)"/></g></g></g></g><g data-name="P"><clipPath id="bj"><path transform="matrix(.53564 0 0 -.53564 93.542 612.198)" d="M-171.834 24.849h646.368v1132.21h-646.368z"/></clipPath><g clip-path="url(#bj)"><clipPath id="bk"><path transform="matrix(.53564 0 0 -.53564 93.542 612.198)" d="M-171.835 760.22h476.28v396.84h-476.28z"/></clipPath><g clip-path="url(#bk)"><clipPath id="bl"><path transform="matrix(.53564 0 0 -.53564 93.542 612.198)" d="M-171.835 760.22h476.28v396.84h-476.28z" fill-rule="evenodd"/></clipPath><g clip-path="url(#bl)"><use xlink:href="#x" transform="matrix(6.42768 0 0 -6.42768 107.289 191.594)"/></g></g></g></g><g data-name="P"><clipPath id="bm"><path transform="matrix(.53564 0 0 -.53564 93.542 612.198)" d="M-171.834 24.849h646.368v1132.21h-646.368z"/></clipPath><g clip-path="url(#bm)"><clipPath id="bn"><path transform="matrix(.53564 0 0 -.53564 93.542 612.198)" d="M-171.835 760.22h476.28v396.84h-476.28z"/></clipPath><g clip-path="url(#bn)"><clipPath id="bo"><path transform="matrix(.53564 0 0 -.53564 93.542 612.198)" d="M-171.835 760.22h476.28v396.84h-476.28z" fill-rule="evenodd"/></clipPath><g clip-path="url(#bo)"><symbol id="bp"><path d="M.469.185A.105.105 0 0 0 .463.146C.46.138.456.134.45.134H.394V.02A.014.014 0 0 0 .39.01.023.023 0 0 0 .38.006a.253.253 0 0 0-.098 0 .023.023 0 0 0-.01.006A.016.016 0 0 0 .27.02v.114H.028L.016.135a.02.02 0 0 0-.01.008.06.06 0 0 0-.005.018.258.258 0 0 0 0 .057.139.139 0 0 0 .016.056l.195.347a.019.019 0 0 0 .009.007.17.17 0 0 0 .043.009.66.66 0 0 0 .109-.005.04.04 0 0 0 .016-.006.012.012 0 0 0 .005-.01v-.38H.45C.455.236.46.232.463.224a.096.096 0 0 0 .006-.04M.27.528H.269L.103.237H.27v.29z"/></symbol><use xlink:href="#bp" transform="matrix(9.64152 0 0 -9.64152 133.603 189.814)"/><use xlink:href="#t" transform="matrix(9.64152 0 0 -9.64152 138.375 189.814)"/></g></g></g></g><g data-name="P"><clipPath id="bq"><path transform="matrix(.53564 0 0 -.53564 93.542 612.198)" d="M-171.834 24.849h646.368v1132.21h-646.368z"/></clipPath><g clip-path="url(#bq)"><clipPath id="br"><path transform="matrix(.53564 0 0 -.53564 93.542 612.198)" d="M-171.835 760.22h476.28v396.84h-476.28z"/></clipPath><g clip-path="url(#br)"><clipPath id="bs"><path transform="matrix(.53564 0 0 -.53564 93.542 612.198)" d="M-171.835 760.22h476.28v396.84h-476.28z" fill-rule="evenodd"/></clipPath><g clip-path="url(#bs)"><use xlink:href="#x" transform="matrix(6.42768 0 0 -6.42768 142.604 192.236)"/></g></g></g></g><g data-name="P"><clipPath id="bt"><path transform="matrix(.53564 0 0 -.53564 93.542 612.198)" d="M-171.834 24.849h646.368v1132.21h-646.368z"/></clipPath><g clip-path="url(#bt)"><clipPath id="bu"><path transform="matrix(.53564 0 0 -.53564 93.542 612.198)" d="M-171.835 760.22h476.28v396.84h-476.28z"/></clipPath><g clip-path="url(#bu)"><clipPath id="bv"><path transform="matrix(.53564 0 0 -.53564 93.542 612.198)" d="M-171.835 760.22h476.28v396.84h-476.28z" fill-rule="evenodd"/></clipPath><g clip-path="url(#bv)"><symbol id="bw"><path d="M.414.216A.223.223 0 0 0 .396.125a.186.186 0 0 0-.05-.068.225.225 0 0 0-.078-.042A.328.328 0 0 0 .11.004a.4.4 0 0 0-.082.02.097.097 0 0 0-.018.01.028.028 0 0 0-.006.008.063.063 0 0 0-.003.01.426.426 0 0 0 .002.076.021.021 0 0 0 .005.008.01.01 0 0 0 .007.003.369.369 0 0 1 .081-.03.255.255 0 0 1 .108 0c.015.003.028.01.04.018.01.009.018.02.024.033a.114.114 0 0 1 .009.047.11.11 0 0 1-.007.041.075.075 0 0 1-.023.031.104.104 0 0 1-.041.02.42.42 0 0 1-.112.003A.344.344 0 0 0 .05.299C.041.299.035.3.031.306S.025.319.025.332v.274c0 .013.002.023.007.028.005.006.014.01.025.01h.299A.014.014 0 0 0 .364.64.02.02 0 0 0 .371.63a.18.18 0 0 0 0-.084C.367.538.362.533.356.533H.131V.398A.4.4 0 0 0 .201.4.308.308 0 0 0 .29.389.175.175 0 0 0 .359.354.146.146 0 0 0 .4.296a.207.207 0 0 0 .014-.08z"/></symbol><use xlink:href="#bw" transform="matrix(9.64152 0 0 -9.64152 169.715 189.38)"/><use xlink:href="#t" transform="matrix(9.64152 0 0 -9.64152 174.204 189.3)"/></g></g></g></g><g data-name="P"><clipPath id="bx"><path transform="matrix(.53564 0 0 -.53564 93.542 612.198)" d="M-171.834 24.849h646.368v1132.21h-646.368z"/></clipPath><g clip-path="url(#bx)"><clipPath id="by"><path transform="matrix(.53564 0 0 -.53564 93.542 612.198)" d="M-171.835 760.22h476.28v396.84h-476.28z"/></clipPath><g clip-path="url(#by)"><clipPath id="bz"><path transform="matrix(.53564 0 0 -.53564 93.542 612.198)" d="M-171.835 760.22h476.28v396.84h-476.28z" fill-rule="evenodd"/></clipPath><g clip-path="url(#bz)"><use xlink:href="#x" transform="matrix(6.42768 0 0 -6.42768 178.433 191.722)"/></g></g></g></g><g data-name="P"><clipPath id="bA"><path transform="matrix(.53564 0 0 -.53564 93.542 612.198)" d="M-171.834 24.849h646.368v1132.21h-646.368z"/></clipPath><g clip-path="url(#bA)"><clipPath id="bB"><path transform="matrix(.53564 0 0 -.53564 93.542 612.198)" d="M-171.835 760.22h476.28v396.84h-476.28z"/></clipPath><g clip-path="url(#bB)"><clipPath id="bC"><path transform="matrix(.53564 0 0 -.53564 93.542 612.198)" d="M-171.835 760.22h476.28v396.84h-476.28z" fill-rule="evenodd"/></clipPath><g clip-path="url(#bC)"><symbol id="bD"><path d="M.436.222A.262.262 0 0 0 .42.133a.199.199 0 0 0-.043-.07.203.203 0 0 0-.07-.046A.256.256 0 0 0 .212 0a.257.257 0 0 0-.076.01.156.156 0 0 0-.096.074.267.267 0 0 0-.024.061.44.44 0 0 0-.013.073.977.977 0 0 0 0 .162.503.503 0 0 0 .015.08.35.35 0 0 0 .03.074.221.221 0 0 0 .12.104.297.297 0 0 0 .14.013A.334.334 0 0 0 .37.638.047.047 0 0 0 .385.63.02.02 0 0 0 .39.624a.035.035 0 0 0 .003-.01.238.238 0 0 0-.001-.069.016.016 0 0 0-.006-.007A.014.014 0 0 0 .38.536a.053.053 0 0 0-.015.003.371.371 0 0 1-.054.014.252.252 0 0 1-.041.003A.14.14 0 0 1 .202.54a.122.122 0 0 1-.044-.04.17.17 0 0 1-.025-.058.325.325 0 0 1-.008-.07.273.273 0 0 0 .054.025.274.274 0 0 0 .158-.002.14.14 0 0 0 .088-.097.271.271 0 0 0 .01-.077M.31.21a.19.19 0 0 1-.005.043.081.081 0 0 1-.014.032.058.058 0 0 1-.026.02.1.1 0 0 1-.039.007.147.147 0 0 1-.053-.01A.204.204 0 0 1 .127.28C.127.244.129.215.133.19A.178.178 0 0 1 .15.136a.071.071 0 0 1 .029-.03A.094.094 0 0 1 .219.1C.234.099.247.1.26.107c.01.005.02.013.028.023a.11.11 0 0 1 .017.036A.161.161 0 0 1 .31.21z"/></symbol><use xlink:href="#bD" transform="matrix(9.64152 0 0 -9.64152 203.521 189.38)"/><use xlink:href="#t" transform="matrix(9.64152 0 0 -9.64152 208.067 189.3)"/></g></g></g></g><g data-name="P"><clipPath id="bE"><path transform="matrix(.53564 0 0 -.53564 93.542 612.198)" d="M-171.834 24.849h646.368v1132.21h-646.368z"/></clipPath><g clip-path="url(#bE)"><clipPath id="bF"><path transform="matrix(.53564 0 0 -.53564 93.542 612.198)" d="M-171.835 760.22h476.28v396.84h-476.28z"/></clipPath><g clip-path="url(#bF)"><clipPath id="bG"><path transform="matrix(.53564 0 0 -.53564 93.542 612.198)" d="M-171.835 760.22h476.28v396.84h-476.28z" fill-rule="evenodd"/></clipPath><g clip-path="url(#bG)"><use xlink:href="#x" transform="matrix(6.42768 0 0 -6.42768 212.296 191.722)"/></g></g></g></g><g data-name="P"><clipPath id="bH"><path transform="matrix(.53564 0 0 -.53564 93.542 612.198)" d="M-171.834 24.849h646.368v1132.21h-646.368z"/></clipPath><g clip-path="url(#bH)"><clipPath id="bI"><path transform="matrix(.53564 0 0 -.53564 93.542 612.198)" d="M-171.835 760.22h476.28v396.84h-476.28z"/></clipPath><g clip-path="url(#bI)"><clipPath id="bJ"><path transform="matrix(.53564 0 0 -.53564 93.542 612.198)" d="M-171.835 760.22h476.28v396.84h-476.28z" fill-rule="evenodd"/></clipPath><g clip-path="url(#bJ)"><use xlink:href="#al" transform="matrix(9.64152 0 0 -9.64152 3.286 189.38)"/></g></g></g></g><g data-name="P"><clipPath id="bK"><path transform="matrix(.53564 0 0 -.53564 93.542 612.198)" d="M-171.834 24.849h646.368v1132.21h-646.368z"/></clipPath><g clip-path="url(#bK)"><clipPath id="bL"><path transform="matrix(.53564 0 0 -.53564 93.542 612.198)" d="M-171.835 760.22h476.28v396.84h-476.28z"/></clipPath><g clip-path="url(#bL)"><path stroke-width="2.1211344" stroke-miterlimit="10" fill="none" stroke="red" d="m174.501 83.57 35.213-66.618"/></g></g></g><g data-name="P"><clipPath id="bM"><path transform="matrix(.53564 0 0 -.53564 93.542 612.198)" d="M-171.834 24.849h646.368v1132.21h-646.368z"/></clipPath><g clip-path="url(#bM)"><clipPath id="bN"><path transform="matrix(.53564 0 0 -.53564 93.542 612.198)" d="M-171.835 760.22h476.28v396.84h-476.28z"/></clipPath><g clip-path="url(#bN)"><path stroke-width=".38566079999999997" stroke-dasharray="1.5426431999999999,1.1569824000000002,.38566079999999997,1.1569824000000002" stroke-miterlimit="10" fill="none" stroke="#000" d="M175.562 16.47v160.783"/></g></g></g><g data-name="P"><clipPath id="bO"><path transform="matrix(.53564 0 0 -.53564 93.542 612.198)" d="M-171.834 24.849h646.368v1132.21h-646.368z"/></clipPath><g clip-path="url(#bO)"><clipPath id="bP"><path transform="matrix(.53564 0 0 -.53564 93.542 612.198)" d="M-171.835 760.22h476.28v396.84h-476.28z"/></clipPath><g clip-path="url(#bP)"><path stroke-width=".38566079999999997" stroke-dasharray="1.5426431999999999,1.1569824000000002,.38566079999999997,1.1569824000000002" stroke-miterlimit="10" fill="none" stroke="#000" d="M140.017 16.47v160.783"/></g></g></g><g data-name="P"><clipPath id="bQ"><path transform="matrix(.53564 0 0 -.53564 93.542 612.198)" d="M-171.834 24.849h646.368v1132.21h-646.368z"/></clipPath><g clip-path="url(#bQ)"><clipPath id="bR"><path transform="matrix(.53564 0 0 -.53564 93.542 612.198)" d="M-171.835 760.22h476.28v396.84h-476.28z"/></clipPath><g clip-path="url(#bR)"><path stroke-width=".38566079999999997" stroke-dasharray="1.5426431999999999,1.1569824000000002,.38566079999999997,1.1569824000000002" stroke-miterlimit="10" fill="none" stroke="#000" d="M104.536 16.47v160.783"/></g></g></g><g data-name="P"><clipPath id="bS"><path transform="matrix(.53564 0 0 -.53564 93.542 612.198)" d="M-171.834 24.849h646.368v1132.21h-646.368z"/></clipPath><g clip-path="url(#bS)"><clipPath id="bT"><path transform="matrix(.53564 0 0 -.53564 93.542 612.198)" d="M-171.835 760.22h476.28v396.84h-476.28z"/></clipPath><g clip-path="url(#bT)"><path stroke-width=".38566079999999997" stroke-dasharray="1.5426431999999999,1.1569824000000002,.38566079999999997,1.1569824000000002" stroke-miterlimit="10" fill="none" stroke="#000" d="M70.662 16.47v160.783"/></g></g></g><g data-name="P"><clipPath id="bU"><path transform="matrix(.53564 0 0 -.53564 93.542 612.198)" d="M-171.834 24.849h646.368v1132.21h-646.368z"/></clipPath><g clip-path="url(#bU)"><clipPath id="bV"><path transform="matrix(.53564 0 0 -.53564 93.542 612.198)" d="M-171.835 760.22h476.28v396.84h-476.28z"/></clipPath><g clip-path="url(#bV)"><path stroke-width=".38566079999999997" stroke-dasharray="1.5426431999999999,1.1569824000000002,.38566079999999997,1.1569824000000002" stroke-miterlimit="10" fill="none" stroke="#000" d="M35.76 16.47v160.783"/></g></g></g><g data-name="P"><clipPath id="bW"><path transform="matrix(.53564 0 0 -.53564 93.542 612.198)" d="M-171.834 24.849h646.368v1132.21h-646.368z"/></clipPath><g clip-path="url(#bW)"><clipPath id="bX"><path transform="matrix(.53564 0 0 -.53564 93.542 612.198)" d="M-171.835 760.22h476.28v396.84h-476.28z"/></clipPath><g clip-path="url(#bX)"><clipPath id="bY"><path transform="matrix(.53564 0 0 -.53564 93.542 612.198)" d="M-171.835 760.22h476.28v396.84h-476.28z" fill-rule="evenodd"/></clipPath><g clip-path="url(#bY)"><symbol id="bZ"><path d="M.103.068H0L.008.17V.71C.008.735.005.77 0 .816.05.811.087.808.11.808H.22c.019 0 .057.003.114.008A1.775 1.775 0 0 1 .326.71V.192A.99.99 0 0 1 .333.09h-.1a1.296 1.296 0 0 0 .004.066H.096C.097.126.099.097.103.068M.096.733v-.2h.14v.2h-.14m0-.275V.23h.14v.228h-.14m.622.348v-.15H.76c.021 0 .052.004.093.008v-.09C.816.578.784.58.761.581H.718V.124c0-.045-.012-.075-.04-.09A.378.378 0 0 0 .519 0a.379.379 0 0 1-.052.115C.526.106.565.102.585.102.615.1.629.115.627.148v.433H.449A1.14 1.14 0 0 1 .352.574v.091C.39.66.422.657.449.656h.178v.15c0 .013-.003.046-.008.1L.717.888C.735.886.745.882.747.875.748.87.742.861.727.851.72.847.717.832.717.806M.463.52a11.552 11.552 0 0 1 .11-.19L.486.277a1.733 1.733 0 0 1-.108.2l.084.042z"/></symbol><symbol id="ca"><path d="M.56.719h.071v.067C.631.829.628.874.622.92L.737.906C.75.904.756.899.757.89.755.882.75.873.737.864.728.857.723.84.723.814V.72h.075c.038 0 .079.003.122.009A.778.778 0 0 1 .91.606v-.22C.911.32.914.273.92.242H.812c.005.02.008.04.008.06H.723v-.21C.723.066.725.035.731 0H.623a.725.725 0 0 1 .008.093v.209H.537a.46.46 0 0 1 .008-.08H.438a.946.946 0 0 1 .01.144v.24a.85.85 0 0 1-.01.122.975.975 0 0 1 .122-.01M.112.403h.074v.114h-.01a.608.608 0 0 1-.099-.01v.059A.284.284 0 0 1 0 .624c.093.077.16.175.201.293L.302.874C.314.869.32.862.318.854.318.847.31.841.298.837.285.834.275.825.265.81A3.587 3.587 0 0 0 .231.755h.084c.033 0 .07.003.11.01V.672a.766.766 0 0 1-.11.008H.18a4.099 4.099 0 0 0-.07-.085A.83.83 0 0 1 .175.59h.119C.322.59.355.594.392.6V.505a.653.653 0 0 1-.098.01H.277V.402H.34a.423.423 0 0 1 .079.01V.318a.592.592 0 0 1-.079.009H.277V.164c.04.027.078.054.112.08a.632.632 0 0 1 .024-.09A1.704 1.704 0 0 1 .21.013L.149.1c.026.016.039.032.037.047v.18h-.07a.619.619 0 0 1-.08-.01v.095a1.309 1.309 0 0 1 .076-.01M.723.377H.82v.267H.723V.377M.537.644V.377h.094v.267H.537z"/></symbol><use xlink:href="#bZ" transform="matrix(9.65437 0 0 -9.65437 4.528 14.218)"/><use xlink:href="#ca" transform="matrix(9.65437 0 0 -9.65437 13.51 14.369)"/></g></g></g></g><g data-name="P"><clipPath id="cb"><path transform="matrix(.53564 0 0 -.53564 93.542 612.198)" d="M-171.834 24.849h646.368v1132.21h-646.368z"/></clipPath><g clip-path="url(#cb)"><clipPath id="cc"><path transform="matrix(.53564 0 0 -.53564 93.542 612.198)" d="M-171.835 760.22h476.28v396.84h-476.28z"/></clipPath><g clip-path="url(#cc)"><clipPath id="cd"><path transform="matrix(.53564 0 0 -.53564 93.542 612.198)" d="M-171.835 760.22h476.28v396.84h-476.28z" fill-rule="evenodd"/></clipPath><g clip-path="url(#cd)"><symbol id="ce"><path d="M.458.19a.19.19 0 0 0-.01-.062.16.16 0 0 0-.065-.084.223.223 0 0 0-.05-.025A.321.321 0 0 0 .206 0H.038c-.01 0-.02.003-.027.01C.004.015 0 .025 0 .04v.551c0 .015.004.025.01.031a.04.04 0 0 0 .028.01h.159a.421.421 0 0 0 .098-.01.188.188 0 0 0 .068-.03.128.128 0 0 0 .042-.05.162.162 0 0 0 .015-.07.157.157 0 0 0-.006-.044A.13.13 0 0 0 .332.34a.164.164 0 0 0 .05-.017.141.141 0 0 0 .066-.077.164.164 0 0 0 .01-.058M.292.456A.094.094 0 0 1 .286.49a.06.06 0 0 1-.018.025.078.078 0 0 1-.03.015.168.168 0 0 1-.047.006H.126V.372h.072c.018 0 .033.002.044.006a.074.074 0 0 1 .044.045.1.1 0 0 1 .006.033m.032-.27a.098.098 0 0 1-.007.038.075.075 0 0 1-.022.03A.1.1 0 0 1 .26.27a.211.211 0 0 1-.057.007H.126v-.18h.093a.16.16 0 0 1 .045.006C.276.107.287.113.295.12c.01.008.017.017.021.027a.087.087 0 0 1 .008.038z"/></symbol><use xlink:href="#ce" transform="matrix(9.65437 0 0 -9.65437 23.556 12.945)"/></g></g></g></g><g data-name="P"><clipPath id="cf"><path transform="matrix(.53564 0 0 -.53564 93.542 612.198)" d="M-171.834 24.849h646.368v1132.21h-646.368z"/></clipPath><g clip-path="url(#cf)"><clipPath id="cg"><path transform="matrix(.53564 0 0 -.53564 93.542 612.198)" d="M-171.835 760.22h476.28v396.84h-476.28z"/></clipPath><g clip-path="url(#cg)"><clipPath id="ch"><path transform="matrix(.53564 0 0 -.53564 93.542 612.198)" d="M-171.835 760.22h476.28v396.84h-476.28z" fill-rule="evenodd"/></clipPath><g clip-path="url(#ch)"><use xlink:href="#bZ" transform="matrix(9.65437 0 0 -9.65437 227.747 173.987)"/><use xlink:href="#ca" transform="matrix(9.65437 0 0 -9.65437 236.729 174.138)"/></g></g></g></g><g data-name="P"><clipPath id="ci"><path transform="matrix(.53564 0 0 -.53564 93.542 612.198)" d="M-171.834 24.849h646.368v1132.21h-646.368z"/></clipPath><g clip-path="url(#ci)"><clipPath id="cj"><path transform="matrix(.53564 0 0 -.53564 93.542 612.198)" d="M-171.835 760.22h476.28v396.84h-476.28z"/></clipPath><g clip-path="url(#cj)"><clipPath id="ck"><path transform="matrix(.53564 0 0 -.53564 93.542 612.198)" d="M-171.835 760.22h476.28v396.84h-476.28z" fill-rule="evenodd"/></clipPath><g clip-path="url(#ck)"><use xlink:href="#aK" transform="matrix(9.65437 0 0 -9.65437 246.224 172.742)"/></g></g></g></g><g data-name="P"><clipPath id="cl"><path transform="matrix(.53564 0 0 -.53564 93.542 612.198)" d="M-171.834 24.849h646.368v1132.21h-646.368z"/></clipPath><g clip-path="url(#cl)"><clipPath id="cm"><path transform="matrix(.53564 0 0 -.53564 93.542 612.198)" d="M-171.835 760.22h476.28v396.84h-476.28z"/></clipPath><g clip-path="url(#cm)"><path d="m134.232 116.774 5.496-5.496 5.495 5.496-5.495 5.496z" fill="red" fill-rule="evenodd"/></g></g><clipPath id="cn"><path transform="matrix(.53564 0 0 -.53564 93.542 612.198)" d="M-171.834 24.849h646.368v1132.21h-646.368z"/></clipPath><g clip-path="url(#cn)"><clipPath id="co"><path transform="matrix(.53564 0 0 -.53564 93.542 612.198)" d="M-171.835 760.22h476.28v396.84h-476.28z"/></clipPath><g clip-path="url(#co)"><path stroke-width=".5142144" stroke-miterlimit="10" fill="none" stroke="red" d="m134.232 116.774 5.496-5.496 5.495 5.496-5.495 5.496z"/></g></g></g><g data-name="P"><clipPath id="cp"><path transform="matrix(.53564 0 0 -.53564 93.542 612.198)" d="M-171.834 24.849h646.368v1132.21h-646.368z"/></clipPath><g clip-path="url(#cp)"><clipPath id="cq"><path transform="matrix(.53564 0 0 -.53564 93.542 612.198)" d="M-171.835 760.22h476.28v396.84h-476.28z"/></clipPath><g clip-path="url(#cq)"><path d="m169.777 82.547 5.458-5.458 5.464 5.458-5.464 5.458z" fill="red" fill-rule="evenodd"/></g></g><clipPath id="cr"><path transform="matrix(.53564 0 0 -.53564 93.542 612.198)" d="M-171.834 24.849h646.368v1132.21h-646.368z"/></clipPath><g clip-path="url(#cr)"><clipPath id="cs"><path transform="matrix(.53564 0 0 -.53564 93.542 612.198)" d="M-171.835 760.22h476.28v396.84h-476.28z"/></clipPath><g clip-path="url(#cs)"><path stroke-width=".5142144" stroke-miterlimit="10" fill="none" stroke="red" d="m169.777 82.547 5.458-5.458 5.464 5.458-5.464 5.458z"/></g></g></g><g data-name="P"><clipPath id="ct"><path transform="matrix(.53564 0 0 -.53564 93.542 612.198)" d="M-171.834 24.849h646.368v1132.21h-646.368z"/></clipPath><g clip-path="url(#ct)"><clipPath id="cu"><path transform="matrix(.53564 0 0 -.53564 93.542 612.198)" d="M-171.835 760.22h476.28v396.84h-476.28z"/></clipPath><g clip-path="url(#cu)"><path d="M71.755 164.596a8.58 8.58 0 0 1 8.58-8.581 8.58 8.58 0 0 1 8.582 8.58 8.58 8.58 0 0 1-8.581 8.582 8.58 8.58 0 0 1-8.581-8.581z" fill-rule="evenodd"/></g></g></g><g data-name="P"><clipPath id="cv"><path transform="matrix(.53564 0 0 -.53564 93.542 612.198)" d="M-171.834 24.849h646.368v1132.21h-646.368z"/></clipPath><g clip-path="url(#cv)"><clipPath id="cw"><path transform="matrix(.53564 0 0 -.53564 93.542 612.198)" d="M-171.835 760.22h476.28v396.84h-476.28z"/></clipPath><g clip-path="url(#cw)"><clipPath id="cx"><path transform="matrix(.53564 0 0 -.53564 93.542 612.198)" d="M-171.835 760.22h476.28v396.84h-476.28z" fill-rule="evenodd"/></clipPath><g clip-path="url(#cx)"><symbol id="cy"><path d="M.41.728V0H.21v.477A.605.605 0 0 0 0 .373v.163c.068.022.12.048.158.079a.32.32 0 0 1 .088.113H.41z"/></symbol><use xlink:href="#cy" transform="matrix(9.64152 0 0 -9.64152 77.619 168.51)" fill="#fff"/><use xlink:href="#cy" stroke-width=".053" stroke-miterlimit="10" transform="matrix(9.64152 0 0 -9.64152 77.619 168.51)" fill="none" stroke="#fff"/></g></g></g></g><g data-name="P"><clipPath id="cz"><path transform="matrix(.53564 0 0 -.53564 93.542 612.198)" d="M-171.834 24.849h646.368v1132.21h-646.368z"/></clipPath><g clip-path="url(#cz)"><clipPath id="cA"><path transform="matrix(.53564 0 0 -.53564 93.542 612.198)" d="M-171.835 760.22h476.28v396.84h-476.28z"/></clipPath><g clip-path="url(#cA)"><path d="M68.412 106.94a8.58 8.58 0 0 1 8.581-8.581 8.58 8.58 0 0 1 8.581 8.58 8.58 8.58 0 0 1-8.58 8.581 8.58 8.58 0 0 1-8.582-8.58z" fill-rule="evenodd"/></g></g></g><g data-name="P"><clipPath id="cB"><path transform="matrix(.53564 0 0 -.53564 93.542 612.198)" d="M-171.834 24.849h646.368v1132.21h-646.368z"/></clipPath><g clip-path="url(#cB)"><clipPath id="cC"><path transform="matrix(.53564 0 0 -.53564 93.542 612.198)" d="M-171.835 760.22h476.28v396.84h-476.28z"/></clipPath><g clip-path="url(#cC)"><clipPath id="cD"><path transform="matrix(.53564 0 0 -.53564 93.542 612.198)" d="M-171.835 760.22h476.28v396.84h-476.28z" fill-rule="evenodd"/></clipPath><g clip-path="url(#cD)"><symbol id="cE"><path d="M.597 0H0a.374.374 0 0 0 .062.166.84.84 0 0 0 .195.184A.58.58 0 0 1 .37.45a.11.11 0 0 1 .025.064c0 .022-.009.04-.025.055a.083.083 0 0 1-.06.024.086.086 0 0 1-.063-.024C.23.552.22.524.214.483L.014.5c.008.056.023.1.044.13.02.032.05.056.088.073.038.017.09.025.157.025.07 0 .125-.008.163-.024A.197.197 0 0 0 .592.52.226.226 0 0 0 .553.395.521.521 0 0 0 .414.264.786.786 0 0 1 .286.162h.31V0z"/></symbol><use xlink:href="#cE" transform="matrix(9.64152 0 0 -9.64152 73.691 111.032)" fill="#fff"/><use xlink:href="#cE" stroke-width=".053" stroke-miterlimit="10" transform="matrix(9.64152 0 0 -9.64152 73.691 111.032)" fill="none" stroke="#fff"/></g></g></g></g><g data-name="P"><clipPath id="cF"><path transform="matrix(.53564 0 0 -.53564 93.542 612.198)" d="M-171.834 24.849h646.368v1132.21h-646.368z"/></clipPath><g clip-path="url(#cF)"><clipPath id="cG"><path transform="matrix(.53564 0 0 -.53564 93.542 612.198)" d="M-171.835 760.22h476.28v396.84h-476.28z"/></clipPath><g clip-path="url(#cG)"><path d="M192.98 55.132a8.58 8.58 0 0 1 8.582-8.58 8.58 8.58 0 0 1 8.58 8.58 8.58 8.58 0 0 1-8.58 8.581 8.58 8.58 0 0 1-8.581-8.58z" fill-rule="evenodd"/></g></g></g><g data-name="P"><clipPath id="cH"><path transform="matrix(.53564 0 0 -.53564 93.542 612.198)" d="M-171.834 24.849h646.368v1132.21h-646.368z"/></clipPath><g clip-path="url(#cH)"><clipPath id="cI"><path transform="matrix(.53564 0 0 -.53564 93.542 612.198)" d="M-171.835 760.22h476.28v396.84h-476.28z"/></clipPath><g clip-path="url(#cI)"><clipPath id="cJ"><path transform="matrix(.53564 0 0 -.53564 93.542 612.198)" d="M-171.835 760.22h476.28v396.84h-476.28z" fill-rule="evenodd"/></clipPath><g clip-path="url(#cJ)"><symbol id="cK"><path d="M.362.134H0v.163l.362.431h.174v-.44h.09V.134h-.09V0H.362v.134m0 .154v.225L.171.288h.191z"/></symbol><use xlink:href="#cK" transform="matrix(9.64152 0 0 -9.64152 198.139 59.15)" fill="#fff"/><use xlink:href="#cK" stroke-width=".053" stroke-miterlimit="10" transform="matrix(9.64152 0 0 -9.64152 198.139 59.15)" fill="none" stroke="#fff"/></g></g></g></g><g data-name="P"><clipPath id="cL"><path transform="matrix(.53564 0 0 -.53564 93.542 612.198)" d="M-171.834 24.849h646.368v1132.21h-646.368z"/></clipPath><g clip-path="url(#cL)"><clipPath id="cM"><path transform="matrix(.53564 0 0 -.53564 93.542 612.198)" d="M-171.835 760.22h476.28v396.84h-476.28z"/></clipPath><g clip-path="url(#cM)"><path d="M215.542 12.035c0-4.757 3.84-8.613 8.581-8.613 4.74 0 8.58 3.856 8.58 8.613 0 4.756-3.84 8.613-8.58 8.613s-8.581-3.857-8.581-8.613z" fill-rule="evenodd"/></g></g></g><g data-name="P"><clipPath id="cN"><path transform="matrix(.53564 0 0 -.53564 93.542 612.198)" d="M-171.834 24.849h646.368v1132.21h-646.368z"/></clipPath><g clip-path="url(#cN)"><clipPath id="cO"><path transform="matrix(.53564 0 0 -.53564 93.542 612.198)" d="M-171.835 760.22h476.28v396.84h-476.28z"/></clipPath><g clip-path="url(#cO)"><clipPath id="cP"><path transform="matrix(.53564 0 0 -.53564 93.542 612.198)" d="M-171.835 760.22h476.28v396.84h-476.28z" fill-rule="evenodd"/></clipPath><g clip-path="url(#cP)"><symbol id="cQ"><path d="M.199.521.01.555C.026.615.056.66.1.692A.321.321 0 0 0 .29.74C.383.74.45.723.492.688A.164.164 0 0 0 .53.473.216.216 0 0 0 .453.407.226.226 0 0 0 .516.383.152.152 0 0 0 .571.325a.172.172 0 0 0 .02-.086A.24.24 0 0 0 .56.12.221.221 0 0 0 .464.031.363.363 0 0 0 .303 0a.421.421 0 0 0-.155.023.233.233 0 0 0-.092.067A.313.313 0 0 0 0 .2l.199.027C.207.188.219.16.235.144A.09.09 0 0 1 .298.121c.027 0 .049.01.066.03.018.019.027.045.027.078a.108.108 0 0 1-.026.077.09.09 0 0 1-.07.027.251.251 0 0 1-.064-.012l.01.142A.19.19 0 0 1 .269.461a.09.09 0 0 1 .065.025.079.079 0 0 1 .026.059.07.07 0 0 1-.02.052.073.073 0 0 1-.053.02.078.078 0 0 1-.057-.022C.214.581.204.556.199.521z"/></symbol><use xlink:href="#cQ" transform="matrix(9.64152 0 0 -9.64152 221.355 15.366)" fill="#fff"/><use xlink:href="#cQ" stroke-width=".053" stroke-miterlimit="10" transform="matrix(9.64152 0 0 -9.64152 221.355 15.366)" fill="none" stroke="#fff"/></g></g></g></g></g></g></g></g></g><clipPath id="cR"><path transform="matrix(1 0 0 -1 -76.535 765.355)" d="M-.936 13.31h595.28V855.2H-.935z"/></clipPath><g clip-path="url(#cR)"><clipPath id="cS"><path transform="matrix(1 0 0 -1 -76.535 765.355)" d="M-92.042 407.204h595.28v841.89h-595.28z"/></clipPath><g clip-path="url(#cS)"><clipPath id="cT"><path transform="matrix(1 0 0 -1 -76.535 765.355)" d="M-92.042 407.204h595.28v841.89h-595.28z"/></clipPath><g clip-path="url(#cT)"><clipPath id="cU"><path transform="matrix(1 0 0 -1 -76.535 765.355)" d="M-92.042 407.204h595.28v841.89h-595.28z"/></clipPath><g clip-path="url(#cU)"><symbol id="cV"><path d="M.75.828V.18c0-.052.001-.1.004-.14L.695.007v.078H.06V.023L0 0c.003.052.004.105.004.16v.59C.004.794.003.844 0 .898L.059.863h.629l.027.04.062-.051L.75.828M.059.84V.36a.94.94 0 0 1 .285.175.854.854 0 0 0-.09.16A.867.867 0 0 0 .12.531L.11.54c.042.055.077.11.106.168.028.06.045.104.05.133H.06m0-.73h.636v.73H.273L.34.805.316.793A1.467 1.467 0 0 1 .281.738h.207l.028.035L.574.72.543.699A1.887 1.887 0 0 0 .406.527.548.548 0 0 1 .684.422V.406C.644.404.62.388.609.36A.75.75 0 0 0 .371.5.89.89 0 0 0 .06.34V.11m.21.605A.802.802 0 0 1 .376.563a1.1 1.1 0 0 1 .11.152H.27m.023-.3A.89.89 0 0 0 .426.378C.452.369.464.35.46.324.458.301.453.29.445.29S.428.296.418.31a.721.721 0 0 1-.129.093l.004.012M.219.274C.339.26.417.246.453.233c.04-.01.06-.03.063-.058C.518.147.513.133.5.133.492.133.48.14.46.156A.801.801 0 0 1 .22.258v.015z"/></symbol><use xlink:href="#cV" transform="matrix(11 0 0 -11 46.693 222.035)"/></g></g></g></g><clipPath id="cW"><path transform="matrix(1 0 0 -1 -76.535 765.355)" d="M-.936 13.31h595.28V855.2H-.935z"/></clipPath><g clip-path="url(#cW)"><clipPath id="cX"><path transform="matrix(1 0 0 -1 -76.535 765.355)" d="M-92.042 407.204h595.28v841.89h-595.28z"/></clipPath><g clip-path="url(#cX)"><clipPath id="cY"><path transform="matrix(1 0 0 -1 -76.535 765.355)" d="M-92.042 407.204h595.28v841.89h-595.28z"/></clipPath><g clip-path="url(#cY)"><clipPath id="cZ"><path transform="matrix(1 0 0 -1 -76.535 765.355)" d="M-92.042 407.204h595.28v841.89h-595.28z"/></clipPath><g clip-path="url(#cZ)"><symbol id="da"><path d="M.386.674.348.59h-.2L.106.502A.349.349 0 0 0 .311.406.216.216 0 0 0 .375.25.22.22 0 0 0 .354.153.257.257 0 0 0 .229.027.264.264 0 0 0 .114 0C.074 0 .045.007.027.02.009.034 0 .049 0 .065c0 .01.004.017.011.024a.04.04 0 0 0 .029.01.056.056 0 0 0 .022-.003.198.198 0 0 0 .032-.02A.13.13 0 0 1 .168.05c.039 0 .072.015.1.043A.144.144 0 0 1 .313.2c0 .04-.013.077-.039.112a.247.247 0 0 1-.106.08.432.432 0 0 1-.145.026l.127.257h.237z"/></symbol><symbol id="db"><path d="M.054.108A.052.052 0 0 0 .093.092.052.052 0 0 0 .108.054.053.053 0 0 0 .092.016.052.052 0 0 0 .054 0 .053.053 0 0 0 0 .054C0 .07.005.082.016.093c.01.01.023.015.038.015z"/></symbol><symbol id="dc"><path d="M.405.688V.668A.32.32 0 0 1 .3.644.295.295 0 0 1 .22.585.38.38 0 0 1 .152.497.53.53 0 0 1 .11.38.248.248 0 0 0 .25.43.154.154 0 0 0 .369.375a.2.2 0 0 0 .05-.14.25.25 0 0 0-.05-.152A.189.189 0 0 0 .207 0a.161.161 0 0 0-.115.045A.297.297 0 0 0 0 .27a.438.438 0 0 0 .264.395c.04.014.078.021.113.021h.028M.102.346a.843.843 0 0 1-.01-.107C.093.208.099.174.11.137A.201.201 0 0 1 .162.05a.086.086 0 0 1 .06-.023c.028 0 .054.014.076.04a.173.173 0 0 1 .034.115.298.298 0 0 1-.034.144C.276.366.245.387.204.387A.118.118 0 0 1 .164.38.395.395 0 0 1 .102.346z"/></symbol><symbol id="dd"><path d="M.437.127.391 0H0v.018c.115.105.196.19.243.257.047.066.07.127.07.182a.144.144 0 0 1-.039.104.123.123 0 0 1-.092.04.144.144 0 0 1-.088-.029A.165.165 0 0 1 .037.49H.02c.008.06.029.106.063.138a.176.176 0 0 0 .126.049.186.186 0 0 0 .134-.052.163.163 0 0 0 .054-.122.236.236 0 0 0-.023-.1.663.663 0 0 0-.117-.168 3.477 3.477 0 0 0-.152-.16h.173c.035 0 .06.001.074.004a.099.099 0 0 1 .038.015c.012.008.021.02.03.034h.018z"/></symbol><symbol id="de"><path d="M.553.183.57.18.513 0H0v.018h.025c.028 0 .048.01.06.027.007.01.01.035.01.073v.427c0 .041-.004.067-.013.078C.069.637.05.644.025.644H0v.018h.3V.644a.185.185 0 0 1-.074-.01.06.06 0 0 1-.03-.026A.213.213 0 0 1 .19.534V.118C.189.09.192.072.197.062A.035.035 0 0 1 .215.047.317.317 0 0 1 .29.042h.048a.35.35 0 0 1 .107.011c.02.008.04.02.056.04a.33.33 0 0 1 .051.09z"/></symbol><symbol id="df"><path d="M.566.692.58.467H.566a.283.283 0 0 1-.087.146.21.21 0 0 1-.134.044.218.218 0 0 1-.12-.033.221.221 0 0 1-.083-.107.479.479 0 0 1-.03-.182C.111.275.12.223.14.179a.216.216 0 0 1 .087-.1.25.25 0 0 1 .132-.036c.043 0 .08.01.114.027A.379.379 0 0 1 .58.18L.596.17A.348.348 0 0 0 .48.041.294.294 0 0 0 .322 0C.212 0 .128.04.067.122A.349.349 0 0 0 0 .336a.38.38 0 0 0 .044.182.33.33 0 0 0 .292.174A.312.312 0 0 0 .48.657a.077.077 0 0 1 .029-.01C.517.646.524.65.53.655a.076.076 0 0 1 .018.036h.017z"/></symbol><symbol id="dg"><path d="M.155.694V.101c0-.028.002-.046.006-.056a.046.046 0 0 1 .02-.02.112.112 0 0 1 .047-.007V0h-.22v.018c.02 0 .035.002.042.006a.042.042 0 0 1 .018.02c.004.01.006.03.006.057v.406c0 .05 0 .082-.003.093C.069.612.065.62.06.624A.028.028 0 0 1 .04.63.091.091 0 0 1 .009.623L0 .64l.133.054h.022z"/></symbol><symbol id="dh"><path d="M.216.474A.198.198 0 0 0 .38.397.237.237 0 0 0 .432.246c0-.04-.01-.081-.03-.122A.21.21 0 0 0 .324.031.208.208 0 0 0 .211 0a.19.19 0 0 0-.16.08A.25.25 0 0 0 0 .234c0 .04.01.082.03.122a.208.208 0 0 0 .186.12M.201.441A.102.102 0 0 1 .15.427.107.107 0 0 1 .107.373a.26.26 0 0 1-.016-.1C.09.21.104.154.129.106.155.058.19.035.232.035.264.035.29.048.31.074.33.1.34.144.34.208.34.288.325.35.29.396A.106.106 0 0 1 .2.442z"/></symbol><symbol id="di"><path d="M.377.184a.244.244 0 0 0-.07-.137A.17.17 0 0 0 .188 0a.172.172 0 0 0-.132.064A.251.251 0 0 0 0 .237c0 .07.02.127.063.171a.201.201 0 0 0 .15.066C.257.474.293.462.322.44.35.416.364.392.364.367a.04.04 0 0 0-.012-.03A.046.046 0 0 0 .32.324c-.02 0-.034.006-.044.019C.27.35.266.364.265.383a.063.063 0 0 1-.02.044.07.07 0 0 1-.048.014A.097.097 0 0 1 .12.405.192.192 0 0 1 .079.28c0-.054.013-.1.04-.142a.121.121 0 0 1 .106-.06c.032 0 .06.01.086.032A.22.22 0 0 1 .363.19L.377.184z"/></symbol><symbol id="dj"><path d="M.155.694V.25L.27.353a.381.381 0 0 1 .042.042.021.021 0 0 1 .004.012.02.02 0 0 1-.008.016C.3.428.293.431.28.432v.015h.195V.432A.186.186 0 0 1 .408.419.217.217 0 0 1 .35.38L.235.273.35.128A1.02 1.02 0 0 1 .414.052a.133.133 0 0 1 .041-.03.128.128 0 0 1 .043-.004V0H.28v.018C.293.018.3.02.305.023a.018.018 0 0 1 .007.015c0 .007-.006.02-.02.036L.155.249V.101c0-.03.002-.048.006-.058A.04.04 0 0 1 .18.023.13.13 0 0 1 .228.019V0H0v.018c.023 0 .04.002.051.008.007.003.012.009.016.016.005.011.007.03.007.056v.407A.722.722 0 0 1 .071.6C.069.612.065.62.06.624a.03.03 0 0 1-.02.007.092.092 0 0 1-.032-.008L0 .64l.133.054h.022z"/></symbol><use xlink:href="#da" transform="matrix(11 0 0 -11 59.465 221.133)"/><use xlink:href="#db" transform="matrix(11 0 0 -11 65.218 221.154)"/><use xlink:href="#dc" transform="matrix(11 0 0 -11 67.662 221.133)"/><use xlink:href="#dd" transform="matrix(11 0 0 -11 83.914 221.004)"/><use xlink:href="#de" transform="matrix(11 0 0 -11 89.398 221.004)"/><use xlink:href="#df" transform="matrix(11 0 0 -11 96.296 221.17)"/><use xlink:href="#dg" transform="matrix(11 0 0 -11 103.564 221.004)"/><use xlink:href="#dh" transform="matrix(11 0 0 -11 106.665 221.154)"/><use xlink:href="#di" transform="matrix(11 0 0 -11 112.17 221.154)"/><use xlink:href="#dj" transform="matrix(11 0 0 -11 116.77 221.004)"/></g></g></g></g><clipPath id="dk"><path transform="matrix(1 0 0 -1 -76.535 765.355)" d="M-.936 13.31h595.28V855.2H-.935z"/></clipPath><g clip-path="url(#dk)"><clipPath id="dl"><path transform="matrix(1 0 0 -1 -76.535 765.355)" d="M-92.042 407.204h595.28v841.89h-595.28z"/></clipPath><g clip-path="url(#dl)"><clipPath id="dm"><path transform="matrix(1 0 0 -1 -76.535 765.355)" d="M-92.042 407.204h595.28v841.89h-595.28z"/></clipPath><g clip-path="url(#dm)"><clipPath id="dn"><path transform="matrix(1 0 0 -1 -76.535 765.355)" d="M-92.042 407.204h595.28v841.89h-595.28z"/></clipPath><g clip-path="url(#dn)"><symbol id="do"><path d="m.332.75.05-.035h.126C.508.795.507.86.504.91L.59.867.559.844v-.13h.12L.712.75.766.703.734.68V.418h.008L.79.465l.07-.07H.58A.544.544 0 0 1 .694.172a.288.288 0 0 1 .16-.09V.066C.816.061.79.046.777.02a.475.475 0 0 0-.144.16.718.718 0 0 0-.07.215H.538A.43.43 0 0 0 .43.156.64.64 0 0 0 .16 0L.152.016c.089.036.16.082.215.136a.484.484 0 0 1 .121.243h-.16L.29.387.258.418h.078C.336.595.335.706.332.75m.05-.059V.418h.11a3 3 0 0 1 .016.273H.383m.176 0A3.126 3.126 0 0 0 .543.418h.144v.273H.56M.055.742V.5h.14v.242h-.14m0-.265v-.23h.14v.23h-.14M0 .797.055.766H.19L.223.8.277.75.247.727c0-.287 0-.467.003-.54L.195.16v.063h-.14V.137L0 .105a19.366 19.366 0 0 1 0 .691z"/></symbol><symbol id="dp"><path d="M.164.754V.637h.191v.117h-.19m0-.14V.507h.19v.105h-.19m0-.129V.367h.19v.117h-.19m.081.438L.32.879C.294.87.266.837.234.777h.118l.027.04L.437.77.41.746v-.64C.41.06.383.026.328.003c0 .034-.034.061-.101.082v.016A1.49 1.49 0 0 1 .332.094c.016 0 .023.009.023.027v.223H.32A.715.715 0 0 0 .18.152.872.872 0 0 0 .008.023L0 .035A.87.87 0 0 1 .148.18c.045.052.081.106.11.164h-.13A.355.355 0 0 1 .036.332L0 .367h.11C.11.604.107.751.104.81l.06-.032H.21c.016.058.027.106.035.145M.7.637C.7.757.698.849.695.914L.79.875.754.844V.637h.043l.05.05.075-.074H.754v-.5C.757.061.727.023.664 0 .66.036.616.065.535.086v.02C.605.097.65.093.668.093c.02 0 .031.011.031.035v.484H.555A.355.355 0 0 1 .46.602L.426.637h.273M.48.507l.012.009A.585.585 0 0 0 .582.43C.6.409.608.388.605.367A.078.078 0 0 0 .585.32C.576.312.569.31.564.31c-.014 0-.021.017-.024.05A.472.472 0 0 1 .48.508z"/></symbol><symbol id="dq"><path d="M.371.45v.112C.371.61.37.651.367.688L.407.66.59.793H.152A.355.355 0 0 1 .06.781L.023.816H.59l.05.04L.7.776a.395.395 0 0 1-.095-.03 2.713 2.713 0 0 1-.18-.099L.45.633.422.613V.47C.513.555.57.617.594.656l.062-.07L.617.582A15.511 15.511 0 0 0 .426.449C.548.387.615.345.625.324a.09.09 0 0 0 .02-.05.078.078 0 0 0-.008-.036C.632.228.627.223.625.223c-.01 0-.026.017-.047.05A.73.73 0 0 1 .422.43V.207C.422.168.396.138.344.117.34.148.306.174.238.195v.016A.55.55 0 0 1 .352.203c.013.003.02.01.02.024v.195C.245.339.171.282.147.254L.094.312A1.219 1.219 0 0 1 .37.45m-.21.188.01.011a.43.43 0 0 0 .11-.082c.013-.018.02-.03.02-.039A.063.063 0 0 0 .285.488C.275.475.267.468.262.468c-.008 0-.015.01-.02.028a.472.472 0 0 1-.082.14M.7.095v.34C.7.49.697.55.694.614L.79.57.754.54V.175C.754.132.755.083.758.03L.699 0v.07H.09L.052.035 0 .085l.031.028v.352C.031.509.03.564.027.629L.121.586.086.559V.094h.613z"/></symbol><symbol id="dr"><path d="M.246.34A4.838 4.838 0 0 1 .188.242l.12-.027a.441.441 0 0 1 .07.125H.247m-.16.527a.345.345 0 0 0 .09-.07C.186.78.19.77.19.762a.063.063 0 0 0-.015-.04C.168.71.16.704.156.704c-.008 0-.015.013-.023.04a.41.41 0 0 1-.059.116l.012.008M.422.88l.07-.047A.098.098 0 0 1 .438.793a2.17 2.17 0 0 0-.09-.094L.336.707c.05.078.078.135.086.172M.246.922l.086-.04L.301.856v-.18h.097L.441.72.508.652H.3V.617C.36.604.397.591.41.578A.049.049 0 0 0 .433.535.168.168 0 0 0 .43.504C.427.494.423.488.418.488S.404.498.391.516A.348.348 0 0 1 .3.598V.477L.254.445.309.422C.296.417.279.397.258.363h.12l.028.035.059-.05L.43.328A.5.5 0 0 0 .36.203.188.188 0 0 0 .44.168.049.049 0 0 0 .465.125C.465.107.46.098.453.098S.436.103.426.113a.5.5 0 0 1-.098.055.723.723 0 0 0-.324-.145L0 .035c.12.04.214.09.281.152a.874.874 0 0 1-.152.04C.139.242.16.28.19.34h-.05A.355.355 0 0 1 .047.328L.012.363h.187C.21.39.22.421.23.457L.25.449v.16A.76.76 0 0 0 .008.422L0 .434C.096.5.17.574.219.652h-.07A.355.355 0 0 1 .054.641L.02.676h.23C.25.77.249.852.246.922m.32-.27C.58.502.611.375.66.273c.042.089.068.215.078.38H.566m.02.269.09-.05A.083.083 0 0 1 .629.823 3.654 3.654 0 0 1 .57.676h.223L.84.723l.07-.07H.797C.78.46.747.315.695.222A.378.378 0 0 1 .906.086V.07C.856.062.831.047.828.023a.706.706 0 0 0-.168.16A.787.787 0 0 0 .352 0L.344.012c.12.054.215.126.285.215C.579.349.553.483.55.629A.687.687 0 0 0 .437.437L.426.446c.062.104.116.263.16.477z"/></symbol><symbol id="ds"><path d="M.492.695A1.054 1.054 0 0 0 .352.5L.34.508c.078.117.134.254.168.41l.094-.05-.04-.024A3.07 3.07 0 0 0 .504.719h.281L.82.758.883.699.848.676A10.721 10.721 0 0 0 .828.14.147.147 0 0 0 .793.05.18.18 0 0 0 .699 0C.702.036.658.068.566.094l.004.02a.524.524 0 0 1 .133-.02C.724.094.74.099.75.109c.01.01.017.032.02.063.005.031.011.206.02.523H.491M.414.29l.223.008A.666.666 0 0 1 .586.41l.012.008A.408.408 0 0 0 .707.289C.715.266.711.246.695.23.682.217.673.21.668.21.663.21.658.217.652.228L.641.28A1.82 1.82 0 0 1 .508.258.232.232 0 0 1 .406.215L.363.289c.029.005.059.046.09.121.034.078.055.14.063.184L.598.543.563.527A1.138 1.138 0 0 0 .413.29M.22.535C.219.251.22.081.223.023L.16 0c.003.117.004.281.004.492A1.07 1.07 0 0 0 .02.222L.004.23c.07.125.124.269.16.43H.066L.031.652 0 .684h.164C.164.77.163.848.16.918L.25.871.219.844v-.16h.047L.312.73l.07-.07H.22V.56C.28.525.319.499.332.48.348.465.355.45.355.434a.092.092 0 0 0-.011-.04C.339.383.334.376.328.376.32.375.31.389.297.418a.356.356 0 0 1-.078.117z"/></symbol><symbol id="dt"><path d="M.441.371v-.18h.282v.18H.44M.387.105a3.462 3.462 0 0 1 0 .324L.44.396H.72l.027.039.059-.047L.773.359c0-.093.002-.165.004-.214L.723.117v.051H.44v-.04L.387.106M.41.816.492.773.461.753.43.692h.12c0 .081 0 .142-.003.184l.086-.04L.602.814V.69h.101l.05.051.071-.074H.602V.512h.18l.054.054.07-.078H.391A.355.355 0 0 1 .297.477L.262.512H.55v.156H.42A.909.909 0 0 0 .317.531L.305.54A.807.807 0 0 1 .379.7C.399.754.41.793.41.816M.086.824l.012.008c.039-.02.069-.04.09-.059C.21.758.22.74.217.72A.078.078 0 0 0 .2.672C.19.664.182.66.18.66.17.66.16.673.153.7a.494.494 0 0 1-.066.124M.207.188A.36.36 0 0 1 .309.104a.4.4 0 0 1 .14-.039C.501.064.55.062.594.062c.09 0 .202.006.332.016V.063C.882.052.856.03.852 0L.55.008a.716.716 0 0 0-.188.027.246.246 0 0 0-.117.074C.217.141.196.158.18.16.167.165.146.152.117.121A.37.37 0 0 1 .062.04L0 .09a.45.45 0 0 0 .156.102V.5H.133A.355.355 0 0 1 .039.488L.004.523h.144l.028.04.066-.051L.207.488v-.3z"/></symbol><symbol id="du"><path d="M0 .707h.777l.059.059.082-.082h-.48a1.656 1.656 0 0 0-.02-.172h.254L.71.55.773.492.734.47A4.005 4.005 0 0 0 .68.113C.67.077.652.053.629.04A.265.265 0 0 0 .539 0C.53.042.486.078.41.11l.004.015A.652.652 0 0 1 .551.094C.574.09.59.095.6.105c.014.01.025.043.036.098.01.057.023.152.039.285H.414A.64.64 0 0 0 .031.004L.023.02c.235.132.352.354.352.664H.129A.355.355 0 0 1 .035.672L0 .707m.375.191C.443.872.482.85.492.832.505.814.512.799.512.789A.076.076 0 0 0 .496.75C.486.737.48.73.476.73c-.01 0-.02.015-.03.043a.341.341 0 0 1-.079.114l.008.011z"/></symbol><symbol id="dv"><path d="m.285.184.227.05L.516.22A7.722 7.722 0 0 1 .172.105C.104.082.065.063.055.047L0 .12c.083.016.16.031.23.047v.3H.164A.355.355 0 0 1 .07.458L.035.492h.317l.05.051.075-.074H.285V.184M.633.87a.442.442 0 0 0 .105-.05C.762.806.772.79.77.772.77.755.766.743.758.734.75.727.743.723.738.723c-.01 0-.02.01-.027.03A.401.401 0 0 1 .625.86l.008.012M.547.84C.547.78.548.728.55.684h.18l.062.062L.879.66H.55C.56.527.578.424.6.352A.596.596 0 0 1 .689.188a.329.329 0 0 1 .128-.09l.028.187h.02a1.342 1.342 0 0 1 .003-.2.235.235 0 0 1 .028-.073C.9.004.897 0 .887 0A.43.43 0 0 0 .66.121a.574.574 0 0 0-.11.203A1.325 1.325 0 0 0 .497.66H.152A.355.355 0 0 1 .06.648L.023.684h.47L.483.91.582.867.547.84z"/></symbol><use xlink:href="#do" transform="matrix(11 0 0 -11 125.964 222.078)"/><use xlink:href="#dp" transform="matrix(11 0 0 -11 136.363 222.078)"/><use xlink:href="#dq" transform="matrix(11 0 0 -11 148.093 222.035)"/><use xlink:href="#dr" transform="matrix(11 0 0 -11 158.449 222.121)"/><use xlink:href="#ds" transform="matrix(11 0 0 -11 169.492 222.078)"/><use xlink:href="#dt" transform="matrix(11 0 0 -11 180.32 221.734)"/><use xlink:href="#du" transform="matrix(11 0 0 -11 191.406 222.035)"/><use xlink:href="#dv" transform="matrix(11 0 0 -11 202.578 222.035)"/></g></g></g></g></g></svg>