<svg xmlns="http://www.w3.org/2000/svg" xmlns:xlink="http://www.w3.org/1999/xlink" width="453.549" height="287.245" viewBox="0 0 340.162 215.434"><clipPath id="a"><path transform="matrix(1 0 0 -1 -70.866 765.355)" d="M0 0h595.28v841.89H0z"/></clipPath><g clip-path="url(#a)"><clipPath id="b"><path transform="matrix(1 0 0 -1 -70.866 765.355)" d="M0 0h595.28v841.89H0z"/></clipPath><g clip-path="url(#b)"><clipPath id="c"><path transform="matrix(1 0 0 -1 -70.866 765.355)" d="M0 0h595.28v841.89H0z"/></clipPath><g clip-path="url(#c)"><clipPath id="d"><path transform="matrix(1 0 0 -1 -70.866 765.355)" d="M0 0h595.28v841.89H0z"/></clipPath><g clip-path="url(#d)"><clipPath id="e"><path transform="matrix(.49391 0 0 -.49391 37.502 324.715)" d="M-68.403 118.58h796.658v531.142H-68.403z"/></clipPath><g clip-path="url(#e)"><g data-name="P"><clipPath id="f"><path transform="matrix(.49391 0 0 -.49391 37.502 324.715)" d="M-76.76 264.188h688.726v389.705H-76.76z"/></clipPath><g clip-path="url(#f)"><path stroke-width="1.1261147999999999" stroke-miterlimit="10" fill="none" stroke="#000" d="M4.336 14.002c0-5.28 4.288-9.572 9.572-9.572h306.007c5.285 0 9.572 4.292 9.572 9.572V52.29c0 5.285-4.287 9.567-9.572 9.567H13.908c-5.284 0-9.572-4.282-9.572-9.567z"/></g></g><g data-name="P"><clipPath id="g"><path transform="matrix(.49391 0 0 -.49391 37.502 324.715)" d="M-76.76 264.188h688.726v389.705H-76.76z"/></clipPath><g clip-path="url(#g)"><path d="m171.92 104.348 117.94-16.674-117.757 39.829c-.06-7.72-.124-15.44-.183-23.155z" fill="#e0e0e0" fill-rule="evenodd"/></g></g><g data-name="P"><clipPath id="h"><path transform="matrix(.49391 0 0 -.49391 37.502 324.715)" d="M-76.76 264.188h688.726v389.705H-76.76z"/></clipPath><g clip-path="url(#h)"><path d="m171.95 104.877 6.697-.894-.099-.741-6.697.889zm-.198-1.492 6.698-.889-.1-.746-6.697.894zm9.128.301 6.697-.889-.099-.746-6.697.894zm-.198-1.486 6.697-.894-.098-.741-6.698.889zm9.128.3 6.697-.893-.099-.74-6.697.888zm-.198-1.49 6.697-.89-.098-.746-6.698.894zm9.127.3 6.698-.888-.099-.746-6.697.889zm-.197-1.486 6.697-.894-.099-.74-6.697.888zm9.127.301 6.698-.894-.1-.74-6.696.888zm-.197-1.491 6.697-.89-.099-.745-6.697.894zm9.127.3 6.698-.888-.1-.746-6.697.89zm-.197-1.486 6.697-.894-.099-.74-6.697.888zm9.127.301 6.702-.893-.103-.746-6.698.894zm-.197-1.491 6.697-.89-.099-.745-6.697.89zm9.132.301 6.697-.889-.098-.746-6.703.89zm-.203-1.487 6.698-.893-.099-.741-6.697.889zm9.133.297 6.697-.89-.099-.745-6.697.894zm-.203-1.487 6.703-.889-.1-.746-6.701.89zm9.133.301 6.697-.894-.099-.74-6.697.889zm-.198-1.486 6.698-.894-.1-.746-6.697.894zm9.128.296 6.697-.889-.099-.746-6.697.894zm-.198-1.487 6.697-.889-.098-.745-6.698.889zm9.127.302 6.698-.894-.099-.741-6.697.889zm-.197-1.492 6.697-.889-.098-.746-6.698.894zm9.127.301 6.698-.889-.099-.745-6.697.894zm-.197-1.486 6.697-.894-.098-.741-6.698.889zm9.127.301 1.694-.227-.098-.746-1.694.227zm-.197-1.492 1.694-.222-.099-.746-1.694.228z" fill="#ed7d31"/></g></g><g data-name="P"><clipPath id="i"><path transform="matrix(.49391 0 0 -.49391 37.502 324.715)" d="M-76.76 264.188h688.726v389.705H-76.76z"/></clipPath><g clip-path="url(#i)"><path stroke-width="1.1261147999999999" stroke-dasharray="4.504459199999999,3.3783444" stroke-miterlimit="10" fill="none" stroke="#000" d="M80.082 68.382 80.75 175.1"/></g></g><g data-name="P"><clipPath id="j"><path transform="matrix(.49391 0 0 -.49391 37.502 324.715)" d="M-76.76 264.188h688.726v389.705H-76.76z"/></clipPath><g clip-path="url(#j)"><path d="M13.345 175.037h291.383v1.481H13.345zm290.637-1.482 4.445 2.217-4.445 2.228z"/></g></g><g data-name="P"><clipPath id="k"><path transform="matrix(.49391 0 0 -.49391 37.502 324.715)" d="M-76.76 264.188h688.726v389.705H-76.76z"/></clipPath><g clip-path="url(#k)"><path d="M12.604 176.069V72.086h1.482v103.983zM11.123 72.827l2.217-4.445 2.228 4.445z"/></g></g><g data-name="P"><clipPath id="l"><path transform="matrix(.49391 0 0 -.49391 37.502 324.715)" d="M-76.76 264.188h688.726v389.705H-76.76z"/></clipPath><g clip-path="url(#l)"><clipPath id="m"><path transform="matrix(.49391 0 0 -.49391 37.502 324.715)" d="M-116.289 145.608h733.32v566.88h-733.32z" fill-rule="evenodd"/></clipPath><g clip-path="url(#m)"><symbol id="n"><path d="M.238.082H.44v.09H.33A1.16 1.16 0 0 1 .231.164v.062a1.272 1.272 0 0 0-.15-.102A.32.32 0 0 1 0 .206a.498.498 0 0 1 .264.171H.136A1.167 1.167 0 0 1 .04.369V.46L.136.45h.102v.267H.185A1.376 1.376 0 0 1 .088.71V.8C.132.797.165.794.185.794h.053v.008a3.563 3.563 0 0 1-.007.106L.333.894C.346.892.353.889.355.884a.01.01 0 0 0 0-.003C.355.876.352.869.345.86A.051.051 0 0 1 .331.839.133.133 0 0 1 .329.806V.793h.287v.008A3.563 3.563 0 0 1 .61.907L.71.894C.724.892.73.89.732.887A.019.019 0 0 0 .734.881C.734.876.73.87.722.861A.051.051 0 0 1 .71.839.133.133 0 0 1 .707.806V.793h.055c.014 0 .046.003.095.008V.71a.974.974 0 0 1-.095.007H.707V.452h.104c.01 0 .042.002.096.008V.369a.975.975 0 0 1-.096.008H.698A.457.457 0 0 1 .965.243.32.32 0 0 1 .879.148C.816.18.769.208.739.229V.164a1.308 1.308 0 0 1-.095.008H.531v-.09h.212A1.2 1.2 0 0 1 .84.09V0a1.039 1.039 0 0 1-.096.007H.238A1.85 1.85 0 0 1 .141 0v.09A1.1 1.1 0 0 1 .238.082m.134.295a.896.896 0 0 0-.11-.126A1.3 1.3 0 0 1 .328.247h.11v.009c0 .016-.002.05-.007.102l.1-.013C.546.343.554.338.556.332.557.325.552.317.54.308A.02.02 0 0 1 .533.294.173.173 0 0 1 .531.26V.247h.113l.064.004a.454.454 0 0 0-.115.126h-.22M.328.493V.452h.287v.04H.33m.287.074v.04H.33v-.04h.287M.33.718v-.04h.287v.04H.33z"/></symbol><symbol id="o"><path d="M.616.934C.67.888.714.844.748.802L.682.74h.124C.832.74.864.743.902.75V.659a.597.597 0 0 1-.096.009H.678V.555h.09c.028 0 .06.003.097.01V.473a.65.65 0 0 1-.097.009h-.09v-.12h.094c.022 0 .054.003.097.01V.28a.553.553 0 0 1-.097.01H.678V.166h.147c.023 0 .055.003.096.009V.084a.609.609 0 0 1-.096.01H.43V.09C.43.05.432.02.437 0H.331c.005.045.007.087.007.127v.464A1.402 1.402 0 0 0 .24.483a.286.286 0 0 1-.085.062.702.702 0 0 1 .256.388L.508.892C.515.888.518.884.518.879.519.874.515.868.504.861A.058.058 0 0 1 .48.836 4.262 4.262 0 0 0 .429.74h.247a.719.719 0 0 1-.128.13l.068.063M0 .179c.084.086.158.184.223.294A.304.304 0 0 1 .277.378 6.585 6.585 0 0 1 .082.104.598.598 0 0 1 0 .179M.43.166h.157V.29H.43V.166M.026.774.097.84C.16.786.21.74.244.7L.174.64a1.348 1.348 0 0 1-.148.135M.587.363v.119H.43v-.12h.158M.43.669V.555h.158v.113H.43z"/></symbol><symbol id="p"><path d="M.103.068H0L.008.17V.71C.008.735.005.77 0 .816.05.811.087.808.11.808H.22c.019 0 .057.003.114.008A1.775 1.775 0 0 1 .326.71V.192A.99.99 0 0 1 .333.09h-.1a1.296 1.296 0 0 0 .004.066H.096C.097.126.099.097.103.068M.096.733v-.2h.14v.2h-.14m0-.275V.23h.14v.228h-.14m.622.348v-.15H.76c.021 0 .052.004.093.008v-.09C.816.578.784.58.761.581H.718V.124c0-.045-.012-.075-.04-.09A.378.378 0 0 0 .519 0a.379.379 0 0 1-.052.115C.526.106.565.102.585.102.615.1.629.115.627.148v.433H.449A1.14 1.14 0 0 1 .352.574v.091C.39.66.422.657.449.656h.178v.15c0 .013-.003.046-.008.1L.717.888C.735.886.745.882.747.875.748.87.742.861.727.851.72.847.717.832.717.806M.463.52a11.552 11.552 0 0 1 .11-.19L.486.277a1.733 1.733 0 0 1-.108.2l.084.042z"/></symbol><symbol id="q"><path d="M.56.719h.071v.067C.631.829.628.874.622.92L.737.906C.75.904.756.899.757.89.755.882.75.873.737.864.728.857.723.84.723.814V.72h.075c.038 0 .079.003.122.009A.778.778 0 0 1 .91.606v-.22C.911.32.914.273.92.242H.812c.005.02.008.04.008.06H.723v-.21C.723.066.725.035.731 0H.623a.725.725 0 0 1 .008.093v.209H.537a.46.46 0 0 1 .008-.08H.438a.946.946 0 0 1 .01.144v.24a.85.85 0 0 1-.01.122.975.975 0 0 1 .122-.01M.112.403h.074v.114h-.01a.608.608 0 0 1-.099-.01v.059A.284.284 0 0 1 0 .624c.093.077.16.175.201.293L.302.874C.314.869.32.862.318.854.318.847.31.841.298.837.285.834.275.825.265.81A3.587 3.587 0 0 0 .231.755h.084c.033 0 .07.003.11.01V.672a.766.766 0 0 1-.11.008H.18a4.099 4.099 0 0 0-.07-.085A.83.83 0 0 1 .175.59h.119C.322.59.355.594.392.6V.505a.653.653 0 0 1-.098.01H.277V.402H.34a.423.423 0 0 1 .079.01V.318a.592.592 0 0 1-.079.009H.277V.164c.04.027.078.054.112.08a.632.632 0 0 1 .024-.09A1.704 1.704 0 0 1 .21.013L.149.1c.026.016.039.032.037.047v.18h-.07a.619.619 0 0 1-.08-.01v.095a1.309 1.309 0 0 1 .076-.01M.723.377H.82v.267H.723V.377M.537.644V.377h.094v.267H.537z"/></symbol><use xlink:href="#n" transform="matrix(8.89038 0 0 -8.89038 17.645 81.678)"/><use xlink:href="#o" transform="matrix(8.89038 0 0 -8.89038 26.605 81.874)"/><use xlink:href="#p" transform="matrix(8.89038 0 0 -8.89038 36.068 81.709)"/><use xlink:href="#q" transform="matrix(8.89038 0 0 -8.89038 44.35 81.848)"/></g></g></g><g data-name="P"><clipPath id="r"><path transform="matrix(.49391 0 0 -.49391 37.502 324.715)" d="M-76.76 264.188h688.726v389.705H-76.76z"/></clipPath><g clip-path="url(#r)"><clipPath id="s"><path transform="matrix(.49391 0 0 -.49391 37.502 324.715)" d="M-116.289 145.608h733.32v566.88h-733.32z" fill-rule="evenodd"/></clipPath><g clip-path="url(#s)"><use xlink:href="#p" transform="matrix(8.89038 0 0 -8.89038 314.193 181.958)"/><use xlink:href="#q" transform="matrix(8.89038 0 0 -8.89038 322.475 182.097)"/></g></g></g><g data-name="P"><clipPath id="t"><path transform="matrix(.49391 0 0 -.49391 37.502 324.715)" d="M-76.76 264.188h688.726v389.705H-76.76z"/></clipPath><g clip-path="url(#t)"><clipPath id="u"><path transform="matrix(.49391 0 0 -.49391 37.502 324.715)" d="M-116.289 145.608h733.32v566.88h-733.32z" fill-rule="evenodd"/></clipPath><g clip-path="url(#u)"><symbol id="v"><path d="M.575.05A.17.17 0 0 0 .582.024C.583.016.582.01.578.007.575.004.568.002.56.001a.373.373 0 0 0-.077 0 .1.1 0 0 0-.02.002.02.02 0 0 0-.01.007.033.033 0 0 0-.006.01L.404.147H.167L.127.023A.039.039 0 0 0 .12.012a.021.021 0 0 0-.01-.008.46.46 0 0 0-.089-.003C.014.002.008.005.004.008.001.012 0 .018.001.024a.16.16 0 0 0 .007.028l.195.56c.002.006.004.01.007.013a.022.022 0 0 0 .012.008.65.65 0 0 0 .136 0C.365.632.37.63.372.625A.044.044 0 0 0 .38.611L.575.05m-.29.463L.194.246h.179l-.09.268z"/></symbol><use xlink:href="#v" transform="matrix(8.89038 0 0 -8.89038 331.231 180.812)"/></g></g></g><g data-name="P"><clipPath id="w"><path transform="matrix(.49391 0 0 -.49391 37.502 324.715)" d="M-76.76 264.188h688.726v389.705H-76.76z"/></clipPath><g clip-path="url(#w)"><path d="M293.66 15.247h23.934v-.751h-23.935zm0-1.502h23.934v-.75h-23.935z" fill="#00b050"/></g></g><g data-name="P"><clipPath id="x"><path transform="matrix(.49391 0 0 -.49391 37.502 324.715)" d="M-76.76 264.188h688.726v389.705H-76.76z"/></clipPath><g clip-path="url(#x)"><clipPath id="y"><path transform="matrix(.49391 0 0 -.49391 37.502 324.715)" d="M-116.289 145.608h733.32v566.88h-733.32z" fill-rule="evenodd"/></clipPath><g clip-path="url(#y)"><use xlink:href="#p" transform="matrix(10.84626 0 0 -10.84626 163.756 18.988)"/><use xlink:href="#q" transform="matrix(10.84626 0 0 -10.84626 173.861 19.158)"/></g></g></g><g data-name="P"><clipPath id="z"><path transform="matrix(.49391 0 0 -.49391 37.502 324.715)" d="M-76.76 264.188h688.726v389.705H-76.76z"/></clipPath><g clip-path="url(#z)"><clipPath id="A"><path transform="matrix(.49391 0 0 -.49391 37.502 324.715)" d="M-116.289 145.608h733.32v566.88h-733.32z" fill-rule="evenodd"/></clipPath><g clip-path="url(#A)"><symbol id="B"><path d="M.638.505a.248.248 0 0 1-.049.144.308.308 0 0 1-.255.115C.128.764 0 .617 0 .381 0 .146.127 0 .33 0c.182 0 .302.105.311.272H.495C.485.179.427.126.334.126.218.126.15.22.15.379c0 .161.071.257.189.257.087 0 .136-.042.156-.131h.143z"/></symbol><use xlink:href="#B" transform="matrix(10.84626 0 0 -10.84626 184.893 17.808)"/></g></g></g><g data-name="P"><clipPath id="C"><path transform="matrix(.49391 0 0 -.49391 37.502 324.715)" d="M-76.76 264.188h688.726v389.705H-76.76z"/></clipPath><g clip-path="url(#C)"><clipPath id="D"><path transform="matrix(.49391 0 0 -.49391 37.502 324.715)" d="M-116.289 145.608h733.32v566.88h-733.32z" fill-rule="evenodd"/></clipPath><g clip-path="url(#D)"><symbol id="E"><path d="M.285.367V.46A2.324 2.324 0 0 0 .35.452v.19a.735.735 0 0 1-.008.1.717.717 0 0 1 .103-.01H.53a3.068 3.068 0 0 1-.011.2L.621.92C.643.918.654.913.656.907.658.901.65.891.634.876.628.869.625.856.625.835A2.608 2.608 0 0 0 .623.732h.092c.017 0 .05.002.097.01A.699.699 0 0 1 .804.652V.451c.013 0 .04.002.08.008V.367a.529.529 0 0 1-.09.009H.652A.506.506 0 0 1 .916.079.223.223 0 0 1 .81 0a.805.805 0 0 0-.238.332.717.717 0 0 0-.284-.32.326.326 0 0 1-.102.081c.147.046.25.14.307.283H.382A.88.88 0 0 1 .285.367M.44.451h.073c.013.06.02.13.02.206H.438V.451m.168 0h.106v.206h-.09A1.668 1.668 0 0 0 .606.451M.104.132H0a1.87 1.87 0 0 1 .007.11v.5A.961.961 0 0 1 0 .845.628.628 0 0 1 .095.837H.18a.9.9 0 0 1 .098.008A1.639 1.639 0 0 1 .269.742V.266C.269.243.272.21.277.17H.172a.255.255 0 0 1 .007.06L.096.227c0-.017.002-.05.008-.096M.096.764V.576H.18v.188H.096m0-.261V.3H.18v.202H.096z"/></symbol><symbol id="F"><path d="M.023.313v.095C.067.403.099.401.118.4v.304a.797.797 0 0 1-.008.1.59.59 0 0 1 .097-.008c.019.05.032.091.041.125L.337.89C.35.884.358.878.358.871.36.865.353.86.34.853.33.85.32.84.312.821A.495.495 0 0 1 .3.796h.089c.037 0 .072.003.107.008A.976.976 0 0 1 .488.702V.125C.489.085.477.058.45.044A.389.389 0 0 0 .298.01a.614.614 0 0 1-.041.102C.3.107.332.105.349.105.384.104.4.115.398.139v.15A1.472 1.472 0 0 0 .1.026.678.678 0 0 1 0 .098a.742.742 0 0 1 .32.234L.124.323a1.395 1.395 0 0 1-.1-.01M.51.474l.075.053A2.52 2.52 0 0 0 .73.314v.26h-.12A.895.895 0 0 1 .51.563v.093a.923.923 0 0 1 .102-.01H.73v.147C.731.822.728.86.723.91L.828.894C.84.892.848.889.848.885A.036.036 0 0 0 .85.878C.85.873.845.866.836.858.826.853.822.834.823.798v-.15h.031a.6.6 0 0 1 .097.01V.564a.877.877 0 0 1-.097.008H.823V.105C.823.067.81.041.783.027A.374.374 0 0 0 .63 0a.437.437 0 0 1-.033.104.789.789 0 0 1 .099-.01C.72.091.732.1.73.12v.19L.654.254a1.35 1.35 0 0 1-.143.22M.209.464V.402l.189.006v.057H.209m0 .13V.537h.189v.056H.209m0 .127V.667h.189v.054H.209z"/></symbol><symbol id="G"><path d="M.476.462A3.66 3.66 0 0 0 .677.328v.126A1.84 1.84 0 0 1 .67.568L.774.555C.786.554.792.55.793.542.793.536.789.528.779.518.771.513.766.492.767.454V.098C.768.07.771.038.775 0H.67c.005.03.008.052.008.066L.117.051A.928.928 0 0 1 0 .038c.005.04.008.076.01.11v.311A2.81 2.81 0 0 1 0 .57L.106.556C.117.555.123.551.124.543.124.536.12.528.11.52A.028.028 0 0 1 .102.501.25.25 0 0 1 .099.46V.34c.054.022.13.07.227.143a.472.472 0 0 1 .01-.099A2.238 2.238 0 0 1 .144.251l-.045.05V.125l.578.016v.18L.624.251a1.64 1.64 0 0 1-.187.136V.28C.439.23.43.2.409.19.392.175.342.164.257.157a.258.258 0 0 1-.044.107C.27.257.303.254.316.254c.024 0 .035.01.033.031v.298C.35.6.347.63.342.671a.56.56 0 0 1 .164.09H.162A2.104 2.104 0 0 1 .048.751v.092C.081.84.118.837.162.835h.426C.625.836.67.84.72.846A1.207 1.207 0 0 0 .437.622V.406l.04.056m.16.106A1.893 1.893 0 0 0 .49.475a.438.438 0 0 1-.05.071c.047.02.111.064.192.13l.053-.06C.694.605.698.597.698.591L.697.587C.694.581.685.577.67.58A.05.05 0 0 1 .636.57M.162.655A4.24 4.24 0 0 0 .34.54L.286.47a1.595 1.595 0 0 1-.173.118l.05.07z"/></symbol><symbol id="H"><path d="M.613.275a.703.703 0 0 0-.096.243.53.53 0 0 1 .094.016.642.642 0 0 1 .053-.166C.688.422.707.51.72.63H.6a.96.96 0 0 0-.07-.103.674.674 0 0 1-.045.02.658.658 0 0 1-.055-.066 1.3 1.3 0 0 1-.104.1V.56c0-.025.003-.052.007-.083H.23a.884.884 0 0 1 .007.085V.58A.777.777 0 0 0 .08.428.326.326 0 0 1 0 .494C.086.538.15.59.19.648H.134C.107.648.074.645.033.64V.73C.077.724.11.722.133.721h.104v.105a3.822 3.822 0 0 1-.008.112L.322.923C.346.92.36.915.36.91V.907C.36.902.355.893.34.882.33.875.326.856.326.824V.721h.076L.5.73V.648a.667.667 0 0 1 .09.294l.112-.03C.712.908.716.903.715.896.715.891.71.885.7.88A.04.04 0 0 1 .68.855C.657.785.641.735.628.705h.182c.03.001.061.003.094.007v-.09A1.64 1.64 0 0 1 .811.63a.95.95 0 0 0-.09-.354A.618.618 0 0 1 .95.093.238.238 0 0 1 .856.01.649.649 0 0 0 .67.196.81.81 0 0 0 .454 0a.189.189 0 0 1-.083.071.174.174 0 0 1 .03.017.812.812 0 0 1-.084.04A.766.766 0 0 0 .093.01.418.418 0 0 1 .016.1c.09.005.162.027.214.065a1.532 1.532 0 0 1-.154.05c.028.038.05.074.066.108h-.03A1.78 1.78 0 0 1 .015.315v.09C.064.398.096.395.112.395h.065C.192.431.203.46.21.482L.297.453C.31.45.315.443.314.437.314.43.307.424.293.418A.024.024 0 0 1 .28.406L.275.396H.37c.04 0 .077.002.109.006A.766.766 0 0 0 .378.193L.46.16A.368.368 0 0 1 .43.104C.503.144.564.2.612.275M.437.91.504.858C.514.85.52.843.52.838a.01.01 0 0 0 0-.004C.517.828.508.824.49.822.486.822.478.816.466.802A2.79 2.79 0 0 0 .407.725a.533.533 0 0 1-.07.052.567.567 0 0 1 .1.133M.14.89A1.3 1.3 0 0 0 .217.78L.141.73a1.032 1.032 0 0 1-.075.12L.14.89M.238.323.201.255C.236.245.267.234.294.223a.465.465 0 0 1 .058.1H.238m.115.325A.957.957 0 0 0 .45.58c.017.02.032.04.045.06a1.375 1.375 0 0 1-.094.007H.353z"/></symbol><use xlink:href="#E" transform="matrix(10.84626 0 0 -10.84626 192.944 19.28)"/><use xlink:href="#F" transform="matrix(10.84626 0 0 -10.84626 203.24 19.084)"/><use xlink:href="#G" transform="matrix(10.84626 0 0 -10.84626 215.166 18.988)"/><use xlink:href="#H" transform="matrix(10.84626 0 0 -10.84626 225.255 19.248)"/></g></g></g><g data-name="P"><clipPath id="I"><path transform="matrix(.49391 0 0 -.49391 37.502 324.715)" d="M-76.76 264.188h688.726v389.705H-76.76z"/></clipPath><g clip-path="url(#I)"><clipPath id="J"><path transform="matrix(.49391 0 0 -.49391 37.502 324.715)" d="M-116.289 145.608h733.32v566.88h-733.32z" fill-rule="evenodd"/></clipPath><g clip-path="url(#J)"><symbol id="K"><path d="M.163.929C.048.755 0 .619 0 .465 0 .31.048.174.163 0h.1C.156.206.123.317.123.465c0 .147.034.26.14.464h-.1z"/></symbol><symbol id="L"><path d="M.15.314h.319v.125H.15v.165h.362v.125H0V0h.15v.314z"/></symbol><use xlink:href="#K" transform="matrix(10.84626 0 0 -10.84626 239.21 19.728)"/><use xlink:href="#L" transform="matrix(10.84626 0 0 -10.84626 243.194 17.558)"/></g></g></g><g data-name="P"><clipPath id="M"><path transform="matrix(.49391 0 0 -.49391 37.502 324.715)" d="M-76.76 264.188h688.726v389.705H-76.76z"/></clipPath><g clip-path="url(#M)"><clipPath id="N"><path transform="matrix(.49391 0 0 -.49391 37.502 324.715)" d="M-116.289 145.608h733.32v566.88h-733.32z" fill-rule="evenodd"/></clipPath><g clip-path="url(#N)"><use xlink:href="#B" transform="matrix(7.23084 0 0 -7.23084 249.347 20.392)"/></g></g></g><g data-name="P"><clipPath id="O"><path transform="matrix(.49391 0 0 -.49391 37.502 324.715)" d="M-76.76 264.188h688.726v389.705H-76.76z"/></clipPath><g clip-path="url(#O)"><clipPath id="P"><path transform="matrix(.49391 0 0 -.49391 37.502 324.715)" d="M-116.289 145.608h733.32v566.88h-733.32z" fill-rule="evenodd"/></clipPath><g clip-path="url(#P)"><symbol id="Q"><path d="M.1 0c.115.174.163.31.163.464C.263.619.215.755.1.929H0C.107.723.14.612.14.464.14.317.106.204 0 0h.1z"/></symbol><use xlink:href="#Q" transform="matrix(10.84626 0 0 -10.84626 254.484 19.728)"/></g></g></g><g data-name="P"><clipPath id="R"><path transform="matrix(.49391 0 0 -.49391 37.502 324.715)" d="M-76.76 264.188h688.726v389.705H-76.76z"/></clipPath><g clip-path="url(#R)"><path d="m171.86 128.826 140.8-46.901-.237-.707-140.8 46.897zm-.473-1.422 140.799-46.902-.237-.711-140.8 46.902z" fill="#00b050"/></g></g><g data-name="P"><clipPath id="S"><path transform="matrix(.49391 0 0 -.49391 37.502 324.715)" d="M-76.76 264.188h688.726v389.705H-76.76z"/></clipPath><g clip-path="url(#S)"><path stroke-width="2.2522295999999997" stroke-miterlimit="10" fill="none" stroke="#0070c0" d="m15.45 175.51 64.613-29.634"/></g></g><g data-name="P"><clipPath id="T"><path transform="matrix(.49391 0 0 -.49391 37.502 324.715)" d="M-76.76 264.188h688.726v389.705H-76.76z"/></clipPath><g clip-path="url(#T)"><clipPath id="U"><path transform="matrix(.49391 0 0 -.49391 37.502 324.715)" d="M-116.289 145.608h733.32v566.88h-733.32z" fill-rule="evenodd"/></clipPath><g clip-path="url(#U)"><use xlink:href="#p" transform="matrix(11.8657 0 0 -11.8657 22.625 130.124)"/><use xlink:href="#q" transform="matrix(11.8657 0 0 -11.8657 33.667 130.31)"/></g></g></g><g data-name="P"><clipPath id="V"><path transform="matrix(.49391 0 0 -.49391 37.502 324.715)" d="M-76.76 264.188h688.726v389.705H-76.76z"/></clipPath><g clip-path="url(#V)"><clipPath id="W"><path transform="matrix(.49391 0 0 -.49391 37.502 324.715)" d="M-116.289 145.608h733.32v566.88h-733.32z" fill-rule="evenodd"/></clipPath><g clip-path="url(#W)"><symbol id="X"><path d="M0 0h.328c.084 0 .14.016.184.053A.211.211 0 0 1 .584.21c0 .072-.038.129-.121.177.072.046.1.088.1.15a.19.19 0 0 1-.066.139C.454.713.403.729.325.729H0V0m.15.604h.163c.07 0 .106-.028.106-.082C.419.467.383.439.313.439H.15v.165m0-.29h.179C.402.314.44.282.44.219.44.157.402.125.329.125H.15v.189z"/></symbol><use xlink:href="#X" transform="matrix(11.8657 0 0 -11.8657 46.176 128.56)"/></g></g></g><g data-name="P"><clipPath id="Y"><path transform="matrix(.49391 0 0 -.49391 37.502 324.715)" d="M-76.76 264.188h688.726v389.705H-76.76z"/></clipPath><g clip-path="url(#Y)"><clipPath id="Z"><path transform="matrix(.49391 0 0 -.49391 37.502 324.715)" d="M-116.289 145.608h733.32v566.88h-733.32z" fill-rule="evenodd"/></clipPath><g clip-path="url(#Z)"><symbol id="aa"><path d="M.602.269A.623.623 0 0 0 .49 0a.306.306 0 0 1-.092.044C.479.12.521.239.522.397v.161a.495.495 0 0 1-.01.096.306.306 0 0 1 .091-.012h.169c.029 0 .06.004.093.01A.408.408 0 0 1 .854.56V.132C.858.068.832.032.777.024A.867.867 0 0 0 .657.01a.254.254 0 0 1-.06.11.549.549 0 0 1 .108-.017c.025 0 .042.003.048.01.008.005.011.018.011.04v.116H.602M.211.271A.638.638 0 0 0 .102.012.638.638 0 0 1 0 .046c.088.079.13.193.128.342v.165a.46.46 0 0 1-.01.1A.477.477 0 0 1 .213.64h.159C.4.641.43.645.463.652a.598.598 0 0 1-.01-.097V.161C.455.113.431.084.382.074A.996.996 0 0 0 .279.06a.193.193 0 0 1-.042.1.941.941 0 0 1 .09-.007c.016 0 .027.002.032.006.005.002.007.01.006.023v.089H.211m.01.518V.777h.216v.054c0 .04-.003.079-.01.113L.532.928C.545.926.553.922.556.916a.01.01 0 0 0 0-.003C.556.907.552.9.544.895.532.888.526.867.527.831V.777h.22v.019a1.064 1.064 0 0 1-.011.106l.1-.015C.853.885.86.882.862.88A.036.036 0 0 0 .862.872C.862.866.857.86.847.852.84.848.835.83.835.796V.79c0-.025.003-.057.01-.095a.778.778 0 0 1-.106.01H.227A.525.525 0 0 1 .122.692c.006.04.009.07.009.09V.79a.966.966 0 0 1-.009.108L.223.881C.236.88.243.876.245.873A.034.034 0 0 0 .246.865C.246.86.241.853.232.846.227.843.224.838.222.831A.287.287 0 0 1 .22.79M.61.42V.343h.154V.42H.61m0 .15V.492h.154V.57H.61M.217.421V.345h.148v.076H.217m0 .073h.148v.074H.217V.494z"/></symbol><symbol id="ab"><path d="M.836.633a2.043 2.043 0 0 0-.098.008H.619V.593h.197c.042.002.078.005.106.01V.508C.882.514.847.516.816.52H.345a1.686 1.686 0 0 1-.102-.01v.093C.273.598.308.595.345.593H.53v.048H.432A1.482 1.482 0 0 1 .33.633c.004.034.007.065.008.092v.031A1.133 1.133 0 0 1 .329.85l.1-.009h.102v.007a2.821 2.821 0 0 1-.008.095L.63.928C.643.926.65.921.65.914.65.906.644.898.632.889.623.883.619.867.619.841h.116c.032.002.066.005.1.01A1.267 1.267 0 0 1 .829.755v-.03C.83.698.832.667.836.633M.643.244a1.711 1.711 0 0 0 .095-.06c.005.048.007.078.007.09V.4H.42V.25C.42.224.423.193.427.155H.323C.327.19.33.221.33.25v.132l-.008.1A.932.932 0 0 1 .429.471h.31c.036.001.07.004.103.008A2.21 2.21 0 0 1 .834.384v-.11c0-.02.003-.05.007-.094h-.1C.805.14.855.103.892.073L.834 0C.762.061.68.12.588.177l.055.067M.521.371l.1-.015C.634.354.642.35.644.342.645.336.64.328.627.32.617.314.612.305.61.291.597.164.499.068.315.001A.29.29 0 0 1 .24.086c.108.02.183.052.225.097.021.024.036.05.045.08A.346.346 0 0 1 .52.37M.033.077.019.085C.068.152.131.274.21.451A.248.248 0 0 1 .266.348 4.19 4.19 0 0 1 .118.036L.033.077m.035.75.051.07C.205.832.264.788.295.762L.237.69a1.226 1.226 0 0 1-.17.137M0 .591l.043.07C.106.625.167.584.226.537L.171.461A1.16 1.16 0 0 1 0 .591m.62.177V.712h.12v.056H.62m-.195 0V.712H.53v.056H.425z"/></symbol><use xlink:href="#aa" transform="matrix(11.8657 0 0 -11.8657 54.01 130.431)"/><use xlink:href="#ab" transform="matrix(11.8657 0 0 -11.8657 66.055 130.373)"/></g></g></g><g data-name="P"><clipPath id="ac"><path transform="matrix(.49391 0 0 -.49391 37.502 324.715)" d="M-76.76 264.188h688.726v389.705H-76.76z"/></clipPath><g clip-path="url(#ac)"><clipPath id="ad"><path transform="matrix(.49391 0 0 -.49391 37.502 324.715)" d="M-116.289 145.608h733.32v566.88h-733.32z" fill-rule="evenodd"/></clipPath><g clip-path="url(#ad)"><symbol id="ae"><path d="M.287.552H.209v.145h-.14V.552H0V.459h.069V.127C.069.042.114 0 .206 0c.032 0 .055.003.081.011v.098C.273.107.266.106.255.106.218.106.209.117.209.165v.294h.078v.093z"/></symbol><use xlink:href="#ae" transform="matrix(13.82158 0 0 -13.82158 77.792 186.487)"/></g></g></g><g data-name="P"><clipPath id="af"><path transform="matrix(.49391 0 0 -.49391 37.502 324.715)" d="M-76.76 264.188h688.726v389.705H-76.76z"/></clipPath><g clip-path="url(#af)"><clipPath id="ag"><path transform="matrix(.49391 0 0 -.49391 37.502 324.715)" d="M-116.289 145.608h733.32v566.88h-733.32z" fill-rule="evenodd"/></clipPath><g clip-path="url(#ag)"><symbol id="ah"><path d="M.17.489V0h.14v.709H.217C.195.625.122.582 0 .582V.489h.17z"/></symbol><use xlink:href="#ah" transform="matrix(9.25785 0 0 -9.25785 82.85 189.548)"/></g></g></g><g data-name="P"><clipPath id="ai"><path transform="matrix(.49391 0 0 -.49391 37.502 324.715)" d="M-76.76 264.188h688.726v389.705H-76.76z"/></clipPath><g clip-path="url(#ai)"><clipPath id="aj"><path transform="matrix(.49391 0 0 -.49391 37.502 324.715)" d="M-116.289 145.608h733.32v566.88h-733.32z" fill-rule="evenodd"/></clipPath><g clip-path="url(#aj)"><use xlink:href="#ae" transform="matrix(13.82158 0 0 -13.82158 167.93 186.487)"/></g></g></g><g data-name="P"><clipPath id="ak"><path transform="matrix(.49391 0 0 -.49391 37.502 324.715)" d="M-76.76 264.188h688.726v389.705H-76.76z"/></clipPath><g clip-path="url(#ak)"><clipPath id="al"><path transform="matrix(.49391 0 0 -.49391 37.502 324.715)" d="M-116.289 145.608h733.32v566.88h-733.32z" fill-rule="evenodd"/></clipPath><g clip-path="url(#al)"><symbol id="am"><path d="M.482.125H.181C.2.163.222.184.326.259c.123.09.159.143.159.24C.485.636.39.724.242.724.095.724.009.637.009.487V.462h.135v.023c0 .079.037.125.101.125.062 0 .1-.043.1-.114C.345.417.321.388.163.276.043.194.006.132 0 0h.482v.125z"/></symbol><use xlink:href="#am" transform="matrix(9.25785 0 0 -9.25785 172.637 189.548)"/></g></g></g><g data-name="P"><clipPath id="an"><path transform="matrix(.49391 0 0 -.49391 37.502 324.715)" d="M-76.76 264.188h688.726v389.705H-76.76z"/></clipPath><g clip-path="url(#an)"><clipPath id="ao"><path transform="matrix(.49391 0 0 -.49391 37.502 324.715)" d="M-116.289 145.608h733.32v566.88h-733.32z" fill-rule="evenodd"/></clipPath><g clip-path="url(#ao)"><use xlink:href="#ae" transform="matrix(13.80972 0 0 -13.80972 285.565 186.862)"/></g></g></g><g data-name="P"><clipPath id="ap"><path transform="matrix(.49391 0 0 -.49391 37.502 324.715)" d="M-76.76 264.188h688.726v389.705H-76.76z"/></clipPath><g clip-path="url(#ap)"><clipPath id="aq"><path transform="matrix(.49391 0 0 -.49391 37.502 324.715)" d="M-116.289 145.608h733.32v566.88h-733.32z" fill-rule="evenodd"/></clipPath><g clip-path="url(#aq)"><symbol id="ar"><path d="M.188.34C.242.34.245.34.27.333A.105.105 0 0 0 .347.227C.347.164.303.12.242.12.176.12.14.158.136.231H0C.001.089.093 0 .239 0 .39 0 .487.089.487.227.487.31.451.364.371.403c.065.041.093.086.093.151 0 .118-.088.193-.225.193C.136.747.057.702.026.625A.275.275 0 0 1 .009.509h.13A.21.21 0 0 0 .15.584c.013.031.045.05.086.05C.292.634.324.6.324.541.324.469.283.434.2.434H.188V.34z"/></symbol><use xlink:href="#ar" transform="matrix(9.246 0 0 -9.246 290.262 190.136)"/></g></g></g><g data-name="P"><clipPath id="as"><path transform="matrix(.49391 0 0 -.49391 37.502 324.715)" d="M-76.76 264.188h688.726v389.705H-76.76z"/></clipPath><g clip-path="url(#as)"><path d="M84.439 83.94h83.994v1.481H84.44zm.736 2.963-4.436-2.227 4.436-2.218zm82.517-4.445 4.445 2.218-4.445 2.227z"/></g></g><g data-name="P"><clipPath id="at"><path transform="matrix(.49391 0 0 -.49391 37.502 324.715)" d="M-76.76 264.188h688.726v389.705H-76.76z"/></clipPath><g clip-path="url(#at)"><clipPath id="au"><path transform="matrix(.49391 0 0 -.49391 37.502 324.715)" d="M-116.289 145.608h733.32v566.88h-733.32z" fill-rule="evenodd"/></clipPath><g clip-path="url(#au)"><symbol id="av"><path d="M.024.426a.565.565 0 0 1 .269.198L.38.574C.39.567.393.562.393.556L.392.552C.388.545.38.54.367.538A.086.086 0 0 1 .318.512 1.457 1.457 0 0 0 .13.37.966.966 0 0 1 .226.362h.427c.021 0 .052.003.092.01V.276a.58.58 0 0 1-.092.01H.481V.083h.273a.81.81 0 0 1 .103.008V0a.858.858 0 0 1-.103.01H.098A.941.941 0 0 1 0 0v.091A.958.958 0 0 1 .098.083h.293v.204H.226A.93.93 0 0 1 .127.278v.09A.213.213 0 0 1 .104.354a.515.515 0 0 1-.08.072m.11.108H.028a.699.699 0 0 1 .008.091v.02c0 .024-.003.057-.008.1C.076.741.115.738.146.737h.282A1.791 1.791 0 0 1 .31.83l.065.064C.433.853.48.817.518.785L.47.737h.236c.033 0 .073.003.12.008A.918.918 0 0 1 .817.647V.631C.817.606.82.576.825.542H.72a.649.649 0 0 1 .007.09v.03h-.6V.625c0-.022.002-.052.008-.09m.35.018.054.072C.64.565.738.501.832.431L.776.358a2.188 2.188 0 0 1-.292.195z"/></symbol><symbol id="aw"><path d="M.62.297A.535.535 0 0 0 .389 0a.28.28 0 0 1-.086.068c.03.013.062.031.095.055H.315l.004.034L.145.142a.555.555 0 0 1-.112-.02.54.54 0 0 1 .01.096v.123c0 .03-.002.064-.006.1L.127.43C.148.427.158.424.159.42A.063.063 0 0 0 .16.414C.16.405.152.398.138.389.132.386.128.376.128.36V.21l.053.005v.285H.094A1.505 1.505 0 0 1 .003.491v.091A.355.355 0 0 1 .096.57H.18v.14H.145a1.144 1.144 0 0 0-.05-.09A.351.351 0 0 1 0 .651c.064.07.11.168.14.297L.225.917C.242.91.25.904.252.897.254.893.247.886.232.878A.044.044 0 0 1 .212.853 1.21 1.21 0 0 0 .18.783h.117l.09.006V.706a1.255 1.255 0 0 1-.09.005H.269V.57H.33c.02 0 .05.002.09.008V.493a.514.514 0 0 1 .07-.006h.077v.191H.525a.624.624 0 0 1-.091-.01v.09A.582.582 0 0 1 .528.75h.04v.089C.568.87.565.907.56.944L.671.93C.688.927.695.922.697.916.696.908.69.9.676.892.665.883.659.865.659.838V.749h.098c.024 0 .058.003.102.01A.69.69 0 0 1 .844.676L.83.488h.022C.867.49.892.492.93.5V.408a.806.806 0 0 1-.092.008h-.18A.587.587 0 0 1 .956.092a.257.257 0 0 1-.088-.08.892.892 0 0 0-.248.285M.497.416A.787.787 0 0 1 .433.411C.433.404.426.396.412.385.408.383.407.375.407.362V.226c0-.03.002-.06.006-.09.08.072.13.165.149.28H.497M.395.427a.025.025 0 0 1 .008 0v.066A.542.542 0 0 1 .335.5H.269V.221L.32.226v.106C.32.361.318.396.313.439L.395.427m.36.251H.659v-.19h.084l.014.19z"/></symbol><symbol id="ax"><path d="M.269.564c.14.089.234.214.284.374L.636.916C.66.909.673.902.674.895.675.888.666.878.645.867a.483.483 0 0 1 .291-.28.152.152 0 0 1-.084-.082.731.731 0 0 0-.26.28.997.997 0 0 0-.24-.29.216.216 0 0 1-.083.069M.25.069C.375.13.436.245.43.41.43.447.429.493.423.546L.518.534C.54.53.551.528.552.524A.029.029 0 0 0 .554.517C.554.51.546.501.53.491.525.486.522.479.522.467V.4C.523.224.46.091.336 0A.217.217 0 0 1 .25.069m.397.477.09-.013C.76.529.772.526.773.523A.024.024 0 0 0 .774.515C.774.51.767.501.752.49.747.487.744.473.745.447V.1A.57.57 0 0 1 .753.006H.647A.77.77 0 0 1 .655.1v.337a1.748 1.748 0 0 1-.008.108M.001.88A.824.824 0 0 1 .12.868h.14c.041 0 .083.003.127.01A3.807 3.807 0 0 0 .22.556C.295.474.334.396.336.324.335.24.266.187.128.164a.214.214 0 0 1-.03.077V.103C.098.083.1.05.106.007H0a.81.81 0 0 1 .008.095v.675A.703.703 0 0 1 0 .88M.098.795V.274A.41.41 0 0 1 .15.267c.057.002.086.027.089.075C.237.399.195.468.112.549c.052.08.095.163.129.246H.098z"/></symbol><symbol id="ay"><path d="M.6.803V.774a.34.34 0 0 0-.142-.28L.475.491A.584.584 0 0 1 .513.49h.253a.743.743 0 0 1 .111.009A1.484 1.484 0 0 0 .716.224.764.764 0 0 1 .969.09.227.227 0 0 1 .894.003a1.065 1.065 0 0 0-.237.161A.952.952 0 0 0 .386 0a.218.218 0 0 1-.074.089c.115.02.21.064.283.134a.787.787 0 0 0-.11.191.77.77 0 0 1-.068-.01v.094c.004 0 .01 0 .016-.002A.345.345 0 0 1 .457.493a.198.198 0 0 1-.08.072c.085.031.128.105.13.22 0 .023-.003.057-.008.102l.1-.01h.109c.032.002.065.005.1.01a.88.88 0 0 1-.01-.102V.65C.799.627.81.617.835.617c.02 0 .058.008.113.023A.395.395 0 0 1 .919.535 1.158 1.158 0 0 0 .837.531C.787.53.753.538.735.552.717.566.708.592.71.631v.172h-.11M0 .228c.032.003.065.008.1.014v.493A.805.805 0 0 1 .091.85c.11.011.204.036.28.075L.426.859C.436.849.44.84.44.833.44.831.44.828.437.826.434.82.427.819.42.819L.4.822a.036.036 0 0 1-.01.001.146.146 0 0 1-.035-.005A2.445 2.445 0 0 0 .19.788V.672h.104C.31.673.339.675.383.68V.59a.878.878 0 0 1-.091.01H.19v-.12h.094c.02 0 .053.002.096.008V.396a.76.76 0 0 1-.095.008H.19V.26c.085.02.163.044.233.07l-.009-.1A4.342 4.342 0 0 1 .19.179V.111C.19.09.193.054.198.004H.09C.096.055.099.09.099.11v.036L.041.123 0 .228m.732.187H.579A.69.69 0 0 1 .654.286c.03.039.057.082.078.129z"/></symbol><use xlink:href="#av" transform="matrix(11.85384 0 0 -11.85384 102.385 79.801)"/><use xlink:href="#aw" transform="matrix(11.85384 0 0 -11.85384 113.805 80.31)"/><use xlink:href="#ax" transform="matrix(11.85384 0 0 -11.85384 125.943 80.2)"/><use xlink:href="#ay" transform="matrix(11.85384 0 0 -11.85384 137.357 80.12)"/></g></g></g><g data-name="P"><clipPath id="az"><path transform="matrix(.49391 0 0 -.49391 37.502 324.715)" d="M-76.76 264.188h688.726v389.705H-76.76z"/></clipPath><g clip-path="url(#az)"><path d="M175.832 83.94h110.967v1.481H175.832zm.736 2.963-4.436-2.227 4.436-2.218zm109.49-4.445 4.445 2.218-4.445 2.227z"/></g></g><g data-name="P"><clipPath id="aA"><path transform="matrix(.49391 0 0 -.49391 37.502 324.715)" d="M-76.76 264.188h688.726v389.705H-76.76z"/></clipPath><g clip-path="url(#aA)"><clipPath id="aB"><path transform="matrix(.49391 0 0 -.49391 37.502 324.715)" d="M-116.289 145.608h733.32v566.88h-733.32z" fill-rule="evenodd"/></clipPath><g clip-path="url(#aB)"><symbol id="aC"><path d="M.082.42h.32V.8H.166A.62.62 0 0 1 .068.793v.096a.888.888 0 0 1 .097-.01h.567a.47.47 0 0 1 .08.01V.792a.664.664 0 0 1-.08.009H.496V.42H.81c.016 0 .044.002.083.008V.335a.583.583 0 0 1-.082.009H.495V.087A.386.386 0 0 1 .504 0h-.11a.543.543 0 0 1 .009.087v.257H.084A.545.545 0 0 1 0 .334V.43A.566.566 0 0 1 .082.42m.187.04C.222.55.169.632.112.705l.082.05A2.22 2.22 0 0 0 .355.513L.269.46M.527.51c.072.087.126.173.162.259L.776.718C.789.71.796.702.794.695.793.687.784.682.77.679.76.677.751.669.743.653A1.866 1.866 0 0 0 .617.462L.527.51z"/></symbol><symbol id="aD"><path d="M.252.63C.302.627.334.624.348.624v.18L.341.898C.383.894.42.892.447.89h.244c.032 0 .072.003.12.007A1.63 1.63 0 0 1 .801.803v-.18h.004c.013 0 .047.003.101.008A1.018 1.018 0 0 1 .9.549V.542A.75.75 0 0 1 .91.46h-.1A.956.956 0 0 1 .804.409V.1C.806.067.797.045.775.033A.383.383 0 0 0 .641 0a.276.276 0 0 1-.06.1.987.987 0 0 1 .091-.005C.69.095.701.097.706.1c.005.003.008.01.007.022v.054H.441v-.05L.45.008H.342C.347.057.35.097.35.128V.41a.476.476 0 0 1-.003.045H.252A.836.836 0 0 1 .26.54v.01C.26.57.257.598.252.632M.208.478C.234.423.256.39.272.378A87.54 87.54 0 0 0 .18.168L.115.02.018.084c.063.092.127.223.19.394m.504.145v.193H.437V.764h.094l.11.007A1.699 1.699 0 0 1 .631.678V.623h.08M.348.533A.387.387 0 0 1 .35.504L.448.496h.257C.723.496.757.5.806.503L.81.542V.55H.35V.534m-.233.37C.15.882.21.837.294.77L.234.691a1.777 1.777 0 0 1-.178.145l.06.069M0 .6l.06.07C.107.639.164.596.23.544L.175.466C.113.52.055.566 0 .6M.441.425V.368h.272v.057H.441m0-.128V.248h.272v.049H.441M.437.693v-.07h.107v.07H.437z"/></symbol><use xlink:href="#aC" transform="matrix(11.8657 0 0 -11.8657 210.912 79.773)"/><use xlink:href="#aD" transform="matrix(11.8657 0 0 -11.8657 222.488 79.715)"/><use xlink:href="#ax" transform="matrix(11.8657 0 0 -11.8657 234.667 79.773)"/><use xlink:href="#ay" transform="matrix(11.8657 0 0 -11.8657 246.092 79.692)"/></g></g></g><g data-name="P"><clipPath id="aE"><path transform="matrix(.49391 0 0 -.49391 37.502 324.715)" d="M-76.76 264.188h688.726v389.705H-76.76z"/></clipPath><g clip-path="url(#aE)"><path stroke-width="2.2522295999999997" stroke-linecap="square" stroke-linejoin="round" fill="none" stroke="#0070c0" d="M132.684 13.765h23.935"/></g></g><g data-name="P"><clipPath id="aF"><path transform="matrix(.49391 0 0 -.49391 37.502 324.715)" d="M-76.76 264.188h688.726v389.705H-76.76z"/></clipPath><g clip-path="url(#aF)"><clipPath id="aG"><path transform="matrix(.49391 0 0 -.49391 37.502 324.715)" d="M-116.289 145.608h733.32v566.88h-733.32z" fill-rule="evenodd"/></clipPath><g clip-path="url(#aG)"><use xlink:href="#p" transform="matrix(10.84626 0 0 -10.84626 8.884 18.87)"/><use xlink:href="#q" transform="matrix(10.84626 0 0 -10.84626 18.989 19.04)"/></g></g></g><g data-name="P"><clipPath id="aH"><path transform="matrix(.49391 0 0 -.49391 37.502 324.715)" d="M-76.76 264.188h688.726v389.705H-76.76z"/></clipPath><g clip-path="url(#aH)"><clipPath id="aI"><path transform="matrix(.49391 0 0 -.49391 37.502 324.715)" d="M-116.289 145.608h733.32v566.88h-733.32z" fill-rule="evenodd"/></clipPath><g clip-path="url(#aI)"><use xlink:href="#X" transform="matrix(10.84626 0 0 -10.84626 30.435 17.44)"/></g></g></g><g data-name="P"><clipPath id="aJ"><path transform="matrix(.49391 0 0 -.49391 37.502 324.715)" d="M-76.76 264.188h688.726v389.705H-76.76z"/></clipPath><g clip-path="url(#aJ)"><clipPath id="aK"><path transform="matrix(.49391 0 0 -.49391 37.502 324.715)" d="M-116.289 145.608h733.32v566.88h-733.32z" fill-rule="evenodd"/></clipPath><g clip-path="url(#aK)"><use xlink:href="#E" transform="matrix(10.84626 0 0 -10.84626 38.074 19.16)"/><use xlink:href="#F" transform="matrix(10.84626 0 0 -10.84626 48.37 18.965)"/><use xlink:href="#G" transform="matrix(10.84626 0 0 -10.84626 60.296 18.87)"/><use xlink:href="#H" transform="matrix(10.84626 0 0 -10.84626 70.385 19.13)"/></g></g></g><g data-name="P"><clipPath id="aL"><path transform="matrix(.49391 0 0 -.49391 37.502 324.715)" d="M-76.76 264.188h688.726v389.705H-76.76z"/></clipPath><g clip-path="url(#aL)"><clipPath id="aM"><path transform="matrix(.49391 0 0 -.49391 37.502 324.715)" d="M-116.289 145.608h733.32v566.88h-733.32z" fill-rule="evenodd"/></clipPath><g clip-path="url(#aM)"><use xlink:href="#K" transform="matrix(10.84626 0 0 -10.84626 84.34 19.609)"/><use xlink:href="#L" transform="matrix(10.84626 0 0 -10.84626 88.323 17.44)"/></g></g></g><g data-name="P"><clipPath id="aN"><path transform="matrix(.49391 0 0 -.49391 37.502 324.715)" d="M-76.76 264.188h688.726v389.705H-76.76z"/></clipPath><g clip-path="url(#aN)"><clipPath id="aO"><path transform="matrix(.49391 0 0 -.49391 37.502 324.715)" d="M-116.289 145.608h733.32v566.88h-733.32z" fill-rule="evenodd"/></clipPath><g clip-path="url(#aO)"><use xlink:href="#X" transform="matrix(7.23084 0 0 -7.23084 94.752 20.107)"/></g></g></g><g data-name="P"><clipPath id="aP"><path transform="matrix(.49391 0 0 -.49391 37.502 324.715)" d="M-76.76 264.188h688.726v389.705H-76.76z"/></clipPath><g clip-path="url(#aP)"><clipPath id="aQ"><path transform="matrix(.49391 0 0 -.49391 37.502 324.715)" d="M-116.289 145.608h733.32v566.88h-733.32z" fill-rule="evenodd"/></clipPath><g clip-path="url(#aQ)"><use xlink:href="#Q" transform="matrix(10.84626 0 0 -10.84626 99.613 19.609)"/></g></g></g><g data-name="P"><clipPath id="aR"><path transform="matrix(.49391 0 0 -.49391 37.502 324.715)" d="M-76.76 264.188h688.726v389.705H-76.76z"/></clipPath><g clip-path="url(#aR)"><path stroke-width="2.2522295999999997" stroke-dasharray="2.2522295999999997,2.2522295999999997" stroke-miterlimit="8" fill="none" stroke="#ffc000" d="M132.684 29.946h23.935"/></g></g><g data-name="P"><clipPath id="aS"><path transform="matrix(.49391 0 0 -.49391 37.502 324.715)" d="M-76.76 264.188h688.726v389.705H-76.76z"/></clipPath><g clip-path="url(#aS)"><clipPath id="aT"><path transform="matrix(.49391 0 0 -.49391 37.502 324.715)" d="M-116.289 145.608h733.32v566.88h-733.32z" fill-rule="evenodd"/></clipPath><g clip-path="url(#aT)"><use xlink:href="#p" transform="matrix(10.84626 0 0 -10.84626 8.884 36.295)"/><use xlink:href="#q" transform="matrix(10.84626 0 0 -10.84626 18.989 36.464)"/></g></g></g><g data-name="P"><clipPath id="aU"><path transform="matrix(.49391 0 0 -.49391 37.502 324.715)" d="M-76.76 264.188h688.726v389.705H-76.76z"/></clipPath><g clip-path="url(#aU)"><clipPath id="aV"><path transform="matrix(.49391 0 0 -.49391 37.502 324.715)" d="M-116.289 145.608h733.32v566.88h-733.32z" fill-rule="evenodd"/></clipPath><g clip-path="url(#aV)"><use xlink:href="#X" transform="matrix(10.84626 0 0 -10.84626 30.435 34.865)"/></g></g></g><g data-name="P"><clipPath id="aW"><path transform="matrix(.49391 0 0 -.49391 37.502 324.715)" d="M-76.76 264.188h688.726v389.705H-76.76z"/></clipPath><g clip-path="url(#aW)"><clipPath id="aX"><path transform="matrix(.49391 0 0 -.49391 37.502 324.715)" d="M-116.289 145.608h733.32v566.88h-733.32z" fill-rule="evenodd"/></clipPath><g clip-path="url(#aX)"><symbol id="aY"><path d="M.288.373C.322.323.353.271.383.219v.093a1.975 1.975 0 0 1-.007.103L.464.399C.487.395.499.39.5.385V.383C.501.377.495.368.481.355.475.35.471.337.472.315V.105h.08v.193L.542.4C.496.4.465.408.45.419.434.431.426.452.426.485v.017L.323.491A.834.834 0 0 1 .224.468L.218.515C.218.38.211.279.193.21A.595.595 0 0 0 .096 0 .203.203 0 0 1 0 .044c.085.083.127.222.126.419v.161c0 .018-.003.051-.008.1L.23.717h.188v.109c0 .02-.003.053-.008.096L.508.906C.53.903.542.899.542.894L.543.892C.543.887.536.88.522.868A.038.038 0 0 1 .512.84V.826H.71c.026 0 .058.003.094.008V.747A1.59 1.59 0 0 1 .71.755H.511V.717H.79c.03 0 .07.004.121.011A4.294 4.294 0 0 0 .844.607h.001L.823.568a.467.467 0 0 1-.068.009.253.253 0 0 1 .08-.051C.825.477.808.446.786.432.765.416.725.406.663.402A.862.862 0 0 0 .562.4H.558L.64.389C.655.386.664.383.665.379A.031.031 0 0 0 .667.37C.667.363.66.356.65.35.642.343.639.329.639.305V.193c.052.07.09.134.115.19L.827.338C.842.328.848.32.847.314.846.308.837.302.82.296.809.292.795.275.776.245a1.965 1.965 0 0 0-.065-.1.266.266 0 0 1-.072.04V.104h.168L.9.112v-.09a3.56 3.56 0 0 0-.092.009H.26L.168.024v.088C.211.107.242.105.261.104h.122v.079L.318.14a1.974 1.974 0 0 1-.106.184l.076.049m-.07.271V.562A.24.24 0 0 1 .26.559h.004L.293.56l.133.012v.003a.857.857 0 0 1-.005.069H.218m.552 0H.54C.542.642.544.64.544.637.545.631.538.622.522.61.52.607.518.602.518.596V.583L.64.595c.03.004.062.01.095.02L.736.59.77.644M.6.473a.29.29 0 0 1 .099.01c.018.007.03.021.037.043a1.984 1.984 0 0 1-.154-.01A1.946 1.946 0 0 0 .517.51V.506C.517.489.52.48.53.477a.752.752 0 0 1 .07-.004m.149.104H.737L.74.537a.764.764 0 0 1 .008.04z"/></symbol><symbol id="aZ"><path d="M.347.201c.01.01.018.02.021.03A.15.15 0 0 1 .374.28v.393C.374.704.371.743.366.79L.47.774C.484.772.492.767.494.76.495.753.49.745.477.736A.027.027 0 0 1 .465.718.262.262 0 0 1 .463.674V.306c.046.048.092.098.136.15A.43.43 0 0 1 .61.333 1.603 1.603 0 0 1 .415.116L.347.201m.403.01A.75.75 0 0 0 .545 0a.26.26 0 0 1-.09.07C.567.133.64.2.675.272c.036.069.054.18.053.334C.728.7.724.784.718.86L.83.847C.844.846.852.841.854.833.855.826.85.818.838.81A.037.037 0 0 1 .823.786.234.234 0 0 1 .82.733V.676C.82.513.81.386.79.298.845.234.896.173.94.118L.866.047A1.786 1.786 0 0 1 .75.21M.452.893l.085.038C.59.834.633.75.67.674L.574.631a2.23 2.23 0 0 1-.122.262m-.3-.432v.173h-.04C.097.634.065.632.015.626v.092A.893.893 0 0 1 .112.71h.04V.8c0 .03-.003.073-.008.128L.25.911C.266.91.275.904.276.896.278.89.272.882.26.872.252.868.248.861.246.85A.243.243 0 0 1 .242.8V.71h.003c.02 0 .052.002.097.008V.626a.906.906 0 0 1-.097.008H.242V.506c.029.019.06.041.095.068A.939.939 0 0 1 .329.46.926.926 0 0 1 .242.415v-.28C.243.091.233.063.211.05.19.036.142.026.066.02a.403.403 0 0 1-.038.105.986.986 0 0 1 .099-.01C.146.114.154.123.152.143V.37A.895.895 0 0 1 .063.311L0 .406a.768.768 0 0 1 .152.055z"/></symbol><use xlink:href="#aY" transform="matrix(10.84626 0 0 -10.84626 37.846 36.496)"/><use xlink:href="#aZ" transform="matrix(10.84626 0 0 -10.84626 48.464 36.533)"/><use xlink:href="#E" transform="matrix(10.84626 0 0 -10.84626 59.766 36.586)"/><use xlink:href="#F" transform="matrix(10.84626 0 0 -10.84626 70.062 36.39)"/><use xlink:href="#G" transform="matrix(10.84626 0 0 -10.84626 81.988 36.295)"/><use xlink:href="#H" transform="matrix(10.84626 0 0 -10.84626 92.077 36.554)"/></g></g></g><g data-name="P"><clipPath id="ba"><path transform="matrix(.49391 0 0 -.49391 37.502 324.715)" d="M-76.76 264.188h688.726v389.705H-76.76z"/></clipPath><g clip-path="url(#ba)"><clipPath id="bb"><path transform="matrix(.49391 0 0 -.49391 37.502 324.715)" d="M-116.289 145.608h733.32v566.88h-733.32z" fill-rule="evenodd"/></clipPath><g clip-path="url(#bb)"><symbol id="bc"><path d="m.373 0 .25.729H.472L.313.18.151.729H0L.246 0h.127z"/></symbol><use xlink:href="#K" transform="matrix(10.84626 0 0 -10.84626 106.091 37.034)"/><use xlink:href="#bc" transform="matrix(10.84626 0 0 -10.84626 109.533 34.865)"/></g></g></g><g data-name="P"><clipPath id="bd"><path transform="matrix(.49391 0 0 -.49391 37.502 324.715)" d="M-76.76 264.188h688.726v389.705H-76.76z"/></clipPath><g clip-path="url(#bd)"><clipPath id="be"><path transform="matrix(.49391 0 0 -.49391 37.502 324.715)" d="M-116.289 145.608h733.32v566.88h-733.32z" fill-rule="evenodd"/></clipPath><g clip-path="url(#be)"><use xlink:href="#X" transform="matrix(7.23084 0 0 -7.23084 117.096 37.532)"/></g></g></g><g data-name="P"><clipPath id="bf"><path transform="matrix(.49391 0 0 -.49391 37.502 324.715)" d="M-76.76 264.188h688.726v389.705H-76.76z"/></clipPath><g clip-path="url(#bf)"><clipPath id="bg"><path transform="matrix(.49391 0 0 -.49391 37.502 324.715)" d="M-116.289 145.608h733.32v566.88h-733.32z" fill-rule="evenodd"/></clipPath><g clip-path="url(#bg)"><use xlink:href="#Q" transform="matrix(10.84626 0 0 -10.84626 121.958 37.034)"/></g></g></g><g data-name="P"><clipPath id="bh"><path transform="matrix(.49391 0 0 -.49391 37.502 324.715)" d="M-76.76 264.188h688.726v389.705H-76.76z"/></clipPath><g clip-path="url(#bh)"><path d="M293.66 32.198h6.756v-.751h-6.757zm0-1.502h6.756v-.75h-6.757zm9.008 1.502h6.757v-.751h-6.757zm0-1.502h6.757v-.75h-6.757zm9.009 1.502h5.917v-.751h-5.917zm0-1.502h5.917v-.75h-5.917z" fill="#ed7d31"/></g></g><g data-name="P"><clipPath id="bi"><path transform="matrix(.49391 0 0 -.49391 37.502 324.715)" d="M-76.76 264.188h688.726v389.705H-76.76z"/></clipPath><g clip-path="url(#bi)"><clipPath id="bj"><path transform="matrix(.49391 0 0 -.49391 37.502 324.715)" d="M-116.289 145.608h733.32v566.88h-733.32z" fill-rule="evenodd"/></clipPath><g clip-path="url(#bj)"><use xlink:href="#p" transform="matrix(10.84626 0 0 -10.84626 164.028 35.618)"/><use xlink:href="#q" transform="matrix(10.84626 0 0 -10.84626 174.133 35.788)"/></g></g></g><g data-name="P"><clipPath id="bk"><path transform="matrix(.49391 0 0 -.49391 37.502 324.715)" d="M-76.76 264.188h688.726v389.705H-76.76z"/></clipPath><g clip-path="url(#bk)"><clipPath id="bl"><path transform="matrix(.49391 0 0 -.49391 37.502 324.715)" d="M-116.289 145.608h733.32v566.88h-733.32z" fill-rule="evenodd"/></clipPath><g clip-path="url(#bl)"><use xlink:href="#B" transform="matrix(10.84626 0 0 -10.84626 185.165 34.438)"/></g></g></g><g data-name="P"><clipPath id="bm"><path transform="matrix(.49391 0 0 -.49391 37.502 324.715)" d="M-76.76 264.188h688.726v389.705H-76.76z"/></clipPath><g clip-path="url(#bm)"><clipPath id="bn"><path transform="matrix(.49391 0 0 -.49391 37.502 324.715)" d="M-116.289 145.608h733.32v566.88h-733.32z" fill-rule="evenodd"/></clipPath><g clip-path="url(#bn)"><use xlink:href="#aC" transform="matrix(10.84626 0 0 -10.84626 193.11 35.82)"/><use xlink:href="#aD" transform="matrix(10.84626 0 0 -10.84626 203.691 35.766)"/><use xlink:href="#E" transform="matrix(10.84626 0 0 -10.84626 214.908 35.91)"/><use xlink:href="#F" transform="matrix(10.84626 0 0 -10.84626 225.204 35.713)"/><use xlink:href="#G" transform="matrix(10.84626 0 0 -10.84626 237.13 35.618)"/><use xlink:href="#H" transform="matrix(10.84626 0 0 -10.84626 247.22 35.878)"/></g></g></g><g data-name="P"><clipPath id="bo"><path transform="matrix(.49391 0 0 -.49391 37.502 324.715)" d="M-76.76 264.188h688.726v389.705H-76.76z"/></clipPath><g clip-path="url(#bo)"><clipPath id="bp"><path transform="matrix(.49391 0 0 -.49391 37.502 324.715)" d="M-116.289 145.608h733.32v566.88h-733.32z" fill-rule="evenodd"/></clipPath><g clip-path="url(#bp)"><symbol id="bq"><path d="M.575.53C.574.681.473.764.289.764.114.764.013.682.013.54.013.427.07.372.218.344L.32.324C.42.305.457.277.457.218.457.157.401.12.31.12.208.12.151.163.146.241H0C.009.085.116 0 .302 0 .49 0 .601.087.601.236c0 .115-.058.175-.193.201L.294.459C.187.48.156.501.156.554c0 .055.048.09.126.09C.377.644.43.604.435.53h.14z"/></symbol><use xlink:href="#K" transform="matrix(10.84626 0 0 -10.84626 261.233 36.357)"/><use xlink:href="#bq" transform="matrix(10.84626 0 0 -10.84626 264.762 34.438)"/></g></g></g><g data-name="P"><clipPath id="br"><path transform="matrix(.49391 0 0 -.49391 37.502 324.715)" d="M-76.76 264.188h688.726v389.705H-76.76z"/></clipPath><g clip-path="url(#br)"><clipPath id="bs"><path transform="matrix(.49391 0 0 -.49391 37.502 324.715)" d="M-116.289 145.608h733.32v566.88h-733.32z" fill-rule="evenodd"/></clipPath><g clip-path="url(#bs)"><use xlink:href="#B" transform="matrix(7.23084 0 0 -7.23084 271.964 37.022)"/></g></g></g><g data-name="P"><clipPath id="bt"><path transform="matrix(.49391 0 0 -.49391 37.502 324.715)" d="M-76.76 264.188h688.726v389.705H-76.76z"/></clipPath><g clip-path="url(#bt)"><clipPath id="bu"><path transform="matrix(.49391 0 0 -.49391 37.502 324.715)" d="M-116.289 145.608h733.32v566.88h-733.32z" fill-rule="evenodd"/></clipPath><g clip-path="url(#bu)"><use xlink:href="#Q" transform="matrix(10.84626 0 0 -10.84626 277.1 36.357)"/></g></g></g><g data-name="P"><clipPath id="bv"><path transform="matrix(.49391 0 0 -.49391 37.502 324.715)" d="M-76.76 264.188h688.726v389.705H-76.76z"/></clipPath><g clip-path="url(#bv)"><clipPath id="bw"><path transform="matrix(.49391 0 0 -.49391 37.502 324.715)" d="M-116.289 145.608h733.32v566.88h-733.32z" fill-rule="evenodd"/></clipPath><g clip-path="url(#bw)"><symbol id="bx"><path d="M.868.222H.765l.004.05a.626.626 0 0 1 .003.046v.308h-.24V.309A.67.67 0 0 1 .54.216H.438a.865.865 0 0 1 .007.093v.236A5.374 5.374 0 0 0 .354.372a.336.336 0 0 1-.075.045c.018.027.032.05.044.072H.26V.115C.263.07.254.045.233.036A.423.423 0 0 0 .08.01a.35.35 0 0 1-.034.099A1.21 1.21 0 0 1 .143.1C.159.099.167.105.167.119a.05.05 0 0 1 0 .007V.49H.103C.081.489.046.486 0 .48v.093C.046.569.08.566.103.566h.104C.163.61.117.652.071.693l.059.06a.58.58 0 0 0 .059-.05C.206.73.224.759.242.792H.125a.812.812 0 0 1-.1-.01v.095C.073.87.106.868.125.868h.163c.026 0 .064.003.115.009v.016a.984.984 0 0 1 .099-.01h.304c.026 0 .06.004.102.01V.799C.858.804.823.807.806.807h-.11A1.69 1.69 0 0 0 .66.703H.77a.67.67 0 0 1 .099.01.638.638 0 0 1-.01-.09V.318A.94.94 0 0 1 .869.222M.335.085C.442.113.513.15.547.196.586.243.605.317.604.42a2.806 2.806 0 0 1-.005.152L.693.563c.02-.002.03-.005.032-.01L.726.55C.726.545.721.536.71.524.702.517.698.497.699.464V.42C.7.3.68.214.64.16.606.107.527.053.404 0a.209.209 0 0 1-.069.085m.004.696A3.707 3.707 0 0 0 .255.649c.022-.02.039-.037.05-.05L.272.567h.08c.018 0 .05.002.094.008v.043a.857.857 0 0 1-.007.095.923.923 0 0 1 .103-.01h.023a.776.776 0 0 1 .033.105H.502a1 1 0 0 1-.1-.008v.076A1.196 1.196 0 0 1 .34.781M.72.25C.808.186.879.127.935.077l-.07-.07C.8.077.732.137.66.188l.06.063z"/></symbol><symbol id="by"><path d="M.718.391A1.342 1.342 0 0 0 .69.682H.61a.713.713 0 0 0-.026-.16L.601.509.67.448.607.381a1.631 1.631 0 0 1-.058.056.612.612 0 0 0-.15-.18.38.38 0 0 1-.093.064c.08.041.138.1.173.177-.023.02-.048.04-.074.06l.06.058a2.81 2.81 0 0 1 .04-.031c.007.037.01.07.013.096H.493a.419.419 0 0 1-.086-.01v.094a.646.646 0 0 1 .086-.01h.028a.833.833 0 0 1-.008.156L.623.9C.636.897.645.892.646.884.648.876.642.867.63.857.619.85.614.832.615.804L.614.757h.072c.034 0 .07.005.109.011A.448.448 0 0 1 .786.682c0-.12.009-.209.025-.269C.815.397.82.39.824.39.83.388.833.395.837.409a.575.575 0 0 1 .015.105C.882.484.914.464.95.455A.527.527 0 0 0 .922.366C.896.311.863.282.822.28.774.283.74.32.718.39m-.66.021A.407.407 0 0 1 0 .504C.066.519.131.538.195.56V.67H.119A.574.574 0 0 1 .034.66v.093A.582.582 0 0 1 .12.745h.076V.8c0 .035-.003.072-.008.112L.296.897C.313.894.322.889.323.881.323.874.316.865.301.856.29.851.286.83.286.795v-.05h.01c.018 0 .049.003.093.009v-.09A1.002 1.002 0 0 1 .294.67H.286V.598c.03.013.065.03.102.05L.386.638A1.089 1.089 0 0 1 .375.547 2.786 2.786 0 0 1 .286.515v-.17C.29.294.256.264.181.258L.257.216C.272.207.279.199.277.192.277.185.267.179.25.175.242.173.235.167.228.155A2.39 2.39 0 0 0 .108 0a.178.178 0 0 1-.094.045.78.78 0 0 1 .165.214.503.503 0 0 0-.06-.006.229.229 0 0 1-.051.103C.115.351.148.348.165.348c.022 0 .031.005.03.017v.113A1.555 1.555 0 0 1 .058.412M.901.067.815.017A1.59 1.59 0 0 1 .68.234L.76.277A2.85 2.85 0 0 0 .9.067M.298.214.386.24a.803.803 0 0 0 .071-.2L.361.013a.8.8 0 0 1-.063.2M.49.236l.09.03C.615.193.641.127.658.067L.565.034a.742.742 0 0 1-.074.2z"/></symbol><symbol id="bz"><path d="M.492.731h.096v.057c0 .036-.003.076-.008.12L.69.892C.7.89.707.885.708.877.708.87.703.861.693.852.683.844.677.826.678.797V.731h.128c.03 0 .067.003.11.008V.647a.72.72 0 0 1-.11.01H.678V.528h.08c.032 0 .068.003.11.01V.444a.87.87 0 0 1-.11.01h-.25a.908.908 0 0 1-.11-.01v.092A.762.762 0 0 1 .509.53h.08v.127H.492a.785.785 0 0 1-.11-.009v.035a.046.046 0 0 0-.01-.008C.358.67.347.655.335.634a3.575 3.575 0 0 0-.15-.255C.235.388.3.4.375.417A.504.504 0 0 1 .361.328 3.078 3.078 0 0 1 .066.272a.317.317 0 0 1-.03.092C.066.37.089.385.104.41c.04.058.067.101.081.13A1.021 1.021 0 0 1 .03.52a.52.52 0 0 1-.026.081.139.139 0 0 1 .046.041c.042.075.08.164.116.27L.265.865C.273.862.278.857.278.852L.276.844C.276.84.268.835.254.829.244.826.234.813.225.792a1.756 1.756 0 0 0-.1-.183l.09.003a.964.964 0 0 1 .068.152L.374.711A.04.04 0 0 0 .382.705V.74a.846.846 0 0 1 .11-.009M.414.383c.04-.006.08-.01.12-.01h.202c.042 0 .082.003.12.01a.85.85 0 0 1-.01-.11v-.16a.787.787 0 0 1 .012-.11h-.11c.006.032.01.052.009.063H.513A.38.38 0 0 1 .52 0H.416C.42.03.423.067.423.11V.27a.949.949 0 0 1-.009.112M.513.14h.244v.157H.513V.14m-.15.101A.638.638 0 0 1 .356.142 2.555 2.555 0 0 1 .038.025.805.805 0 0 1 0 .133c.089.013.21.049.364.108z"/></symbol><symbol id="bA"><path d="M.779.364a2.184 2.184 0 0 1-.11.008H.587a.669.669 0 0 1 .34-.217.216.216 0 0 1-.09-.083.96.96 0 0 0-.333.27v-.25L.51 0H.405C.409.03.41.062.412.093v.236a1.064 1.064 0 0 0-.336-.28A.197.197 0 0 1 0 .124a.853.853 0 0 1 .332.249H.258C.235.372.198.369.147.364.152.41.154.443.155.462v.085C.155.56.152.593.147.644.185.64.22.637.251.637h.161v.082h-.28A1.36 1.36 0 0 1 .024.71V.8C.062.799.098.796.132.795h.28V.81a1.794 1.794 0 0 1-.008.11L.507.907C.52.905.529.9.53.894.532.887.527.879.514.87.51.867.507.862.505.854A.186.186 0 0 1 .503.817V.794h.275c.034.001.07.004.108.008V.71a1.79 1.79 0 0 1-.108.009H.503V.637h.162c.031 0 .069.003.114.007A1.65 1.65 0 0 1 .77.546v-.09C.771.44.774.41.779.364M.503.447H.68v.115H.503V.447m-.26.115V.447h.17v.115h-.17z"/></symbol><use xlink:href="#bx" transform="matrix(11.8657 0 0 -11.8657 194.194 155.723)"/><use xlink:href="#by" transform="matrix(11.8657 0 0 -11.8657 206.13 155.607)"/><use xlink:href="#bz" transform="matrix(11.8657 0 0 -11.8657 217.96 155.537)"/><use xlink:href="#bA" transform="matrix(11.8657 0 0 -11.8657 229.872 155.711)"/></g></g></g><g data-name="P"><clipPath id="bB"><path transform="matrix(.49391 0 0 -.49391 37.502 324.715)" d="M-76.76 264.188h688.726v389.705H-76.76z"/></clipPath><g clip-path="url(#bB)"><clipPath id="bC"><path transform="matrix(.49391 0 0 -.49391 37.502 324.715)" d="M-116.289 145.608h733.32v566.88h-733.32z" fill-rule="evenodd"/></clipPath><g clip-path="url(#bC)"><symbol id="bD"><path d="M.64.87C.627.865.62.857.611.843a.366.366 0 0 0-.01-.02h.165C.786.824.82.827.87.833.82.745.77.675.72.623A.563.563 0 0 1 .993.554.324.324 0 0 1 .917.452.964.964 0 0 0 .65.56.918.918 0 0 0 .404.433.406.406 0 0 1 .36.502V.29C.36.264.364.227.368.18H.27l.007.11v.332C.277.65.274.687.27.736L.359.723C.375.721.384.717.385.713A.022.022 0 0 0 .387.708C.387.7.382.694.372.685a.023.023 0 0 1-.01-.017.625.625 0 0 1-.001-.046V.525C.44.537.51.566.575.612a1.37 1.37 0 0 0-.065.06A5.358 5.358 0 0 0 .468.618.283.283 0 0 1 .376.67c.073.061.13.15.169.269L.636.903C.65.898.655.892.656.885.655.878.65.873.638.869M.145.533A.818.818 0 0 0 .1.453a.421.421 0 0 1-.1.035c.082.09.15.238.204.444L.305.895C.313.89.316.885.316.881.316.874.31.867.296.859a.042.042 0 0 1-.02-.023A2.079 2.079 0 0 0 .234.728V.132C.233.08.236.038.24.007H.137a.833.833 0 0 1 .008.125v.401M.829.334.9.277C.913.267.918.259.916.252.912.245.903.241.887.24.877.241.86.23.833.206A1.202 1.202 0 0 0 .423 0 .62.62 0 0 1 .35.094c.192.02.351.1.48.24M.745.324A1.082 1.082 0 0 0 .477.157.308.308 0 0 1 .41.243C.528.265.64.331.745.442L.81.393C.823.383.83.375.827.368.824.36.815.357.799.356.787.356.769.346.746.324M.665.428A1.448 1.448 0 0 0 .452.291.26.26 0 0 1 .39.369a.576.576 0 0 1 .275.177L.732.497C.746.487.752.477.75.47.747.462.737.458.72.458H.717c-.012 0-.03-.01-.052-.03M.713.75H.56V.747A.643.643 0 0 1 .641.67c.027.026.05.053.07.08z"/></symbol><symbol id="bE"><path d="M.269.086h.16v.637H.167C.133.723.098.721.063.717v.094L.168.803h.58c.027.001.061.004.1.008V.717a.906.906 0 0 1-.1.006H.522V.486h.17c.016 0 .05.003.1.007V.4C.762.402.729.404.693.405h-.17v-.32h.275a2.066 2.066 0 0 1 .104.008V0a1.475 1.475 0 0 1-.104.006H.107A1.538 1.538 0 0 1 0 0v.093A2.412 2.412 0 0 1 .106.086h.073v.383a1.88 1.88 0 0 1-.008.1L.275.555C.284.553.288.548.288.542A.043.043 0 0 0 .28.522C.273.513.27.492.27.46V.086z"/></symbol><symbol id="bF"><path d="M.21.917.308.876C.323.869.33.863.33.857.33.852.323.844.31.835.301.831.294.82.287.803A4.743 4.743 0 0 1 .244.696V.12C.244.075.246.035.251 0H.145a.804.804 0 0 1 .008.121v.401a.986.986 0 0 0-.05-.08.308.308 0 0 0-.017.012.231.231 0 0 1-.086.04C.096.578.166.72.21.917m.145-.79H.37v.46C.37.6.368.627.361.67A.468.468 0 0 1 .45.66h.096L.55.716H.394a.611.611 0 0 1-.092-.01v.095A.545.545 0 0 1 .394.79h.162l.002.033a.874.874 0 0 1-.002.103L.664.91C.674.91.68.905.68.898.681.89.677.884.668.876A.049.049 0 0 1 .651.839L.647.79h.18c.018 0 .048.003.092.01V.706a.68.68 0 0 1-.092.01H.641L.636.66h.116c.01 0 .039.003.087.01A.622.622 0 0 1 .83.588v-.46H.86c.024 0 .054.004.092.01V.044a.596.596 0 0 1-.092.01H.357a.554.554 0 0 1-.092-.01v.094a.541.541 0 0 1 .09-.01M.74.26v.06H.46V.26h.28M.46.454v-.06h.28v.06H.46m0 .133v-.06h.28v.06H.46m0-.46h.28v.061H.46v-.06z"/></symbol><use xlink:href="#bD" transform="matrix(11.85384 0 0 -11.85384 177.989 119.295)" fill="#7030a0"/><use xlink:href="#bE" transform="matrix(11.85384 0 0 -11.85384 190.41 118.513)" fill="#7030a0"/><use xlink:href="#bF" transform="matrix(11.85384 0 0 -11.85384 201.743 119.115)" fill="#7030a0"/></g></g></g><g data-name="P"><clipPath id="bG"><path transform="matrix(.49391 0 0 -.49391 37.502 324.715)" d="M-76.76 264.188h688.726v389.705H-76.76z"/></clipPath><g clip-path="url(#bG)"><path d="M207.753 143.629 179.25 132.55l.815-2.099 28.503 11.079zm-28.271-8.574-5.073-5.596 7.523-.702z"/></g></g><g data-name="P"><clipPath id="bH"><path transform="matrix(.49391 0 0 -.49391 37.502 324.715)" d="M-76.76 264.188h688.726v389.705H-76.76z"/></clipPath><g clip-path="url(#bH)"><path stroke-width="2.2522295999999997" stroke-dasharray="2.2522295999999997,2.2522295999999997" stroke-miterlimit="8" fill="none" stroke="#ffc000" d="m80.112 145.851 91.961-42.175"/></g></g><g data-name="P"><clipPath id="bI"><path transform="matrix(.49391 0 0 -.49391 37.502 324.715)" d="M-76.76 264.188h688.726v389.705H-76.76z"/></clipPath><g clip-path="url(#bI)"><path stroke-width="2.2522295999999997" stroke-dasharray="9.008918399999999,6.7566888" stroke-miterlimit="8" fill="none" stroke="#00b050" d="m80.646 157.839 91.427-30.455"/></g></g><g data-name="P"><clipPath id="bJ"><path transform="matrix(.49391 0 0 -.49391 37.502 324.715)" d="M-76.76 264.188h688.726v389.705H-76.76z"/></clipPath><g clip-path="url(#bJ)"><path d="m80.082 139.959 2.623-5.28-.257 4.845 2.979-.79-1.18 2.603 3.091.75-2.455 2.13 2.816 2.563-3.359-.316.924 4.697-2.914-3.314-.544 4.8-1.911-4.366-1.447 6.07-.534-5.442-2.089 1.812.637-3.348-3.902.582 2.529-2.553-2.623-2.88 3.265-.908-3.003-4.85 4.895 3.67.736-3.67z" fill="red" fill-rule="evenodd"/></g><clipPath id="bK"><path transform="matrix(.49391 0 0 -.49391 37.502 324.715)" d="M-76.76 264.188h688.726v389.705H-76.76z"/></clipPath><g clip-path="url(#bK)"><path stroke-width=".4741536" stroke-miterlimit="8" fill="none" stroke="red" d="m80.082 139.959 2.623-5.28-.257 4.845 2.979-.79-1.18 2.603 3.091.75-2.455 2.13 2.816 2.563-3.359-.316.924 4.697-2.914-3.314-.544 4.8-1.911-4.366-1.447 6.07-.534-5.442-2.089 1.812.637-3.348-3.902.582 2.529-2.553-2.623-2.88 3.265-.908-3.003-4.85 4.895 3.67.736-3.67z"/></g></g><g data-name="P"><clipPath id="bL"><path transform="matrix(.49391 0 0 -.49391 37.502 324.715)" d="M-76.76 264.188h688.726v389.705H-76.76z"/></clipPath><g clip-path="url(#bL)"><path stroke-width="1.1261147999999999" stroke-dasharray="4.504459199999999,3.3783444" stroke-miterlimit="8" fill="none" stroke="#000" d="M171.831 68.382V175.1"/></g></g><g data-name="P"><clipPath id="bM"><path transform="matrix(.49391 0 0 -.49391 37.502 324.715)" d="M-76.76 264.188h688.726v389.705H-76.76z"/></clipPath><g clip-path="url(#bM)"><path stroke-width="1.1261147999999999" stroke-dasharray="4.504459199999999,3.3783444" stroke-miterlimit="8" fill="none" stroke="#000" d="M290.488 68.382V175.1"/></g></g><g data-name="P"><clipPath id="bN"><path transform="matrix(.49391 0 0 -.49391 37.502 324.715)" d="M-76.76 264.188h688.726v389.705H-76.76z"/></clipPath><g clip-path="url(#bN)"><path d="m171.357 126.44-.42-19.489 1.6-.035.42 19.49zm-3.6-18.62 3.896-4.884 4.105 4.711z" fill="#7030a0"/></g></g><g data-name="P"><clipPath id="bO"><path transform="matrix(.49391 0 0 -.49391 37.502 324.715)" d="M-76.76 264.188h688.726v389.705H-76.76z"/></clipPath><g clip-path="url(#bO)"><path stroke-width="2.2522295999999997" stroke-dasharray="9.008918399999999,6.7566888" stroke-miterlimit="8" fill="none" stroke="#00b050" d="M132.684 49.149h23.935"/></g></g><g data-name="P"><clipPath id="bP"><path transform="matrix(.49391 0 0 -.49391 37.502 324.715)" d="M-76.76 264.188h688.726v389.705H-76.76z"/></clipPath><g clip-path="url(#bP)"><clipPath id="bQ"><path transform="matrix(.49391 0 0 -.49391 37.502 324.715)" d="M-116.289 145.608h733.32v566.88h-733.32z" fill-rule="evenodd"/></clipPath><g clip-path="url(#bQ)"><use xlink:href="#p" transform="matrix(10.85812 0 0 -10.85812 8.707 54.043)"/><use xlink:href="#q" transform="matrix(10.85812 0 0 -10.85812 18.811 54.212)"/></g></g></g><g data-name="P"><clipPath id="bR"><path transform="matrix(.49391 0 0 -.49391 37.502 324.715)" d="M-76.76 264.188h688.726v389.705H-76.76z"/></clipPath><g clip-path="url(#bR)"><clipPath id="bS"><path transform="matrix(.49391 0 0 -.49391 37.502 324.715)" d="M-116.289 145.608h733.32v566.88h-733.32z" fill-rule="evenodd"/></clipPath><g clip-path="url(#bS)"><use xlink:href="#B" transform="matrix(10.85812 0 0 -10.85812 29.844 52.86)"/></g></g></g><g data-name="P"><clipPath id="bT"><path transform="matrix(.49391 0 0 -.49391 37.502 324.715)" d="M-76.76 264.188h688.726v389.705H-76.76z"/></clipPath><g clip-path="url(#bT)"><clipPath id="bU"><path transform="matrix(.49391 0 0 -.49391 37.502 324.715)" d="M-116.289 145.608h733.32v566.88h-733.32z" fill-rule="evenodd"/></clipPath><g clip-path="url(#bU)"><symbol id="bV"><path d="M.553.854C.603.848.638.845.658.845h.117c.039 0 .08.004.124.009a3.644 3.644 0 0 0-.13-.311.286.286 0 0 0 .145-.239A.186.186 0 0 0 .891.21C.867.162.81.134.718.127a.6.6 0 0 1-.058.12.915.915 0 0 1 .095-.01C.799.238.82.262.822.308.817.39.764.458.663.515.7.588.735.673.768.77H.651V.125C.653.071.655.029.659 0H.553C.557.03.56.071.561.125v.61C.561.77.558.81.553.853m-.4-.059h.11C.232.828.202.856.174.88l.068.061C.293.896.33.86.356.831L.319.794h.08a1.1 1.1 0 0 1 .108.01V.71a1.712 1.712 0 0 1-.108.01H.39L.454.691C.464.688.47.682.47.675.469.67.463.663.45.657A.062.062 0 0 1 .427.632 1.418 1.418 0 0 0 .385.548H.43C.466.55.502.552.54.556V.464a1.308 1.308 0 0 1-.108.01H.108A1.577 1.577 0 0 1 0 .463v.092C.037.552.073.55.108.548h.065a1.65 1.65 0 0 1-.077.124L.171.72H.153A1.751 1.751 0 0 1 .045.711v.093C.078.8.115.797.153.795m.03-.769H.077c.004.029.006.066.008.111v.17a1.418 1.418 0 0 1-.008.11A1.02 1.02 0 0 1 .19.408h.173C.402.41.44.412.474.417a1.421 1.421 0 0 1-.008-.11V.161c0-.03.003-.066.007-.11H.368c.004.02.006.04.007.057h-.2A.938.938 0 0 1 .183.026M.175.333v-.15h.2v.15h-.2m.117.215C.317.597.34.654.36.72H.175L.26.59.2.547h.092z"/></symbol><symbol id="bW"><path d="M.073.081C.256.141.35.273.351.48H.328C.288.479.248.475.208.47v.05a.924.924 0 0 0-.12-.112A.66.66 0 0 1 0 .475c.157.08.262.22.316.417L.4.86C.42.853.43.846.43.84.43.835.421.826.403.815.394.809.384.795.374.77A1.056 1.056 0 0 0 .241.559.72.72 0 0 1 .328.554h.293c.027 0 .054.002.081.004C.627.64.562.755.506.904l.1.015C.655.743.772.6.959.493A.465.465 0 0 1 .855.418a1.312 1.312 0 0 0-.118.103.561.561 0 0 1-.004-.065L.724.252C.721.154.706.092.677.069.656.043.593.027.49.022A.597.597 0 0 1 .44.128C.488.123.522.12.542.12c.034 0 .056.008.067.026.01.015.017.052.019.112a15.677 15.677 0 0 0 .01.221H.448A.53.53 0 0 0 .155 0a.777.777 0 0 1-.082.081z"/></symbol><use xlink:href="#E" transform="matrix(10.85812 0 0 -10.85812 37.897 54.334)"/><use xlink:href="#F" transform="matrix(10.85812 0 0 -10.85812 48.191 54.138)"/><use xlink:href="#G" transform="matrix(10.85812 0 0 -10.85812 60.12 54.043)"/><use xlink:href="#H" transform="matrix(10.85812 0 0 -10.85812 70.207 54.302)"/><use xlink:href="#bx" transform="matrix(10.85812 0 0 -10.85812 80.937 54.255)"/><use xlink:href="#by" transform="matrix(10.85812 0 0 -10.85812 91.847 54.149)"/><use xlink:href="#bV" transform="matrix(10.85812 0 0 -10.85812 102.714 54.302)"/><use xlink:href="#bW" transform="matrix(10.85812 0 0 -10.85812 113.375 54.17)"/></g></g></g><g data-name="P"><clipPath id="bX"><path transform="matrix(.49391 0 0 -.49391 37.502 324.715)" d="M-76.76 264.188h688.726v389.705H-76.76z"/></clipPath><g clip-path="url(#bX)"><clipPath id="bY"><path transform="matrix(.49391 0 0 -.49391 37.502 324.715)" d="M-116.289 145.608h733.32v566.88h-733.32z" fill-rule="evenodd"/></clipPath><g clip-path="url(#bY)"><use xlink:href="#L" transform="matrix(8.89038 0 0 -8.89038 39.104 154.791)"/></g></g></g><g data-name="P"><clipPath id="bZ"><path transform="matrix(.49391 0 0 -.49391 37.502 324.715)" d="M-76.76 264.188h688.726v389.705H-76.76z"/></clipPath><g clip-path="url(#bZ)"><clipPath id="ca"><path transform="matrix(.49391 0 0 -.49391 37.502 324.715)" d="M-116.289 145.608h733.32v566.88h-733.32z" fill-rule="evenodd"/></clipPath><g clip-path="url(#ca)"><use xlink:href="#X" transform="matrix(5.92692 0 0 -5.92692 44.385 156.984)"/></g></g></g><g data-name="P"><clipPath id="cb"><path transform="matrix(.49391 0 0 -.49391 37.502 324.715)" d="M-76.76 264.188h688.726v389.705H-76.76z"/></clipPath><g clip-path="url(#cb)"><clipPath id="cc"><path transform="matrix(.49391 0 0 -.49391 37.502 324.715)" d="M-116.289 145.608h733.32v566.88h-733.32z" fill-rule="evenodd"/></clipPath><g clip-path="url(#cc)"><use xlink:href="#bc" transform="matrix(8.90223 0 0 -8.90223 122.5 115.935)"/></g></g></g><g data-name="P"><clipPath id="cd"><path transform="matrix(.49391 0 0 -.49391 37.502 324.715)" d="M-76.76 264.188h688.726v389.705H-76.76z"/></clipPath><g clip-path="url(#cd)"><clipPath id="ce"><path transform="matrix(.49391 0 0 -.49391 37.502 324.715)" d="M-116.289 145.608h733.32v566.88h-733.32z" fill-rule="evenodd"/></clipPath><g clip-path="url(#ce)"><use xlink:href="#X" transform="matrix(5.92692 0 0 -5.92692 128.7 118.138)"/></g></g></g><g data-name="P"><clipPath id="cf"><path transform="matrix(.49391 0 0 -.49391 37.502 324.715)" d="M-76.76 264.188h688.726v389.705H-76.76z"/></clipPath><g clip-path="url(#cf)"><clipPath id="cg"><path transform="matrix(.49391 0 0 -.49391 37.502 324.715)" d="M-116.289 145.608h733.32v566.88h-733.32z" fill-rule="evenodd"/></clipPath><g clip-path="url(#cg)"><use xlink:href="#bq" transform="matrix(8.89038 0 0 -8.89038 201.612 94.862)"/></g></g></g><g data-name="P"><clipPath id="ch"><path transform="matrix(.49391 0 0 -.49391 37.502 324.715)" d="M-76.76 264.188h688.726v389.705H-76.76z"/></clipPath><g clip-path="url(#ch)"><clipPath id="ci"><path transform="matrix(.49391 0 0 -.49391 37.502 324.715)" d="M-116.289 145.608h733.32v566.88h-733.32z" fill-rule="evenodd"/></clipPath><g clip-path="url(#ci)"><use xlink:href="#B" transform="matrix(5.92692 0 0 -5.92692 207.515 96.987)"/></g></g></g><g data-name="P"><clipPath id="cj"><path transform="matrix(.49391 0 0 -.49391 37.502 324.715)" d="M-76.76 264.188h688.726v389.705H-76.76z"/></clipPath><g clip-path="url(#cj)"><clipPath id="ck"><path transform="matrix(.49391 0 0 -.49391 37.502 324.715)" d="M-116.289 145.608h733.32v566.88h-733.32z" fill-rule="evenodd"/></clipPath><g clip-path="url(#ck)"><use xlink:href="#L" transform="matrix(8.89038 0 0 -8.89038 243.573 114.216)"/></g></g></g><g data-name="P"><clipPath id="cl"><path transform="matrix(.49391 0 0 -.49391 37.502 324.715)" d="M-76.76 264.188h688.726v389.705H-76.76z"/></clipPath><g clip-path="url(#cl)"><clipPath id="cm"><path transform="matrix(.49391 0 0 -.49391 37.502 324.715)" d="M-116.289 145.608h733.32v566.88h-733.32z" fill-rule="evenodd"/></clipPath><g clip-path="url(#cm)"><use xlink:href="#B" transform="matrix(5.92692 0 0 -5.92692 248.628 116.546)"/></g></g></g></g></g></g></g><clipPath id="cn"><path transform="matrix(1 0 0 -1 -70.866 765.355)" d="M-57.436 71.917h595.28v841.89h-595.28z"/></clipPath><g clip-path="url(#cn)"><clipPath id="co"><path transform="matrix(1 0 0 -1 -70.866 765.355)" d="M-57.436 71.917h595.28v841.89h-595.28z"/></clipPath><g clip-path="url(#co)"><clipPath id="cp"><path transform="matrix(1 0 0 -1 -70.866 765.355)" d="M-57.436 71.917h595.28v841.89h-595.28z"/></clipPath><g clip-path="url(#cp)"><symbol id="cq"><path d="M.75.828V.18c0-.052.001-.1.004-.14L.695.007v.078H.06V.023L0 0c.003.052.004.105.004.16v.59C.004.794.003.844 0 .898L.059.863h.629l.027.04.062-.051L.75.828M.059.84V.36a.94.94 0 0 1 .285.175.854.854 0 0 0-.09.16A.867.867 0 0 0 .12.531L.11.54c.042.055.077.11.106.168.028.06.045.104.05.133H.06m0-.73h.636v.73H.273L.34.805.316.793A1.467 1.467 0 0 1 .281.738h.207l.028.035L.574.72.543.699A1.887 1.887 0 0 0 .406.527.548.548 0 0 1 .684.422V.406C.644.404.62.388.609.36A.75.75 0 0 0 .371.5.89.89 0 0 0 .06.34V.11m.21.605A.802.802 0 0 1 .376.563a1.1 1.1 0 0 1 .11.152H.27m.023-.3A.89.89 0 0 0 .426.378C.452.369.464.35.46.324.458.301.453.29.445.29S.428.296.418.31a.721.721 0 0 1-.129.093l.004.012M.219.274C.339.26.417.246.453.233c.04-.01.06-.03.063-.058C.518.147.513.133.5.133.492.133.48.14.46.156A.801.801 0 0 1 .22.258v.015z"/></symbol><use xlink:href="#cq" transform="matrix(11 0 0 -11 92.468 211.284)"/></g></g></g><clipPath id="cr"><path transform="matrix(1 0 0 -1 -70.866 765.355)" d="M-57.436 71.917h595.28v841.89h-595.28z"/></clipPath><g clip-path="url(#cr)"><clipPath id="cs"><path transform="matrix(1 0 0 -1 -70.866 765.355)" d="M-57.436 71.917h595.28v841.89h-595.28z"/></clipPath><g clip-path="url(#cs)"><clipPath id="ct"><path transform="matrix(1 0 0 -1 -70.866 765.355)" d="M-57.436 71.917h595.28v841.89h-595.28z"/></clipPath><g clip-path="url(#ct)"><symbol id="cu"><path d="M.386.674.348.59h-.2L.106.502A.349.349 0 0 0 .311.406.216.216 0 0 0 .375.25.22.22 0 0 0 .354.153.257.257 0 0 0 .229.027.264.264 0 0 0 .114 0C.074 0 .045.007.027.02.009.034 0 .049 0 .065c0 .01.004.017.011.024a.04.04 0 0 0 .029.01.056.056 0 0 0 .022-.003.198.198 0 0 0 .032-.02A.13.13 0 0 1 .168.05c.039 0 .072.015.1.043A.144.144 0 0 1 .313.2c0 .04-.013.077-.039.112a.247.247 0 0 1-.106.08.432.432 0 0 1-.145.026l.127.257h.237z"/></symbol><symbol id="cv"><path d="M.054.108A.052.052 0 0 0 .093.092.052.052 0 0 0 .108.054.053.053 0 0 0 .092.016.052.052 0 0 0 .054 0 .053.053 0 0 0 0 .054C0 .07.005.082.016.093c.01.01.023.015.038.015z"/></symbol><symbol id="cw"><path d="M.013 0v.018c.043 0 .082.01.118.03.037.019.072.052.106.1.034.047.058.1.071.156A.263.263 0 0 0 .17.254.157.157 0 0 0 .05.31.204.204 0 0 0 0 .452c0 .058.017.11.05.155a.185.185 0 0 0 .296.015.306.306 0 0 0 .071-.206A.411.411 0 0 0 .363.21a.458.458 0 0 0-.15-.158A.305.305 0 0 0 .04 0H.013m.303.34a.78.78 0 0 1 .009.102.362.362 0 0 1-.016.102.191.191 0 0 1-.046.084.092.092 0 0 1-.067.03.097.097 0 0 1-.076-.04C.098.594.087.555.087.503.087.434.1.38.13.342A.095.095 0 0 1 .208.298C.223.3.241.303.262.31.282.317.3.327.316.34z"/></symbol><symbol id="cx"><path d="M.437.127.391 0H0v.018c.115.105.196.19.243.257.047.066.07.127.07.182a.144.144 0 0 1-.039.104.123.123 0 0 1-.092.04.144.144 0 0 1-.088-.029A.165.165 0 0 1 .037.49H.02c.008.06.029.106.063.138a.176.176 0 0 0 .126.049.186.186 0 0 0 .134-.052.163.163 0 0 0 .054-.122.236.236 0 0 0-.023-.1.663.663 0 0 0-.117-.168 3.477 3.477 0 0 0-.152-.16h.173c.035 0 .06.001.074.004a.099.099 0 0 1 .038.015c.012.008.021.02.03.034h.018z"/></symbol><symbol id="cy"><path d="M.553.183.57.18.513 0H0v.018h.025c.028 0 .048.01.06.027.007.01.01.035.01.073v.427c0 .041-.004.067-.013.078C.069.637.05.644.025.644H0v.018h.3V.644a.185.185 0 0 1-.074-.01.06.06 0 0 1-.03-.026A.213.213 0 0 1 .19.534V.118C.189.09.192.072.197.062A.035.035 0 0 1 .215.047.317.317 0 0 1 .29.042h.048a.35.35 0 0 1 .107.011c.02.008.04.02.056.04a.33.33 0 0 1 .051.09z"/></symbol><symbol id="cz"><path d="M.566.692.58.467H.566a.283.283 0 0 1-.087.146.21.21 0 0 1-.134.044.218.218 0 0 1-.12-.033.221.221 0 0 1-.083-.107.479.479 0 0 1-.03-.182C.111.275.12.223.14.179a.216.216 0 0 1 .087-.1.25.25 0 0 1 .132-.036c.043 0 .08.01.114.027A.379.379 0 0 1 .58.18L.596.17A.348.348 0 0 0 .48.041.294.294 0 0 0 .322 0C.212 0 .128.04.067.122A.349.349 0 0 0 0 .336a.38.38 0 0 0 .044.182.33.33 0 0 0 .292.174A.312.312 0 0 0 .48.657a.077.077 0 0 1 .029-.01C.517.646.524.65.53.655a.076.076 0 0 1 .018.036h.017z"/></symbol><symbol id="cA"><path d="M.155.694V.101c0-.028.002-.046.006-.056a.046.046 0 0 1 .02-.02.112.112 0 0 1 .047-.007V0h-.22v.018c.02 0 .035.002.042.006a.042.042 0 0 1 .018.02c.004.01.006.03.006.057v.406c0 .05 0 .082-.003.093C.069.612.065.62.06.624A.028.028 0 0 1 .04.63.091.091 0 0 1 .009.623L0 .64l.133.054h.022z"/></symbol><symbol id="cB"><path d="M.216.474A.198.198 0 0 0 .38.397.237.237 0 0 0 .432.246c0-.04-.01-.081-.03-.122A.21.21 0 0 0 .324.031.208.208 0 0 0 .211 0a.19.19 0 0 0-.16.08A.25.25 0 0 0 0 .234c0 .04.01.082.03.122a.208.208 0 0 0 .186.12M.201.441A.102.102 0 0 1 .15.427.107.107 0 0 1 .107.373a.26.26 0 0 1-.016-.1C.09.21.104.154.129.106.155.058.19.035.232.035.264.035.29.048.31.074.33.1.34.144.34.208.34.288.325.35.29.396A.106.106 0 0 1 .2.442z"/></symbol><symbol id="cC"><path d="M.377.184a.244.244 0 0 0-.07-.137A.17.17 0 0 0 .188 0a.172.172 0 0 0-.132.064A.251.251 0 0 0 0 .237c0 .07.02.127.063.171a.201.201 0 0 0 .15.066C.257.474.293.462.322.44.35.416.364.392.364.367a.04.04 0 0 0-.012-.03A.046.046 0 0 0 .32.324c-.02 0-.034.006-.044.019C.27.35.266.364.265.383a.063.063 0 0 1-.02.044.07.07 0 0 1-.048.014A.097.097 0 0 1 .12.405.192.192 0 0 1 .079.28c0-.054.013-.1.04-.142a.121.121 0 0 1 .106-.06c.032 0 .06.01.086.032A.22.22 0 0 1 .363.19L.377.184z"/></symbol><symbol id="cD"><path d="M.155.694V.25L.27.353a.381.381 0 0 1 .042.042.021.021 0 0 1 .004.012.02.02 0 0 1-.008.016C.3.428.293.431.28.432v.015h.195V.432A.186.186 0 0 1 .408.419.217.217 0 0 1 .35.38L.235.273.35.128A1.02 1.02 0 0 1 .414.052a.133.133 0 0 1 .041-.03.128.128 0 0 1 .043-.004V0H.28v.018C.293.018.3.02.305.023a.018.018 0 0 1 .007.015c0 .007-.006.02-.02.036L.155.249V.101c0-.03.002-.048.006-.058A.04.04 0 0 1 .18.023.13.13 0 0 1 .228.019V0H0v.018c.023 0 .04.002.051.008.007.003.012.009.016.016.005.011.007.03.007.056v.407A.722.722 0 0 1 .071.6C.069.612.065.62.06.624a.03.03 0 0 1-.02.007.092.092 0 0 1-.032-.008L0 .64l.133.054h.022z"/></symbol><use xlink:href="#cu" transform="matrix(11 0 0 -11 105.24 210.382)"/><use xlink:href="#cv" transform="matrix(11 0 0 -11 110.993 210.403)"/><use xlink:href="#cw" transform="matrix(11 0 0 -11 113.4 210.403)"/><use xlink:href="#cx" transform="matrix(11 0 0 -11 129.69 210.253)"/><use xlink:href="#cy" transform="matrix(11 0 0 -11 135.173 210.253)"/><use xlink:href="#cz" transform="matrix(11 0 0 -11 142.071 210.42)"/><use xlink:href="#cA" transform="matrix(11 0 0 -11 149.339 210.253)"/><use xlink:href="#cB" transform="matrix(11 0 0 -11 152.44 210.403)"/><use xlink:href="#cC" transform="matrix(11 0 0 -11 157.945 210.403)"/><use xlink:href="#cD" transform="matrix(11 0 0 -11 162.544 210.253)"/></g></g></g><clipPath id="cE"><path transform="matrix(1 0 0 -1 -70.866 765.355)" d="M-57.436 71.917h595.28v841.89h-595.28z"/></clipPath><g clip-path="url(#cE)"><clipPath id="cF"><path transform="matrix(1 0 0 -1 -70.866 765.355)" d="M-57.436 71.917h595.28v841.89h-595.28z"/></clipPath><g clip-path="url(#cF)"><clipPath id="cG"><path transform="matrix(1 0 0 -1 -70.866 765.355)" d="M-57.436 71.917h595.28v841.89h-595.28z"/></clipPath><g clip-path="url(#cG)"><symbol id="cH"><path d="M.145.598V.03L.085 0a11.778 11.778 0 0 1 0 .652l.06-.03h.16v.183H.129A.355.355 0 0 1 .035.793L0 .828h.77l.058.059L.91.805H.586V.62H.75l.031.04.067-.052L.813.586V.117c0-.05-.03-.086-.086-.11C.72.045.677.074.594.095v.02A.944.944 0 0 1 .723.097C.746.1.758.12.758.156v.442H.586A1 1 0 0 0 .57.449C.66.405.706.375.71.36A.092.092 0 0 0 .724.32.097.097 0 0 0 .71.277C.703.264.698.257.695.257.688.258.678.273.668.302A.392.392 0 0 1 .566.43.505.505 0 0 0 .363.164L.355.176a.531.531 0 0 1 .176.422H.36A2.228 2.228 0 0 0 .348.48C.408.444.44.414.445.39.451.37.448.354.437.34.43.33.423.324.418.324.41.324.402.337.395.364A.27.27 0 0 1 .344.46a.497.497 0 0 0-.18-.262L.156.211c.097.102.146.23.149.387h-.16m.214.207V.62h.172v.184H.36z"/></symbol><symbol id="cI"><path d="M.574.867.543.847A.66.66 0 0 1 .68.665a.484.484 0 0 1 .195-.09V.563C.846.56.825.543.809.515a.531.531 0 0 0-.172.129.737.737 0 0 0-.106.183.852.852 0 0 0-.148-.21.608.608 0 0 0-.149-.11L.23.52c.086.07.15.144.192.222C.466.82.492.878.5.914L.574.867M.45.504c0-.13-.005-.22-.015-.27A.292.292 0 0 0 .367.102.483.483 0 0 0 .215 0L.21.012c.078.05.128.1.148.152a.516.516 0 0 1 .036.203 2.5 2.5 0 0 1 0 .2L.477.522.449.503M.61.017a10.128 10.128 0 0 1 0 .55L.688.52.663.5V.18C.664.135.665.09.668.047L.609.016M.203.8H.055V.309C.117.29.16.285.184.293c.026.008.036.038.03.09C.213.437.185.496.13.559L.203.8M0 0c.003.073.004.224.004.453C.004.683.003.818 0 .86L.059.824h.144L.238.86.293.805.258.785C.234.738.198.663.148.56A.42.42 0 0 0 .234.46a.203.203 0 0 0 .04-.098.142.142 0 0 0-.024-.09C.232.247.197.227.145.211.137.245.107.27.055.289V.027L0 0z"/></symbol><symbol id="cJ"><path d="m.16.266.277.062.008-.016L.16.22C.16.138.161.077.164.035L.105 0A4.9 4.9 0 0 1 .11.203C.068.19.044.178.04.168L0 .238a.6.6 0 0 1 .11.02v.34c0 .127-.002.21-.005.25l.06-.035a.6.6 0 0 1 .108.03.37.37 0 0 1 .102.055L.434.832A.614.614 0 0 1 .313.816 3.796 3.796 0 0 0 .16.79V.645h.137l.039.039L.398.62H.16V.465h.133l.039.039L.395.44H.16V.266m.324.601L.543.832H.68l.03.035.056-.05L.734.792V.637c0-.026.013-.04.04-.04H.8A.088.088 0 0 1 .84.614C.85.618.86.615.87.602.881.589.887.579.887.574c0-.013-.02-.02-.059-.02H.75C.706.555.684.573.684.606V.81H.539A.512.512 0 0 0 .516.617C.497.567.453.522.383.48L.37.492c.05.04.08.077.09.113.013.04.02.08.023.122.003.044.003.09 0 .14M.5.457A1.06 1.06 0 0 1 .55.336a.894.894 0 0 1 .063-.09c.021.026.04.059.059.098C.69.383.704.42.715.457H.5M.582.211a.654.654 0 0 0-.055.098A1.709 1.709 0 0 0 .48.457L.438.449.405.48h.309L.75.52.809.465.773.44A1.108 1.108 0 0 0 .648.207.595.595 0 0 1 .79.105.384.384 0 0 1 .918.07V.055C.882.052.858.038.848.012a.397.397 0 0 0-.11.05.567.567 0 0 0-.125.11A.69.69 0 0 0 .438.07 1.09 1.09 0 0 0 .234.004L.23.02a.925.925 0 0 1 .352.19z"/></symbol><symbol id="cK"><path d="M.266.746h.187c.01.055.017.108.02.16L.566.867.531.84.511.746h.27l.051.05.074-.073H.508A1.13 1.13 0 0 0 .227.16L.215.168c.114.156.193.341.234.555H.344L.297.715.266.746M.523.543A.439.439 0 0 0 .512.395C.504.368.495.353.484.348a.128.128 0 0 0-.03-.004C.442.344.433.346.43.352a.03.03 0 0 0-.004.011c0 .01.009.026.027.047.024.024.042.068.055.133h.015M.824.035C.73.113.667.251.633.45.617.246.5.098.28.004L.273.016C.41.09.497.186.54.3a.895.895 0 0 1 .05.387L.685.644.652.617a1.396 1.396 0 0 1 0-.148A.488.488 0 0 1 .676.37C.733.431.775.488.8.543L.867.48C.847.483.785.44.684.352A.546.546 0 0 1 .77.188.323.323 0 0 1 .906.09V.074C.867.072.84.06.824.035M.086.684A.913.913 0 0 0 .09.594.224.224 0 0 0 .078.516C.073.497.06.486.04.48.021.478.01.48.004.484A.064.064 0 0 0 0 .504c0 .01.008.025.023.043.021.02.037.066.047.137h.016M.145.21v.52C.145.784.143.845.14.913L.227.871.195.844V.723a.32.32 0 0 0 .098-.07C.309.636.316.622.316.612A.092.092 0 0 0 .305.574C.297.561.29.554.285.554c-.008 0-.014.011-.02.032a.494.494 0 0 1-.07.117v-.52C.195.138.197.087.2.032L.141 0c.002.076.004.146.004.21z"/></symbol><symbol id="cL"><path d="M.27.672V.578h.375v.094H.27m0-.117V.457h.375v.098H.27m.046-.22a.668.668 0 0 1 .145-.14c.05.034.103.081.16.14H.316m-.062.58L.332.858.293.844.262.804H.71L.766.86.844.781H.25A.981.981 0 0 0 .012.578L0 .59a.795.795 0 0 1 .254.324m.113-.52L.336.38.32.359h.305L.66.395.723.332.683.316C.624.256.564.206.504.164a.757.757 0 0 1 .384-.09V.06a.077.077 0 0 1-.07-.051.764.764 0 0 0-.352.129A1.094 1.094 0 0 0 .004 0v.016c.182.036.322.087.418.152a1.06 1.06 0 0 0-.125.16A.789.789 0 0 0 .07.137L.066.148c.11.089.185.184.227.286H.27V.422L.207.39a3.7 3.7 0 0 1 0 .336L.27.695h.367l.035.04L.738.68.703.656V.543c0-.042.001-.078.004-.11L.645.41v.024H.297l.07-.04z"/></symbol><symbol id="cM"><path d="M.348.559.355.57A.52.52 0 0 0 .47.477C.492.453.503.432.5.414A.058.058 0 0 0 .484.371C.477.363.47.36.464.36c-.01 0-.02.017-.03.051A.493.493 0 0 1 .348.56m.297.09c0 .114-.002.19-.004.23L.73.836.698.805V.648h.086L.835.7.907.625H.7V.203A.101.101 0 0 0 .68.137a.114.114 0 0 0-.054-.04C.609.14.565.17.492.188v.016C.562.195.605.191.622.191c.015 0 .023.01.023.032v.402h-.27A.289.289 0 0 1 .301.613L.266.648h.379M.082.824.09.836A.4.4 0 0 0 .19.77C.212.75.221.732.22.71.219.694.214.68.203.673.195.664.19.66.183.66c-.01 0-.02.016-.03.047a.307.307 0 0 1-.071.117M.215.168A.43.43 0 0 1 .313.102C.351.083.402.072.465.066a4.076 4.076 0 0 1 .289 0l.164.012V.063C.866.052.84.03.84 0a6.815 6.815 0 0 0-.293.012.621.621 0 0 0-.18.027.283.283 0 0 0-.113.063C.223.13.2.145.187.145.177.145.16.13.134.102a.55.55 0 0 1-.07-.098L.007.059.16.168v.32H.13A.355.355 0 0 1 .035.477L0 .512h.148l.043.043L.246.5.215.473V.168z"/></symbol><symbol id="cN"><path d="M.441.527a4.048 4.048 0 0 1 0 .352L.5.844h.285L.82.879.875.824.84.801C.84.68.84.603.844.566L.789.546v.048H.496V.55L.441.527M.496.82V.617H.79V.82H.496M.391.477h.406L.84.52.902.453H.664V.285h.113L.82.328.883.262H.664v-.18h.152l.047.047.067-.07H.46A.355.355 0 0 1 .368.047L.332.082h.281v.18h-.07A.355.355 0 0 1 .449.25L.414.285h.2v.168H.52A.355.355 0 0 1 .426.441L.39.477M.195.805a3.75 3.75 0 0 0-.164-.02v.016c.05.008.107.022.172.043.068.02.112.04.133.058l.05-.07a.976.976 0 0 1-.14-.02V.617h.059L.348.66.41.594H.246V.52A.312.312 0 0 0 .352.457C.37.441.379.426.379.41A.075.075 0 0 0 .367.371C.362.361.357.355.352.355c-.008 0-.017.013-.028.04a.305.305 0 0 1-.078.109c0-.27.001-.43.004-.477L.191 0c.003.099.004.25.004.453a.93.93 0 0 0-.183-.3L.004.163a1.26 1.26 0 0 1 .18.43H.129A.355.355 0 0 1 .035.582L0 .617h.195v.188z"/></symbol><use xlink:href="#cH" transform="matrix(11 0 0 -11 171.18 211.327)"/><use xlink:href="#cI" transform="matrix(11 0 0 -11 182.61 211.284)"/><use xlink:href="#cJ" transform="matrix(11 0 0 -11 193.18 211.284)"/><use xlink:href="#cK" transform="matrix(11 0 0 -11 204.224 211.327)"/><use xlink:href="#cL" transform="matrix(11 0 0 -11 215.438 211.327)"/><use xlink:href="#cM" transform="matrix(11 0 0 -11 226.18 210.898)"/><use xlink:href="#cN" transform="matrix(11 0 0 -11 237.095 211.327)"/></g></g></g></g></svg>